<?xml version="1.0" encoding="utf-8"?>
<!-- Generator: Adobe Illustrator 26.5.0, SVG Export Plug-In . SVG Version: 6.00 Build 0)  -->
<svg version="1.1" id="Capa_1" xmlns="http://www.w3.org/2000/svg" xmlns:xlink="http://www.w3.org/1999/xlink" x="0px" y="0px"
	 viewBox="0 0 1200 939.58" style="enable-background:new 0 0 1200 939.58;" xml:space="preserve">
<style type="text/css">
	.st0{fill:none;stroke:#312164;stroke-width:13.033;stroke-linecap:round;stroke-miterlimit:10;}
	.st1{fill:none;stroke:#FAC247;stroke-width:8.6887;stroke-linecap:round;stroke-miterlimit:10;}
	.st2{fill:#FAC247;}
	.st3{fill:#8D7BDC;}
	.st4{fill:#EB5B66;}
	.st5{fill:#312164;}
	.st6{fill:#F6F1FD;}
	.st7{fill:none;stroke:#FAC247;stroke-width:4.3443;stroke-miterlimit:10;}
	.st8{fill:none;stroke:#8D7BDC;stroke-width:5.1562;stroke-linecap:round;stroke-miterlimit:10;}
	.st9{fill:#3AC6C5;}
	.st10{fill:none;stroke:#3AC6C5;stroke-width:10.3124;stroke-miterlimit:10;}
	.st11{fill:none;stroke:#3AC6C5;stroke-width:5.5012;stroke-miterlimit:10;}
	.st12{fill:#E65D63;}
	.st13{fill:none;stroke:#312164;stroke-width:5.6821;stroke-miterlimit:10;}
	.st14{fill:none;stroke:#3AC6C5;stroke-width:7.4282;stroke-miterlimit:10;}
	.st15{fill:none;stroke:#FAC247;stroke-width:5.2347;stroke-linecap:round;stroke-miterlimit:10;}
	.st16{fill:none;stroke:#8D7BDC;stroke-width:10.1117;stroke-linecap:round;stroke-miterlimit:10;}
	.st17{fill:none;stroke:#312164;stroke-width:10.1117;stroke-miterlimit:10;}
	.st18{fill:#5A3568;}
	.st19{fill:#947CDF;}
	.st20{fill:none;stroke:#FAC247;stroke-width:5.0559;stroke-linecap:round;stroke-miterlimit:10;}
	.st21{fill:none;stroke:#3AC6C5;stroke-width:5.0559;stroke-linecap:round;stroke-miterlimit:10;}
	.st22{fill:none;stroke:#312164;stroke-width:10.1117;stroke-linecap:round;stroke-miterlimit:10;}
	.st23{fill:none;stroke:#FAC247;stroke-width:14.2586;stroke-linecap:round;stroke-miterlimit:10;}
	.st24{fill:none;stroke:#8D7BDC;stroke-width:9.5057;stroke-linecap:round;stroke-miterlimit:10;}
	.st25{fill:none;stroke:#3AC6C5;stroke-width:7.0607;stroke-miterlimit:10;}
	.st26{fill:none;stroke:#8D7BDC;stroke-width:5.3025;stroke-linecap:round;stroke-miterlimit:10;}
	.st27{fill:none;stroke:#DB6466;stroke-width:8.9341;stroke-linecap:round;stroke-miterlimit:10;}
	.st28{fill:none;stroke:#3AC6C5;stroke-width:5.3025;stroke-miterlimit:10;}
	.st29{fill:none;stroke:#3AC6C5;stroke-width:10.605;stroke-miterlimit:10;}
	.st30{fill:none;stroke:#8D7BDC;stroke-width:14.9337;stroke-miterlimit:10;stroke-dasharray:84.0842,84.0842;}
	.st31{fill:none;stroke:#FAC247;stroke-width:14.9337;stroke-miterlimit:10;stroke-dasharray:84.0842,84.0842;}
	.st32{fill:#FFFFFF;}
	.st33{fill:#F0C5E6;}
	.st34{fill:#312662;}
	.st35{fill:none;stroke:#FDCFEB;stroke-width:2.9754;stroke-linecap:round;stroke-miterlimit:10;}
	.st36{fill:#F4F0FB;}
	.st37{fill:#FDDF99;}
	.st38{fill:#9180C5;}
	.st39{fill:none;stroke:#312164;stroke-width:0.9173;stroke-miterlimit:10;}
</style>
<g>
	<path class="st15" d="M1028.56,12.82c-19.81-3.12-36.13-3.65-43.18,32c-7.05,35.65-16.62,36.82-33.9,33.8
		c-17.27-3.02-30.11-13.12-59.56,8.95"/>
	<circle class="st16" cx="478.66" cy="209.33" r="41.31"/>
	<circle class="st9" cx="947.66" cy="439.1" r="10.12"/>
	<circle class="st4" cx="31.06" cy="562.16" r="12.17"/>
	<polyline class="st17" points="663.58,692.43 721.82,695.61 722.75,628.79 777.87,644.56 786.95,581.53 	"/>
	<path class="st3" d="M466.53,817.29H72.26c-16.03,0-29.03-13-29.03-29.03v0c0-16.03,13-29.03,29.03-29.03h394.27
		c16.03,0,29.03,13,29.03,29.03v0C495.56,804.3,482.57,817.29,466.53,817.29z"/>
	<path class="st5" d="M269.4,428.65L269.4,428.65c-97.87,0-177.21,79.34-177.21,177.21v168.35c0,7.76,6.29,14.06,14.06,14.06H446.6
		V605.86C446.6,507.99,367.27,428.65,269.4,428.65z"/>
	<path class="st18" d="M178.16,363.91c0,0-34.61,10.33-38.48-19.69s15.49-48.73,15.17-56.48c-0.32-7.75-10.97-3.55-17.1,3.87
		c-6.13,7.42-22.91,45.5-5.49,75.84s54.22,8.71,54.22,8.71L178.16,363.91z"/>
	<path class="st2" d="M221.01,353.91c-0.48,0-6.45-11.94-10.33-15.81c-3.87-3.87-8.71-2.42-12.91,0.65
		c-4.2,3.07-56.96,50.67-58.9,52.44c-1.94,1.77-6.94,8.07,0,15.17s15.49,23.56,30.17,13.88
		C183.74,410.54,221.01,353.91,221.01,353.91z"/>
	<path class="st9" d="M190.57,594.97c65.73-10.11,65.73-96.06,101.12-126.4c60.04-51.46,167.31-99.3,173.83-180.51
		c-61.43,8.93-110.66,7.71-158.45,21.09c-74.5,20.86-170.39,75.73-187.25,250.43c-1.05,10.89-1.5,21.25-1.45,31.14
		C141.33,597.77,165.39,600.01,190.57,594.97z"/>
	<path class="st2" d="M519.2,514.08c-66.85,44.57-82.6,151.98-54.24,235.68c84.51-21.3,96.86-78.85,219.9-159.2
		c10.6-6.92,20.58-13.27,30.06-19.17C662.67,517.09,582.79,468.66,519.2,514.08z"/>
	<path class="st5" d="M699.92,209.33c3.23-29.04,2.58-43.24,19.36-50.99c16.78-7.75,89.71,4.52,144.58,149.09
		s31.45,194.27,5.4,208.47c-26.05,14.2-86.72-47.76-127.39-163.94S699.92,209.33,699.92,209.33z"/>
	<path class="st19" d="M729.61,174.91c-36.14,10.33-98.1,73.15-194.49,98.97c-25.03,6.7-48.05,11.06-69.61,14.19
		C459,369.28,351.72,417.12,291.68,468.58c-35.39,30.34-35.39,116.28-101.12,126.4c-25.18,5.04-49.24,2.8-72.19-4.25
		c0,168.52,188.09,193.58,339.29,160.77c2.5-0.54,4.91-1.13,7.29-1.73c-28.37-83.71-12.62-191.12,54.24-235.68
		c63.59-45.42,143.48,3.01,195.72,57.31c103.62-64.52,141.7-70.47,147.22-72.05C902.58,392.63,798.45,183.51,729.61,174.91z"/>
	<path class="st20" d="M409.05,562.16l-36.14-66.1c0,0,54.65,5.86,59.81-4.04c5.16-9.9-27.54-52.93-27.54-52.93"/>
	<circle class="st9" cx="667.11" cy="363.69" r="6.56"/>
	<circle class="st9" cx="564.81" cy="337.24" r="10.76"/>
	<circle class="st9" cx="637.96" cy="297.54" r="7.31"/>
	<polyline class="st21" points="654.74,257.09 694.75,245.04 705.08,269.57 730.47,263.12 736.49,284.85 	"/>
	<circle class="st20" cx="585.46" cy="428.65" r="24.53"/>
	<path class="st21" d="M699.92,510.1c0.86-20.22,5.16-37.43,19.79-39.59c14.63-2.15,69.28,17.21,55.94-52.49"/>
	<path class="st2" d="M158.73,255.8c-4.84-3.87-9.36-5.97-6.13-9.36s15.01,3.87,14.04,2.58c-4.2-7.26-6.62-12.59-2.9-13.39
		c3.71-0.81,8.71,13.88,8.71,13.88c1.61-9.84,5.97-16.3,9.04-15.17s0.16,10.65,0,13.55c8.07-3.23,16.14-6.74,17.1-2.89
		c0.97,3.86-17.27,10.79-17.27,10.79c6.78,4.36,14.2,10.49,12.1,11.94s-14.04-6.13-16.14-7.42c6.62,10.97,16.46,26.62,14.04,28.4
		c-2.42,1.77-16.58-26.33-16.26-19.04c0.12,2.74,0.28,7.91-2.94,6.78s-1.94-14.09-2.58-14.95c-7.42,0.75-8.55,1.23-11.78-1.67
		S158.73,255.8,158.73,255.8z"/>
	<path class="st4" d="M929.69,129.94c-15.49,7.1-21.94,9.37,12.91,26.63c34.85,17.26,74.22,96,67.12,132.14s16.14,6.45,27.75-5.16
		c11.62-11.62,131.67-137.48,140.7-150.38s-4.52-41.95-18.07-54.86s-34.85-34.21-57.44-26.46S929.69,129.94,929.69,129.94z"/>
	<polyline class="st22" points="971.64,164.8 1100.73,132.52 1139.45,70.56 	"/>
	<line class="st16" x1="911.62" y1="164.8" x2="842.34" y2="186.96"/>
	<line class="st16" x1="931.84" y1="183.08" x2="887.52" y2="209.33"/>
	<line class="st16" x1="956.37" y1="198.57" x2="911.62" y2="231.7"/>
	<line class="st16" x1="966.26" y1="220.52" x2="897.26" y2="280.33"/>
	<line class="st16" x1="971.64" y1="259.24" x2="923.67" y2="310.45"/>
	<line class="st16" x1="979.6" y1="310.45" x2="940.88" y2="345.73"/>
	<circle class="st9" cx="312.66" cy="487.72" r="4.52"/>
	<circle class="st9" cx="186.48" cy="621.11" r="4.57"/>
	<path class="st3" d="M549.15,928.09H154.88c-16.03,0-29.03-13-29.03-29.03v0c0-16.03,13-29.03,29.03-29.03h394.27
		c16.03,0,29.03,13,29.03,29.03v0C578.18,915.1,565.18,928.09,549.15,928.09z"/>
	<path class="st5" d="M352.01,539.45L352.01,539.45c-97.87,0-177.21,79.34-177.21,177.21v172.67c0,5.38,4.36,9.74,9.74,9.74h334.94
		c5.38,0,9.74-4.36,9.74-9.74V716.66C529.22,618.79,449.88,539.45,352.01,539.45z"/>
	<circle class="st3" cx="352.01" cy="668.88" r="28.83"/>
</g>
</svg>
