<?xml version="1.0" encoding="utf-8"?>
<!-- Generator: Adobe Illustrator 26.5.0, SVG Export Plug-In . SVG Version: 6.00 Build 0)  -->
<svg version="1.1" id="Capa_1" xmlns="http://www.w3.org/2000/svg" xmlns:xlink="http://www.w3.org/1999/xlink" x="0px" y="0px"
	 viewBox="0 0 1552.34 1703.46" style="enable-background:new 0 0 1552.34 1703.46;" xml:space="preserve">
<style type="text/css">
	.st0{fill:none;stroke:#312164;stroke-width:13.033;stroke-linecap:round;stroke-miterlimit:10;}
	.st1{fill:none;stroke:#FAC247;stroke-width:8.6887;stroke-linecap:round;stroke-miterlimit:10;}
	.st2{fill:#FAC247;}
	.st3{fill:#8D7BDC;}
	.st4{fill:#EB5B66;}
	.st5{fill:#312164;}
	.st6{fill:#F6F1FD;}
	.st7{fill:none;stroke:#FAC247;stroke-width:4.3443;stroke-miterlimit:10;}
	.st8{fill:none;stroke:#8D7BDC;stroke-width:5.1562;stroke-linecap:round;stroke-miterlimit:10;}
	.st9{fill:#3AC6C5;}
	.st10{fill:none;stroke:#3AC6C5;stroke-width:10.3124;stroke-miterlimit:10;}
	.st11{fill:none;stroke:#3AC6C5;stroke-width:5.5012;stroke-miterlimit:10;}
	.st12{fill:#E65D63;}
	.st13{fill:none;stroke:#312164;stroke-width:5.6821;stroke-miterlimit:10;}
	.st14{fill:none;stroke:#3AC6C5;stroke-width:7.4282;stroke-miterlimit:10;}
	.st15{fill:none;stroke:#FAC247;stroke-width:5.2347;stroke-linecap:round;stroke-miterlimit:10;}
	.st16{fill:none;stroke:#8D7BDC;stroke-width:10.1117;stroke-linecap:round;stroke-miterlimit:10;}
	.st17{fill:none;stroke:#312164;stroke-width:10.1117;stroke-miterlimit:10;}
	.st18{fill:#5A3568;}
	.st19{fill:#947CDF;}
	.st20{fill:none;stroke:#FAC247;stroke-width:5.0559;stroke-linecap:round;stroke-miterlimit:10;}
	.st21{fill:none;stroke:#3AC6C5;stroke-width:5.0559;stroke-linecap:round;stroke-miterlimit:10;}
	.st22{fill:none;stroke:#312164;stroke-width:10.1117;stroke-linecap:round;stroke-miterlimit:10;}
	.st23{fill:none;stroke:#FAC247;stroke-width:14.2586;stroke-linecap:round;stroke-miterlimit:10;}
	.st24{fill:none;stroke:#8D7BDC;stroke-width:9.5057;stroke-linecap:round;stroke-miterlimit:10;}
	.st25{fill:none;stroke:#3AC6C5;stroke-width:7.0607;stroke-miterlimit:10;}
	.st26{fill:none;stroke:#8D7BDC;stroke-width:5.3025;stroke-linecap:round;stroke-miterlimit:10;}
	.st27{fill:none;stroke:#DB6466;stroke-width:8.9341;stroke-linecap:round;stroke-miterlimit:10;}
	.st28{fill:none;stroke:#3AC6C5;stroke-width:5.3025;stroke-miterlimit:10;}
	.st29{fill:none;stroke:#3AC6C5;stroke-width:10.605;stroke-miterlimit:10;}
	.st30{fill:none;stroke:#8D7BDC;stroke-width:14.9337;stroke-miterlimit:10;stroke-dasharray:84.0842,84.0842;}
	.st31{fill:none;stroke:#FAC247;stroke-width:14.9337;stroke-miterlimit:10;stroke-dasharray:84.0842,84.0842;}
	.st32{fill:#FFFFFF;}
	.st33{fill:#F0C5E6;}
	.st34{fill:#312662;}
	.st35{fill:none;stroke:#FDCFEB;stroke-width:2.9754;stroke-linecap:round;stroke-miterlimit:10;}
	.st36{fill:#F4F0FB;}
	.st37{fill:#FDDF99;}
	.st38{fill:#9180C5;}
	.st39{fill:none;stroke:#312164;stroke-width:0.9173;stroke-miterlimit:10;}
	.st40{fill:none;stroke:#FFFFFF;stroke-width:9.0835;stroke-linecap:round;stroke-miterlimit:10;}
	.st41{clip-path:url(#SVGID_00000034077261536590823850000005800617906033650839_);}
	.st42{fill:none;stroke:#EB5B66;stroke-width:4.886;stroke-miterlimit:10;}
	.st43{clip-path:url(#SVGID_00000015321771382663324290000009428015545617974410_);}
	.st44{fill:none;stroke:#EB5B66;stroke-width:5.2565;stroke-miterlimit:10;}
	.st45{clip-path:url(#SVGID_00000125589214576005871930000004694692078992789128_);fill:#FAC247;}
	.st46{clip-path:url(#SVGID_00000125589214576005871930000004694692078992789128_);fill:#EB5B66;}
	.st47{clip-path:url(#SVGID_00000016796294075419832610000017696309331782437037_);fill:#FAC247;}
	.st48{clip-path:url(#SVGID_00000016796294075419832610000017696309331782437037_);fill:#EB5B66;}
	.st49{fill:none;stroke:#EB5B66;stroke-width:9.6685;stroke-linecap:round;stroke-miterlimit:10;}
	.st50{fill:none;stroke:#312164;stroke-width:5.0563;stroke-linecap:round;stroke-miterlimit:10;}
</style>
<g>
	<path class="st4" d="M1435.81,1569.66H826.86c-49.96,0-90.46-40.5-90.46-90.46V117.13c0-49.96,40.5-90.46,90.46-90.46h608.95
		c49.96,0,90.46,40.5,90.46,90.46V1479.2C1526.27,1529.16,1485.77,1569.66,1435.81,1569.66z"/>
	<path class="st5" d="M1365.75,1569.66H756.79c-49.96,0-90.46-40.5-90.46-90.46V117.13c0-49.96,40.5-90.46,90.46-90.46h608.95
		c49.96,0,90.46,40.5,90.46,90.46V1479.2C1456.2,1529.16,1415.7,1569.66,1365.75,1569.66z"/>
	<path class="st3" d="M1390.7,1401.22H742.92c-18.95,0-34.31-15.36-34.31-34.31V202.39c0-18.95,15.36-34.31,34.31-34.31h647.78
		c18.95,0,34.31,15.36,34.31,34.31v1164.52C1425.01,1385.86,1409.65,1401.22,1390.7,1401.22z"/>
	<circle class="st44" cx="1066.81" cy="1480.24" r="43.93"/>
	<path class="st4" d="M1169.75,124.41H977.92c-8.61,0-15.6-6.98-15.6-15.6v0c0-8.61,6.98-15.6,15.6-15.6h191.83
		c8.61,0,15.6,6.98,15.6,15.6v0C1185.35,117.42,1178.37,124.41,1169.75,124.41z"/>
</g>
<circle class="st32" cx="1066.81" cy="688.82" r="233.66"/>
<g>
	<g>
		<defs>
			<circle id="SVGID_00000105415626037267743710000013654232431964347837_" cx="528.55" cy="1582.58" r="131.23"/>
		</defs>
		<clipPath id="SVGID_00000138540614133321504970000009943838483329747628_">
			<use xlink:href="#SVGID_00000105415626037267743710000013654232431964347837_"  style="overflow:visible;"/>
		</clipPath>
		<path style="clip-path:url(#SVGID_00000138540614133321504970000009943838483329747628_);fill:#FAC247;" d="M596.08,1281.65
			c0,0-56.54,266.9-59.3,277.65c-2.76,10.74,13.81,37.1,20.37,45.65c6.56,8.54,51.65,44.56,43.37,58.63
			c-58.77-33.04-133.72-81.19-133.72-81.19l14.59-356.9l119.22,60.39"/>
		<path style="clip-path:url(#SVGID_00000138540614133321504970000009943838483329747628_);fill:#EB5B66;" d="M609.57,1669.3
			c0.76-4.95-32.71-24.06-32.71-24.06s-123.13-75.58-133.86-78.55c-10.73-2.97-24.36,6.61,0.36,19.11
			C468.09,1598.31,606.36,1690.36,609.57,1669.3z"/>
		<path style="clip-path:url(#SVGID_00000138540614133321504970000009943838483329747628_);fill:#EB5B66;" d="M542.57,1561.88
			c3.57,0.18,9.69-9.44-1.23-9.37s-45.92-2.36-56.73-7.75c-10.81-5.39-30.41-14.58-34.88-16.7c-4.48-2.12-8.82,3.8,0.31,9.1
			C459.17,1542.46,495.74,1559.56,542.57,1561.88z"/>
		<path style="clip-path:url(#SVGID_00000138540614133321504970000009943838483329747628_);fill:#EB5B66;" d="M479.65,1590.56
			c2.6,0.42,62.97,3.65,74.82-0.56c11.85-4.2-0.53-6.66-6.59-6.15s-64.54,1.88-81.71-2.06S479.65,1590.56,479.65,1590.56z"/>
	</g>
	<g>
		<defs>
			<circle id="SVGID_00000070113956109266466490000001972643756832380092_" cx="112.2" cy="677.94" r="131.23"/>
		</defs>
		<clipPath id="SVGID_00000181785498640966447980000003817820144229420955_">
			<use xlink:href="#SVGID_00000070113956109266466490000001972643756832380092_"  style="overflow:visible;"/>
		</clipPath>
		<path style="clip-path:url(#SVGID_00000181785498640966447980000003817820144229420955_);fill:#FAC247;" d="M106.02,986.28
			c0,0,2.19-272.82,2.76-283.89c0.56-11.08-20.93-33.61-29.06-40.67s-59.5-33.37-54.18-48.81c64.17,20.66,147.22,52.9,147.22,52.9
			l56.85,352.64l-128.86-35.41"/>
		<path style="clip-path:url(#SVGID_00000181785498640966447980000003817820144229420955_);fill:#EB5B66;" d="M15.51,609.1
			c0.25,5,36.85,17.06,36.85,17.06s135.73,49.52,146.83,50.29s22.55-11.33-4.16-18.66S14.47,587.83,15.51,609.1z"/>
		<path style="clip-path:url(#SVGID_00000181785498640966447980000003817820144229420955_);fill:#EB5B66;" d="M102.59,701.01
			c-3.53,0.54-7.61,11.18,3.08,8.93s45.47-6.84,57.14-3.71c11.67,3.13,32.7,8.23,37.51,9.42c4.81,1.19,7.89-5.48-2.12-8.85
			C188.19,703.43,148.95,693.96,102.59,701.01z"/>
		<path style="clip-path:url(#SVGID_00000181785498640966447980000003817820144229420955_);fill:#EB5B66;" d="M158.53,660.36
			c-2.64,0.11-62.44,8.98-73.21,15.46c-10.77,6.48,1.85,6.42,7.68,4.71c5.83-1.71,62.87-14.71,80.48-14.27
			C191.08,666.7,158.53,660.36,158.53,660.36z"/>
	</g>
	<path class="st5" d="M645.18,833.2l-73.59,654.1l-128.43,5.45c0,0,58.16-226.88,32.16-290.56c-26-63.69-48.6-65.55-35.11-120.44
		c13.49-54.89,24.96-186.12,24.96-186.12l88.74-93.73L645.18,833.2z"/>
	<path class="st3" d="M542.76,733.55c0,0-305.68,228.19-331.88,204.76s-5.48-200.96-5.48-200.96l-130.2,4.89
		c0,0-7,160.95,3.72,254.83s85.41,154.61,209.22,82.8s332.73-226.2,363.1-246.31C610.63,786.17,542.76,733.55,542.76,733.55z"/>
	<path class="st2" d="M724.68,609.93c0.71-0.06,7.52-64.97,7.52-64.97s26.76-3.88,23.6-24.32c-3.16-20.44-13.18-31.54-13.18-31.54
		s-41.24-8.2-42.69-7.55c-1.46,0.65-13.08,27.15-13.08,27.15l0.27,13.16l3.43,12.8l-15.71,51.31
		C674.85,585.98,689.24,612.78,724.68,609.93z"/>
	<path class="st2" d="M723.58,567.51c0,0,64.26-17.32,83.95-44.27c19.69-26.96,86.52-152.78,93.98-169.37s14.41-15.37,7.78,1
		c9.92-12.39,46.22-64.59,35.68-18.45c-10.54,46.14-111.62,325.83-223.83,329.71C703.05,627.39,708.47,567.16,723.58,567.51z"/>
	<path class="st4" d="M538.32,730.99c0,0,91.77-131.66,144.81-151.26c53.04-19.6,53.08,67.44,53.48,83.68
		c0.4,16.24,4.41,35.88-12.48,49.51c-16.89,13.63-9.2,6.92-9.2,6.92l-55.77,130.79L538.32,730.99z"/>
	<path class="st5" d="M745.09,470.25c-10.88-12.06-29.96-5.4-44.96,6.15c-15,11.55-59.55,43-89.74,30.15
		c-30.19-12.85-109.68-21.7-162.81,13.17s-118.82-31.83-154.13-10.38c-35.31,21.45-92.06,127.32,43.35,118.22
		c45.28-2.48,92.83,62.47,128.12,50.75s33.97-72.34,93.54-74.25s110.15-13.71,131.46-48.87s18.01-35.93,29.37-40.09
		c-6.12-5.09-3.3-18.61,4.15-14.32C730.96,500.4,762.89,489.98,745.09,470.25z"/>
	<path class="st2" d="M692.96,591.06c-0.81-1.08-103.08-48.85-268.56,143.45c-47.58,59.16-59.99,81.32-59.99,81.32
		s26.58-4.18,44.76-26.88c-8.92,18.5-19.71,39.03,15.31-0.22c35.02-39.25,100.52-122.36,169.18-101.58S692.96,591.06,692.96,591.06z
		"/>
</g>
<path class="st5" d="M1219.99,1111.4H919.02c-30.69,0-55.57-24.88-55.57-55.57v0c0-30.69,24.88-55.57,55.57-55.57h300.98
	c30.69,0,55.57,24.88,55.57,55.57v0C1275.56,1086.52,1250.68,1111.4,1219.99,1111.4z"/>
<path class="st49" d="M335.39,1118.55c36.13,21.02,72.35,68.48,12.77,123.42c-59.57,54.94-13.5,116.1,4.6,127.2
	c18.1,11.1,68.66,81.83-4.54,159.46"/>
<g>
	<path class="st50" d="M933.88,286.41c2.05-3.48-4.91-94.21-4.91-94.21"/>
	<path class="st50" d="M953.79,303.64c0,0,19.89-22.44,24.77-46.91"/>
	<path class="st50" d="M976.49,317.7c0,0,41.89-43.44,63.41-74.93"/>
</g>
</svg>
