<svg width="30" height="46" viewBox="0 0 30 46" fill="none" xmlns="http://www.w3.org/2000/svg">
  <path
    d="M 19.7 0.3 C 15.4 0.2 12.4 3.9 11.6 7.8 C 11.3 8.8 12.9 9.4 13.1 8.3 C 13.7 5.6 15.6 2.6 18.5 2.1 C 21.3 1.6 25 3.2 26.5 5.7 C 27.4 7.4 27.5 9.4 27 11.3 C 26.6 13.2 25.7 15 25 16.9 C 24.5 18.2 23.9 19.5 23.4 20.9 C 23.1 19.5 22.4 18.1 21.2 17.1 C 16.9 13.2 10.4 13.5 7 18.3 C 5.1 20.9 4.2 24.5 3 27.5 C 1 32.4 -1.8 38 2.7 42.6 C 6.5 46.5 14.3 47.2 17.1 41.8 C 17.6 40.9 16.1 40.1 15.7 41 C 13.5 45.3 7.1 44.6 4 41.6 C 0 37.7 2.5 32.8 4.2 28.7 C 6.5 23.2 8.6 13.5 16.9 16.4 C 20.2 17.6 22.6 20.2 21.9 23.8 C 21.7 25.2 21.4 26.6 20.7 27.7 C 20.3 28.2 19.9 28.8 19.4 29.1 C 16.6 31.5 13.4 30.6 10.7 28.6 C 9.8 27.9 9 29.4 9.8 30 C 13.7 32.9 19.3 33.2 22.1 28.5 C 22.6 27.6 22.9 26.5 23.3 25.5 C 24.3 23.2 25.2 20.8 26.1 18.4 C 27.3 15.4 28.5 13.4 28.8 10.5 C 29.5 4.8 25.2 0.3 19.7 0.3 Z"
    fill="#8d7bdc" />
  <path
    d="M 10.3 46 C 7.4 46 4.4 44.8 2.4 42.8 C -1.8 38.4 0.4 33.1 2.2 28.5 C 2.4 28.1 2.6 27.7 2.7 27.4 C 3.1 26.5 3.4 25.6 3.7 24.6 C 4.6 22.3 5.4 20 6.8 18.1 C 8.3 15.8 10.7 14.4 13.3 14.1 C 16.2 13.8 19.2 14.8 21.4 16.8 C 22.3 17.6 23 18.6 23.4 19.9 C 23.6 19.5 23.7 19.1 23.9 18.8 C 24.2 18.1 24.4 17.4 24.7 16.7 C 24.9 16.2 25.1 15.6 25.4 15 C 25.9 13.7 26.4 12.5 26.7 11.2 C 27.2 9.2 27 7.3 26.2 5.8 C 24.9 3.5 21.4 1.9 18.6 2.4 C 15.8 2.9 14 5.7 13.4 8.4 C 13.3 8.8 13.1 9 12.7 9.2 C 12.4 9.3 11.9 9.2 11.6 8.9 C 11.3 8.6 11.1 8.2 11.2 7.8 C 12.1 4 15.1 0 19.5 0 C 19.6 0 19.6 0 19.7 0 C 22.5 0 25.2 1.2 27 3.3 C 28.7 5.3 29.5 7.8 29.1 10.5 C 28.8 12.8 28.1 14.5 27.3 16.4 C 27 17.1 26.7 17.8 26.4 18.5 C 25.5 20.7 24.6 23.1 23.6 25.6 C 23.4 26 23.3 26.3 23.2 26.6 C 22.9 27.3 22.7 28 22.3 28.7 C 21.2 30.6 19.5 31.9 17.4 32.3 C 14.9 32.8 12 32 9.6 30.2 C 9.3 30 9.1 29.6 9.2 29.2 C 9.2 28.7 9.5 28.3 9.9 28.2 C 10.2 28 10.5 28.1 10.9 28.4 C 14.1 30.7 16.9 30.9 19.2 28.9 C 19.7 28.5 20.1 27.9 20.4 27.5 C 21.1 26.5 21.4 25.1 21.6 23.8 C 22.3 20.1 19.6 17.7 16.8 16.8 C 9.9 14.3 7.4 21.1 5.4 26.5 C 5.1 27.3 4.8 28.1 4.5 28.8 L 4.2 29.7 C 2.5 33.6 0.6 38 4.2 41.4 C 6.1 43.2 9 44.1 11.5 43.7 C 12.7 43.4 14.5 42.8 15.4 40.9 C 15.6 40.5 15.9 40.3 16.3 40.3 C 16.7 40.3 17.1 40.5 17.3 40.9 C 17.6 41.2 17.6 41.6 17.4 42 C 16.3 44.1 14.2 45.5 11.7 45.9 C 11.2 46 10.7 46 10.3 46 Z M 14.4 14.7 C 14.1 14.7 13.8 14.7 13.4 14.7 C 10.9 15 8.7 16.3 7.3 18.4 C 6 20.3 5.1 22.6 4.3 24.8 C 4 25.8 3.6 26.7 3.3 27.6 C 3.1 28 3 28.3 2.8 28.7 C 0.9 33.4 -1.1 38.3 2.9 42.3 C 5 44.6 8.5 45.7 11.6 45.3 C 13.9 44.9 15.8 43.7 16.8 41.7 C 16.9 41.5 16.9 41.3 16.8 41.2 C 16.7 41 16.5 40.9 16.3 40.9 C 16.1 40.9 16 41 16 41.1 C 15.1 42.8 13.6 43.9 11.6 44.2 C 8.9 44.7 5.8 43.7 3.8 41.8 C -0.1 38.1 1.9 33.5 3.6 29.4 L 4 28.6 C 4.3 27.8 4.5 27.1 4.9 26.2 C 6.8 20.9 9.5 13.5 17 16.2 C 20.9 17.5 22.9 20.5 22.2 23.9 C 22 25.2 21.7 26.7 20.9 27.8 C 20.6 28.3 20.2 28.9 19.6 29.4 C 17.1 31.5 13.9 31.3 10.5 28.8 C 10.4 28.7 10.2 28.7 10.1 28.7 C 9.9 28.8 9.8 29 9.8 29.2 C 9.8 29.4 9.8 29.6 10 29.7 C 12.2 31.4 15 32.2 17.3 31.7 C 19.2 31.3 20.7 30.2 21.8 28.4 C 22.1 27.8 22.4 27.1 22.6 26.4 C 22.7 26.1 22.9 25.7 23 25.4 C 24 22.9 25 20.5 25.8 18.3 C 26.1 17.5 26.4 16.8 26.7 16.2 C 27.5 14.2 28.2 12.6 28.5 10.4 C 28.8 7.9 28.1 5.5 26.5 3.7 C 24.9 1.7 22.4 0.6 19.7 0.6 C 19.6 0.6 19.6 0.6 19.6 0.6 C 15.4 0.6 12.7 4.4 11.8 7.9 C 11.8 8.2 11.9 8.3 12 8.4 C 12.2 8.6 12.4 8.6 12.6 8.6 C 12.7 8.5 12.8 8.4 12.8 8.2 C 13.4 5.4 15.4 2.3 18.5 1.8 C 21.5 1.3 25.2 3 26.7 5.5 C 27.6 7.1 27.8 9.2 27.3 11.3 C 27 12.7 26.5 14 25.9 15.3 C 25.7 15.8 25.5 16.4 25.2 17 C 25 17.6 24.7 18.3 24.5 19 C 24.2 19.6 23.9 20.3 23.7 21 L 23.3 21.9 L 23.1 20.9 C 22.7 19.4 22 18.2 21 17.3 C 19.2 15.6 16.8 14.7 14.4 14.7 Z"
    fill="#8d7bdc" />
</svg>