<?xml version="1.0" encoding="utf-8"?>
<!-- Generator: Adobe Illustrator 26.5.0, SVG Export Plug-In . SVG Version: 6.00 Build 0)  -->
<svg version="1.1" id="Capa_1" xmlns="http://www.w3.org/2000/svg" xmlns:xlink="http://www.w3.org/1999/xlink" x="0px" y="0px"
	 viewBox="0 0 150 150" style="enable-background:new 0 0 150 150;" xml:space="preserve">
<style type="text/css">
	.st0{fill:#8D7BDC;}
</style>
<g id="Capa_1_00000008849912993215350320000017097364404859176346_">
</g>
<g id="Capa_2_00000016794563864949206610000000689051095912194437_">
	<g>
		<path class="st0" d="M89,4.8c-13.1-0.1-22.3,11.3-25,23.3c-0.7,3.1,4.2,4.6,4.9,1.4c1.9-8.4,7.8-17.5,16.7-19.2
			c8.7-1.6,20,3.3,24.5,11c3,5.2,3.1,11.6,1.8,17.3c-1.4,5.8-4.1,11.4-6.4,17.3c-1.6,4.2-3.3,8.3-4.8,12.5
			c-0.9-4.3-3.1-8.6-6.8-11.8c-13.3-12.1-33.5-11.2-43.9,3.7c-5.8,8.3-8.7,19.3-12.4,28.6c-6.1,15.2-14.7,32.5-1,46.7
			c11.8,12.2,36.2,14.4,44.6-2.3c1.5-3-2.9-5.4-4.3-2.6c-6.8,13.3-26.4,11.3-36,1.9c-12.4-12-4.6-27.1,0.7-40
			c6.9-17,13.5-46.9,39.2-37.8C90.9,58.3,98.1,66.3,96,77.5c-0.7,4.1-1.6,8.4-3.8,12c-1.1,1.6-2.4,3.3-3.9,4.5
			c-8.6,7.5-18.5,4.5-26.9-1.8c-2.6-2-5.2,2.4-2.6,4.3c12.1,9.1,29.4,10.1,37.8-4.5c1.6-2.9,2.6-6.4,3.8-9.4
			c2.9-7.3,5.8-14.7,8.7-22c3.7-9.1,7.2-15.4,8.4-24.6C119.6,18.7,106.1,4.8,89,4.8"/>
		<path class="st0" d="M60.1,145.9c-8.8,0-18.1-3.7-24.1-9.9c-13.1-13.5-6.4-29.8-0.5-44.2c0.5-1.1,0.9-2.2,1.3-3.3
			c1-2.5,1.9-5,2.8-7.7c2.6-7.3,5.3-14.9,9.6-21c4.9-6.9,12.1-11.2,20.4-12.2c8.8-1,17.8,2.1,24.7,8.3c3,2.6,5.2,6,6.4,10
			c0.9-2.5,1.9-5,2.9-7.6c0.3-0.9,0.7-1.8,1.1-2.7c0.6-1.5,1.2-3.1,1.9-4.6c1.8-4.3,3.5-8.4,4.5-12.6c1.5-6.3,0.9-12.3-1.7-16.8
			C105.1,14.3,94.3,9.4,85.7,11c-8.6,1.6-14.3,10.5-16.2,18.6c-0.2,1.1-0.9,1.9-1.9,2.2c-1.1,0.4-2.5,0-3.4-0.8
			c-0.9-0.8-1.2-1.9-1-3.1C65.8,16.4,74.9,4.1,88.7,4.1c0.1,0,0.2,0,0.2,0c8.7,0,16.9,3.6,22.5,9.8c5.4,6,7.8,13.9,6.8,22.1
			c-0.9,7.2-3.3,12.6-6,18.8c-0.8,1.9-1.7,3.8-2.5,6c-1.4,3.7-2.9,7.4-4.4,11c-1.4,3.6-2.9,7.3-4.3,11c-0.4,1-0.8,2-1.2,3.1
			c-0.8,2.2-1.6,4.4-2.7,6.3c-3.4,6-8.6,9.8-14.9,11.1c-7.7,1.6-16.6-0.8-24-6.3c-1-0.7-1.5-1.9-1.3-3.1c0.2-1.3,1-2.4,2-2.8
			c0.9-0.4,1.9-0.2,2.8,0.5c6.9,5.1,17.1,9.6,26,1.8l0,0c1.7-1.4,3-3.1,3.8-4.3c2.1-3.4,3-7.7,3.7-11.7c0.9-5.1-0.1-9.7-3-13.7
			c-2.6-3.6-6.8-6.5-11.9-8.4C70.8,51.9,63.2,53.8,57,61c-5.5,6.4-9,15.9-12,24.3c-1,2.6-1.9,5.1-2.8,7.4c-0.4,1-0.8,2-1.2,3
			c-2.6,6.2-5.2,12.5-5.9,18.8c-0.7,7,1.3,12.7,6.3,17.5c5.7,5.5,14.7,8.3,22.4,7.1c4-0.7,9.4-2.7,12.5-8.8c0.7-1.3,2.3-2.2,4.2-1.3
			c1.4,0.7,2.5,2.6,1.5,4.5c-3.3,6.6-9.5,10.9-17.3,12.1C63.1,145.8,61.7,145.9,60.1,145.9z M72.9,48.9c-1,0-2,0-3,0.2
			C62,50,55.2,54,50.5,60.6c-4.2,6-6.9,13.5-9.5,20.7c-1,2.7-1.9,5.2-2.8,7.7c-0.4,1.1-0.9,2.2-1.3,3.3c-3,7.2-6,14.7-6.8,22
			c-0.8,8.2,1.4,14.9,7,20.6c6.7,6.9,17.7,10.6,27.3,9.2c7.3-1.1,13.1-5.1,16.2-11.3c0.6-1.2,0-2.2-0.9-2.6
			c-0.7-0.3-1.7-0.4-2.2,0.7c-2.7,5.2-7.3,8.5-13.5,9.5c-8.2,1.4-17.7-1.6-23.7-7.4c-11.8-11.4-5.9-25.4-0.7-37.8
			c0.4-1,0.8-2,1.2-2.9c0.9-2.2,1.8-4.7,2.8-7.3c3.1-8.5,6.7-18.2,12.3-24.8c6.6-7.8,14.8-9.8,25-6.1c5.4,2,9.8,5,12.6,8.9
			c3.1,4.2,4.2,9.4,3.2,14.8c-0.7,4.2-1.7,8.6-3.9,12.2l0,0c-0.9,1.3-2.3,3.2-4.1,4.6c-4.1,3.6-8.9,5.1-14.1,4.4
			c-4.4-0.6-9-2.6-13.8-6.2l0,0c-0.5-0.4-0.9-0.4-1.3-0.3c-0.6,0.2-1,0.9-1.1,1.7c0,0.4,0,1.2,0.8,1.8c7,5.3,15.5,7.6,22.8,6.1
			c5.9-1.2,10.7-4.8,13.9-10.4c1.1-1.8,1.8-4,2.6-6.1c0.4-1.1,0.8-2.2,1.2-3.2c1.4-3.7,2.9-7.4,4.3-11c1.4-3.6,2.9-7.4,4.4-11
			c0.9-2.1,1.7-4.1,2.5-6c2.7-6.2,4.9-11.5,5.9-18.5c0.9-7.8-1.4-15.3-6.5-21C105.1,9,97.3,5.6,89,5.6h0c-0.1,0-0.2,0-0.2,0
			c-13,0-21.6,11.7-24.1,22.7c-0.2,0.9,0.2,1.4,0.6,1.7c0.6,0.5,1.4,0.7,2,0.5c0.5-0.2,0.8-0.6,0.9-1.2c1-4.6,3.1-9,5.9-12.4
			c3.2-4,7.2-6.5,11.5-7.3c9.1-1.7,20.7,3.5,25.2,11.4c2.8,4.8,3.4,11.1,1.8,17.8c-1,4.4-2.7,8.5-4.6,12.8c-0.6,1.5-1.3,3-1.9,4.5
			c-0.3,0.9-0.7,1.8-1.1,2.7c-1.3,3.3-2.5,6.5-3.7,9.8l-0.8,2.4l-0.5-2.5c-1-4.5-3.3-8.5-6.6-11.5C87.6,51.8,80.2,48.9,72.9,48.9z"
			/>
	</g>
</g>
</svg>
