<?xml version="1.0" encoding="utf-8"?>
<!-- Generator: Adobe Illustrator 26.5.0, SVG Export Plug-In . SVG Version: 6.00 Build 0)  -->
<svg version="1.1" xmlns="http://www.w3.org/2000/svg" xmlns:xlink="http://www.w3.org/1999/xlink" x="0px" y="0px"
	 viewBox="0 0 150 150" style="enable-background:new 0 0 150 150;" xml:space="preserve">
<style type="text/css">
	.st0{fill:#F3F0FA;}
	.st1{fill:#394FD2;}
	.st2{fill:url(#SVGID_1_);}
	.st3{fill:#F3F0FA;stroke:#FFFFFF;stroke-width:0.75;stroke-miterlimit:10;}
	.st4{fill:#14E5DB;}
	.st5{fill:#23BFCA;}
	.st6{fill:#1D1E1F;}
	.st7{fill:#BE58AB;}
	.st8{fill:#AB5E95;}
	.st9{fill:#F3A52A;}
	.st10{fill:#0D7281;}
	.st11{fill:#050038;}
	.st12{fill:#5A9BA2;}
	.st13{fill:#605892;}
	.st14{fill:#573C73;}
	.st15{fill:#F1509B;}
	.st16{fill:#9F6799;}
	.st17{fill:#454D88;}
	.st18{fill:none;stroke:#000000;stroke-miterlimit:10;}
	.st19{opacity:0.8;fill:#BE58AB;}
	.st20{opacity:0.9;fill:#BE58AB;}
	.st21{opacity:0.7;fill:#BE58AB;}
	.st22{fill:none;stroke:#000000;stroke-width:0.31;stroke-miterlimit:10;}
	.st23{clip-path:url(#SVGID_00000161610592556804559180000006705202350371361175_);}
	.st24{fill:#79C5C5;}
	.st25{fill:url(#SVGID_00000062907191668489416530000002379751631731224725_);}
	.st26{fill:url(#SVGID_00000080913375060787696790000006754759203984465806_);}
	.st27{fill:url(#SVGID_00000031885486597880515770000017601353680661495206_);}
	.st28{fill:#1D1E1F;stroke:#1D1E1F;stroke-miterlimit:10;}
	.st29{fill:url(#SVGID_00000085942625218564864680000010954298489513673916_);}
	.st30{fill:url(#SVGID_00000075861397144380940580000007078057070073830048_);}
	.st31{fill:url(#SVGID_00000163756949299278404110000014264928917681909165_);}
	.st32{fill:#B6B6B6;}
	.st33{fill:#FFFFFF;}
	.st34{fill:#606060;}
	.st35{fill:url(#SVGID_00000040543339609336431170000017959543679704311220_);}
	.st36{fill:#555555;}
	.st37{fill:#69157A;}
	.st38{fill:#F1F1F1;}
	.st39{fill:#3651C0;}
	.st40{fill:#3A3A76;}
	.st41{fill:#EE5084;}
	.st42{fill:#FF6575;}
	.st43{fill:#FFCF2F;}
	.st44{fill:#FFA127;}
	.st45{fill:#BE4989;}
	.st46{fill:#222326;}
	.st47{fill:#1F2F80;}
	.st48{fill:#B65E9F;}
	.st49{fill:#3D4A92;}
	.st50{fill:#223485;}
	.st51{fill:#FF639E;}
	.st52{fill:#3B6FE1;}
	.st53{fill:#FF7F4D;}
	.st54{fill:#FFB54D;}
	
		.st55{clip-path:url(#SVGID_00000135676626482120384770000003023174285290122904_);fill:url(#SVGID_00000060752684790465621420000015914964777912695465_);}
	.st56{fill:#4B8049;}
	.st57{fill:#897FBF;}
	.st58{fill:#312662;}
	.st59{fill:#528FEB;}
	.st60{fill:#75B5B1;}
	.st61{fill:#F3DC99;}
	.st62{fill:#E9BF52;}
	.st63{fill:#C5DD70;}
	.st64{fill:#78C3C3;}
	.st65{fill:#CC5B65;}
	.st66{fill:#EFCCE7;}
	.st67{fill:#F0EEF8;}
	.st68{fill:none;stroke:#E9BF52;stroke-width:0.907;stroke-miterlimit:10;}
	.st69{clip-path:url(#SVGID_00000118363440332448314970000009393880543193858196_);fill:#CC5B65;}
	.st70{fill:#31265E;}
	.st71{stroke:#000000;stroke-miterlimit:10;}
</style>
<g id="Capa_1">
</g>
<g id="Capa_2">
	<g>
		<path class="st70" d="M88.97,4.85C75.91,4.71,66.66,16.14,63.93,28.11c-0.68,3.13,4.22,4.63,4.9,1.36
			c1.9-8.43,7.75-17.55,16.73-19.18c8.71-1.63,20,3.27,24.49,11.02c2.99,5.17,3.13,11.56,1.77,17.28
			c-1.36,5.85-4.08,11.43-6.39,17.28c-1.63,4.22-3.27,8.3-4.76,12.52c-0.95-4.35-3.13-8.57-6.8-11.84
			C80.53,44.44,60.4,45.39,49.92,60.22c-5.85,8.3-8.71,19.32-12.38,28.57c-6.12,15.24-14.69,32.51-0.95,46.66
			c11.84,12.24,36.19,14.42,44.62-2.31c1.5-2.99-2.86-5.44-4.35-2.58c-6.8,13.33-26.39,11.29-36.05,1.9
			c-12.38-11.97-4.63-27.07,0.68-40c6.94-17,13.47-46.93,39.18-37.82c10.2,3.67,17.41,11.7,15.37,22.85
			c-0.68,4.08-1.63,8.43-3.81,11.97c-1.09,1.63-2.45,3.26-3.95,4.49c-8.57,7.48-18.5,4.49-26.94-1.77
			c-2.58-2.04-5.17,2.45-2.58,4.35c12.11,9.11,29.38,10.07,37.82-4.49c1.63-2.86,2.58-6.39,3.81-9.39
			c2.86-7.35,5.85-14.69,8.71-22.04c3.67-9.11,7.21-15.37,8.43-24.62C119.57,18.72,106.11,4.85,88.97,4.85"/>
		<path class="st70" d="M60.14,145.88c-8.83,0-18.07-3.72-24.08-9.93c-13.09-13.48-6.42-29.78-0.53-44.16
			c0.45-1.1,0.9-2.2,1.34-3.28c0.98-2.46,1.88-5,2.83-7.68c2.6-7.31,5.28-14.87,9.63-21.03c4.89-6.93,12.12-11.24,20.36-12.15
			c8.77-0.96,17.76,2.08,24.66,8.35c2.97,2.64,5.16,6.05,6.42,9.96c0.93-2.54,1.9-5.02,2.92-7.62c0.35-0.91,0.71-1.82,1.07-2.74
			c0.61-1.54,1.25-3.08,1.87-4.56c1.8-4.3,3.5-8.36,4.49-12.62c1.51-6.32,0.9-12.27-1.69-16.75C105.14,14.28,94.28,9.39,85.7,11
			c-8.61,1.57-14.32,10.48-16.16,18.63c-0.23,1.12-0.91,1.92-1.91,2.25c-1.13,0.37-2.46,0.05-3.41-0.8c-0.89-0.8-1.25-1.94-1-3.13
			C65.84,16.44,74.93,4.12,88.73,4.12c0.08,0,0.16,0,0.24,0c8.72,0,16.91,3.59,22.47,9.84c5.37,6.04,7.79,13.9,6.82,22.13
			c-0.95,7.2-3.28,12.6-5.97,18.84c-0.82,1.89-1.66,3.85-2.51,5.97c-1.43,3.68-2.92,7.42-4.36,11.04c-1.43,3.6-2.92,7.33-4.34,10.99
			c-0.41,1-0.78,2.04-1.17,3.13c-0.77,2.16-1.57,4.4-2.69,6.35c-3.45,5.96-8.61,9.78-14.92,11.06c-7.66,1.55-16.61-0.82-23.96-6.35
			c-1-0.74-1.49-1.88-1.33-3.14c0.16-1.27,0.97-2.42,2.02-2.85c0.92-0.38,1.9-0.21,2.77,0.47c6.93,5.14,17.06,9.62,26.02,1.8
			l0.02-0.01c1.66-1.36,2.98-3.09,3.79-4.32c2.12-3.44,3.03-7.66,3.7-11.7c0.94-5.12-0.06-9.72-2.96-13.69
			c-2.64-3.61-6.77-6.51-11.94-8.37c-9.58-3.4-17.24-1.53-23.42,5.71c-5.45,6.39-8.95,15.91-12.04,24.31
			c-0.97,2.63-1.88,5.11-2.81,7.39c-0.4,0.98-0.82,1.97-1.24,2.97c-2.58,6.15-5.25,12.5-5.89,18.75
			c-0.72,6.99,1.33,12.71,6.27,17.49c5.67,5.51,14.67,8.34,22.42,7.06c3.99-0.66,9.39-2.72,12.48-8.77c0.68-1.3,2.27-2.25,4.15-1.29
			c1.45,0.74,2.47,2.58,1.5,4.53c-3.33,6.61-9.46,10.91-17.26,12.09C63.14,145.77,61.65,145.88,60.14,145.88z M72.89,48.93
			c-1.02,0-2.03,0.05-3.04,0.17c-7.81,0.86-14.68,4.95-19.33,11.54c-4.23,6-6.88,13.46-9.45,20.68c-0.96,2.7-1.87,5.25-2.85,7.74
			c-0.44,1.09-0.89,2.19-1.34,3.29c-2.95,7.21-6,14.66-6.75,21.96c-0.84,8.18,1.44,14.93,6.99,20.64
			c6.71,6.95,17.67,10.63,27.27,9.17c7.32-1.11,13.06-5.13,16.18-11.31c0.58-1.17-0.04-2.16-0.87-2.58
			c-0.67-0.34-1.65-0.38-2.2,0.66c-2.66,5.21-7.34,8.52-13.53,9.54c-8.18,1.35-17.69-1.64-23.67-7.45
			c-11.8-11.41-5.91-25.45-0.72-37.84c0.42-1,0.83-1.98,1.23-2.95c0.92-2.25,1.83-4.73,2.79-7.34c3.13-8.52,6.68-18.17,12.3-24.76
			c6.61-7.75,14.79-9.75,25.01-6.13c5.44,1.96,9.81,5.03,12.62,8.88c3.1,4.24,4.22,9.36,3.22,14.79c-0.7,4.18-1.65,8.56-3.91,12.22
			l-0.01,0.02c-0.87,1.31-2.28,3.17-4.08,4.64c-4.14,3.61-8.88,5.11-14.08,4.43c-4.37-0.56-9-2.64-13.76-6.17l-0.02-0.01
			c-0.46-0.36-0.9-0.45-1.33-0.28c-0.58,0.24-1.04,0.93-1.13,1.68c-0.05,0.42-0.02,1.22,0.76,1.79c7.03,5.29,15.55,7.57,22.81,6.1
			c5.89-1.2,10.72-4.78,13.95-10.36c1.05-1.84,1.83-4.01,2.58-6.12c0.38-1.06,0.77-2.16,1.19-3.18c1.42-3.66,2.91-7.38,4.34-10.99
			c1.44-3.62,2.93-7.36,4.36-11.04c0.86-2.14,1.71-4.11,2.53-6.01c2.65-6.15,4.94-11.45,5.86-18.45c0.92-7.8-1.37-15.26-6.46-20.98
			c-5.28-5.94-13.08-9.35-21.39-9.35h-0.01c-0.08,0-0.15,0-0.23,0c-13,0-21.6,11.73-24.09,22.7c-0.18,0.85,0.2,1.41,0.55,1.73
			c0.55,0.49,1.36,0.7,1.98,0.5c0.5-0.16,0.81-0.56,0.94-1.18c1.04-4.6,3.12-9.01,5.86-12.45c3.19-3.99,7.15-6.52,11.46-7.3
			c9.12-1.71,20.69,3.5,25.25,11.37c2.78,4.8,3.44,11.13,1.85,17.81c-1.02,4.38-2.74,8.49-4.56,12.84
			c-0.62,1.48-1.26,3.01-1.86,4.53c-0.35,0.92-0.71,1.83-1.07,2.74c-1.3,3.33-2.52,6.47-3.69,9.75l-0.85,2.4l-0.54-2.48
			c-1-4.55-3.27-8.51-6.58-11.45C87.58,51.82,80.25,48.93,72.89,48.93z"/>
	</g>
</g>
</svg>
