<?xml version="1.0" encoding="utf-8"?>
<!-- Generator: Adobe Illustrator 26.5.0, SVG Export Plug-In . SVG Version: 6.00 Build 0)  -->
<svg version="1.1" id="Capa_1" xmlns="http://www.w3.org/2000/svg" xmlns:xlink="http://www.w3.org/1999/xlink" x="0px" y="0px"
	 viewBox="0 0 1200 1025.98" style="enable-background:new 0 0 1200 1025.98;" xml:space="preserve">
<style type="text/css">
	.st0{fill:none;stroke:#312164;stroke-width:13.033;stroke-linecap:round;stroke-miterlimit:10;}
	.st1{fill:none;stroke:#FAC247;stroke-width:8.6887;stroke-linecap:round;stroke-miterlimit:10;}
	.st2{fill:#FAC247;}
	.st3{fill:#8D7BDC;}
	.st4{fill:#EB5B66;}
	.st5{fill:#312164;}
	.st6{fill:#F6F1FD;}
	.st7{fill:none;stroke:#FAC247;stroke-width:4.3443;stroke-miterlimit:10;}
	.st8{fill:none;stroke:#8D7BDC;stroke-width:5.1562;stroke-linecap:round;stroke-miterlimit:10;}
	.st9{fill:#3AC6C5;}
	.st10{fill:none;stroke:#3AC6C5;stroke-width:10.3124;stroke-miterlimit:10;}
	.st11{fill:none;stroke:#3AC6C5;stroke-width:5.5012;stroke-miterlimit:10;}
	.st12{fill:#E65D63;}
	.st13{fill:none;stroke:#312164;stroke-width:5.6821;stroke-miterlimit:10;}
	.st14{fill:none;stroke:#3AC6C5;stroke-width:7.4282;stroke-miterlimit:10;}
	.st15{fill:none;stroke:#FAC247;stroke-width:5.2347;stroke-linecap:round;stroke-miterlimit:10;}
	.st16{fill:none;stroke:#8D7BDC;stroke-width:10.1117;stroke-linecap:round;stroke-miterlimit:10;}
	.st17{fill:none;stroke:#312164;stroke-width:10.1117;stroke-miterlimit:10;}
	.st18{fill:#5A3568;}
	.st19{fill:#947CDF;}
	.st20{fill:none;stroke:#FAC247;stroke-width:5.0559;stroke-linecap:round;stroke-miterlimit:10;}
	.st21{fill:none;stroke:#3AC6C5;stroke-width:5.0559;stroke-linecap:round;stroke-miterlimit:10;}
	.st22{fill:none;stroke:#312164;stroke-width:10.1117;stroke-linecap:round;stroke-miterlimit:10;}
	.st23{fill:none;stroke:#FAC247;stroke-width:14.2586;stroke-linecap:round;stroke-miterlimit:10;}
	.st24{fill:none;stroke:#8D7BDC;stroke-width:9.5057;stroke-linecap:round;stroke-miterlimit:10;}
	.st25{fill:none;stroke:#3AC6C5;stroke-width:7.0607;stroke-miterlimit:10;}
	.st26{fill:none;stroke:#8D7BDC;stroke-width:5.3025;stroke-linecap:round;stroke-miterlimit:10;}
	.st27{fill:none;stroke:#DB6466;stroke-width:8.9341;stroke-linecap:round;stroke-miterlimit:10;}
	.st28{fill:none;stroke:#3AC6C5;stroke-width:5.3025;stroke-miterlimit:10;}
	.st29{fill:none;stroke:#3AC6C5;stroke-width:10.605;stroke-miterlimit:10;}
	.st30{fill:none;stroke:#8D7BDC;stroke-width:14.9337;stroke-miterlimit:10;stroke-dasharray:84.0842,84.0842;}
	.st31{fill:none;stroke:#FAC247;stroke-width:14.9337;stroke-miterlimit:10;stroke-dasharray:84.0842,84.0842;}
	.st32{fill:#FFFFFF;}
	.st33{fill:#F0C5E6;}
	.st34{fill:#312662;}
	.st35{fill:none;stroke:#FDCFEB;stroke-width:2.9754;stroke-linecap:round;stroke-miterlimit:10;}
	.st36{fill:#F4F0FB;}
	.st37{fill:#FDDF99;}
	.st38{fill:#9180C5;}
	.st39{fill:none;stroke:#312164;stroke-width:0.9173;stroke-miterlimit:10;}
</style>
<g>
	<polyline class="st0" points="106.54,82.77 162.05,102.15 185.08,44.1 240.95,65.94 251.01,20.33 	"/>
	<path class="st1" d="M187.84,864.39c12.33,30.93,25.38,54.66,82.25,34.55s66.65-7.45,76.96,19.77
		c10.31,27.22,6.76,54.09,63.21,77.46"/>
	<circle class="st2" cx="878.3" cy="117.33" r="16.64"/>
	<circle class="st3" cx="27.36" cy="312.68" r="16.64"/>
	<path class="st4" d="M898.42,807.82L589.72,961.49c-14.18,7.06-20.1,24.18-13.3,38.49l0,0c6.91,14.54,24.32,20.69,38.83,13.72
		l315.33-151.52c0,0,63.22,24.4,157.51-18.86c94.28-43.26,118.54-137.69,89.84-190.78c-29.58-54.72-145.3-44.37-212.97,16.64
		C897.31,730.18,898.42,807.82,898.42,807.82z"/>
	<circle class="st5" cx="518.36" cy="453.46" r="444.05"/>
	<circle class="st6" cx="518.36" cy="453.46" r="406.33"/>
	<circle class="st7" cx="518.36" cy="453.46" r="388.96"/>
	<circle class="st3" cx="518.36" cy="453.46" r="359.93"/>
	<g>
		<g>
			<g>
				<path class="st5" d="M207.78,332.83c14.44-1.89,21.52-2.09,35.05-1.24c0.85,0.07,1.53,0.31,2.01,0.74
					c0.49,0.44,0.73,0.99,0.77,1.52c0.03,0.58-0.06,1.15-0.26,1.73c-0.2,0.57-0.66,1.04-1.26,1.41c-0.64,0.39-1.34,0.57-2.18,0.52
					c-3.22-0.18-4.85-0.23-8.14-0.26c-0.98,0.01-1.59,0.37-1.9,1.16c-0.76,1.96-1.13,2.95-1.82,4.91c-0.32,0.9-0.09,1.53,0.7,2.03
					c2.67,1.61,3.99,2.43,6.61,4.1c0.69,0.43,1.14,0.96,1.36,1.58c0.23,0.65,0.25,1.24,0.02,1.79c-0.23,0.54-0.58,1.06-0.95,1.44
					c-0.41,0.42-0.95,0.66-1.59,0.72c-0.66,0.06-1.34-0.09-2.05-0.49c-11.01-6.68-16.71-9.79-28.45-15.49
					c-1.43-0.73-1.92-1.89-1.42-3.36C204.79,334.05,205.99,333.1,207.78,332.83z M224.32,341.51c0.63,0.32,1.05,0.24,1.26-0.35
					c0.42-1.16,0.63-1.75,1.07-2.91c0.22-0.59-0.06-0.9-0.81-0.91c-2.58,0-3.88,0.03-6.49,0.13c-0.39-0.03-0.69,0.15-0.81,0.49
					c-0.14,0.39,0,0.65,0.36,0.78C221.08,339.83,222.16,340.39,224.32,341.51z"/>
				<path class="st5" d="M259.16,308.81c0.13,0.78-0.03,1.52-0.47,2.21c-0.44,0.68-1.06,1.15-1.88,1.45
					c-0.83,0.31-1.71,0.28-2.65-0.14c-11.25-5.11-17.19-7.31-29.58-10.88c-1.58-0.46-2.58-1.18-2.87-2.11
					c-0.3-0.93,0.03-2.29,0.99-3.93c0.85-1.45,1.29-2.17,2.17-3.61c1.9-3.09,4.63-5.13,7.97-6.01c3.33-0.87,6.65-0.65,9.78,0.59
					c3.55,1.41,5.41,3.52,5.68,6.1c0.14,0.66,0.49,1.01,1.2,1.05c6.07,0.61,9.06,1.03,14.9,2.07c1.45,0.17,2.3,0.84,2.6,1.88
					c0.3,1.03-0.07,1.99-0.93,2.84c-0.89,0.87-2.05,1.23-3.48,1.08c-5.74-0.98-8.67-1.37-14.64-1.92c-0.7-0.03-1.21,0.15-1.48,0.56
					c-0.16,0.25-0.24,0.37-0.4,0.62c-0.44,0.67-0.17,1.17,0.75,1.55c4.39,1.82,6.54,2.78,10.76,4.8
					C258.51,307.46,259.03,308.04,259.16,308.81z M242,297.67c0.78-1.21,0.9-2.41,0.33-3.5c-0.55-1.05-1.66-1.98-3.31-2.59
					c-1.65-0.62-3.26-0.74-4.77-0.4c-1.48,0.33-2.7,1.21-3.49,2.47c-0.19,0.31-0.29,0.46-0.48,0.77c-0.58,0.94-0.4,1.59,0.52,1.89
					c3.43,1.12,5.13,1.71,8.47,2.95c0.9,0.33,1.66,0.04,2.24-0.85C241.71,298.11,241.8,297.96,242,297.67z"/>
				<path class="st5" d="M261.68,246.23c1.28-1.23,2.67-1.85,4.17-1.86c1.45-0.01,2.46,0.54,2.84,1.51c0.39,0.99-0.04,2.1-1.32,3.3
					c-1,0.94-1.49,1.42-2.47,2.37c-0.85,0.82-0.87,1.48,0.01,1.95c10.82,5.65,15.96,8.77,25.6,15.48c1.16,0.81,1.5,1.76,1.18,2.8
					c-0.34,1.11-1.2,1.87-2.51,2.31c-1.27,0.42-2.48,0.31-3.66-0.47c-9.73-6.47-14.91-9.47-25.79-14.86c-0.89-0.44-1.7-0.25-2.5,0.6
					c-0.92,0.98-1.37,1.48-2.28,2.47c-1.16,1.27-2.42,1.89-3.81,2c-1.44,0.11-2.41-0.33-2.89-1.28c-0.48-0.92-0.23-2.04,0.92-3.34
					C253.92,253.89,256.42,251.29,261.68,246.23z"/>
				<path class="st5" d="M333.88,236.63c1.1,0.12,1.97,0.5,2.57,1.07c0.59,0.57,0.78,1.24,0.63,2.01c-0.15,0.77-0.76,1.47-1.92,2.09
					c-4.29,2.29-6.38,3.48-10.45,5.94c-1.68,1.02-3.24,1.53-4.54,1.5c-1.31-0.03-2.67-0.61-3.96-1.7
					c-9.65-8.16-14.85-12.02-25.9-19.15c-1.47-0.95-2.2-1.98-2.09-2.96c0.11-0.98,1.08-2.19,2.85-3.43
					c4.31-3.03,6.52-4.51,11.06-7.36c1.22-0.77,2.39-1.15,3.59-1.15c1.21,0,2.19,0.27,2.89,0.78c0.7,0.51,0.97,1.15,0.86,1.93
					c-0.1,0.79-0.71,1.55-1.93,2.29c-3.22,1.98-4.81,2.99-7.91,5.06c-1.05,0.7-1.15,1.38-0.3,1.97c2.37,1.65,3.55,2.49,5.85,4.18
					c0.83,0.61,1.81,0.57,2.85-0.09c1.9-1.22,2.86-1.82,4.8-3c1.12-0.68,2.16-1.04,3.13-1.02c0.91,0.02,1.7,0.31,2.3,0.81
					c0.61,0.5,0.85,1.05,0.75,1.66c-0.11,0.65-0.72,1.34-1.84,2c-1.93,1.15-2.88,1.73-4.77,2.92c-1.03,0.64-1.14,1.32-0.34,1.95
					c3.35,2.65,4.99,4,8.18,6.75c0.76,0.65,1.69,0.67,2.69,0.07c2.99-1.79,4.51-2.66,7.62-4.35
					C331.71,236.77,332.8,236.51,333.88,236.63z"/>
			</g>
		</g>
	</g>
	<g>
		<g>
			<g>
				<path class="st5" d="M233.26,522.63c-2.46,3.77-5.76,5.69-9.93,5.64c-1.37-0.02-2.06-0.03-3.43-0.06
					c-1.78-0.04-3.15-0.44-3.97-1.15c-0.82-0.71-1.29-1.87-1.34-3.39c-0.37-11.38-0.48-17.06-0.53-28.41
					c-0.01-1.52,0.39-2.65,1.13-3.31c0.74-0.66,1.99-0.98,3.63-0.94c1.36,0.03,2.05,0.05,3.41,0.07c2.27,0.04,4.32,0.63,6.11,1.84
					c1.8,1.2,3.3,2.71,4.34,4.59c1.07,1.91,1.92,3.91,2.55,5.94c0.64,2.07,1,4.17,1.14,6.21
					C236.69,514.52,235.7,518.9,233.26,522.63z M227.82,500.51c-1.29-2.46-3.11-3.73-5.47-3.77c-0.23,0-0.35-0.01-0.58-0.01
					c-0.97-0.02-1.49,0.44-1.47,1.33c0.19,9.25,0.34,13.89,0.74,23.16c0.04,0.89,0.61,1.37,1.64,1.39c0.24,0,0.36,0.01,0.6,0.01
					c2.48,0.03,4.28-1.19,5.41-3.63c1.11-2.4,1.53-5.5,1.34-9.27C229.85,506.11,229.13,503,227.82,500.51z"/>
				<path class="st5" d="M273.99,489.07c0.89-0.63,1.94-0.75,2.97-0.33c1.06,0.43,1.69,1.28,1.87,2.57
					c0.92,6.33,1.41,9.49,2.43,15.82c0.95,5.89,0.81,10.51-0.51,13.76c-1.35,3.32-3.9,5.19-7.65,5.56
					c-7.53,0.73-12.19-5.13-13.58-17.25c-0.73-6.37-1.07-9.55-1.69-15.92c-0.13-1.3,0.3-2.25,1.23-2.86c0.92-0.6,1.97-0.68,3-0.22
					c1.05,0.46,1.65,1.33,1.8,2.63c0.71,6.36,1.09,9.54,1.9,15.89c0.59,4.62,1.44,7.88,2.41,9.61c0.98,1.76,2.35,2.63,4.06,2.47
					c1.71-0.16,2.82-1.24,3.27-3.17c0.44-1.87,0.26-5.18-0.42-9.8c-0.94-6.34-1.38-9.51-2.22-15.85
					C272.69,490.68,273.08,489.72,273.99,489.07z"/>
				<path class="st5" d="M324.43,513.24c0.71,0.43,1.18,1.03,1.37,1.74c0.19,0.71,0.07,1.38-0.35,2.06
					c-0.42,0.68-1.14,1.16-2.24,1.39c-4.05,0.86-6.08,1.27-10.16,2.05c-1.68,0.32-3.05,0.2-3.96-0.33c-0.91-0.53-1.57-1.58-1.9-3.06
					c-2.52-11.08-3.7-16.63-5.9-27.73c-0.3-1.48-0.13-2.68,0.43-3.47c0.57-0.79,1.68-1.36,3.23-1.65c3.77-0.7,5.65-1.07,9.38-1.85
					c1.01-0.21,1.81-0.11,2.47,0.33c0.66,0.44,1.08,1.05,1.25,1.76c0.17,0.71,0.05,1.38-0.36,2.05c-0.4,0.67-1.08,1.14-2.1,1.35
					c-2.71,0.57-4.07,0.84-6.8,1.37c-0.92,0.18-1.31,0.73-1.12,1.6c0.52,2.43,0.78,3.65,1.32,6.08c0.19,0.87,0.79,1.23,1.73,1.05
					c1.72-0.33,2.58-0.5,4.29-0.85c0.99-0.2,1.78-0.16,2.35,0.2c0.55,0.34,0.91,0.88,1.07,1.54c0.16,0.66,0.07,1.24-0.26,1.76
					c-0.36,0.56-1.04,0.97-2.04,1.17c-1.73,0.35-2.6,0.53-4.34,0.86c-0.95,0.18-1.35,0.74-1.15,1.61c0.83,3.65,1.26,5.48,2.13,9.13
					c0.21,0.86,0.83,1.22,1.81,1.04c2.88-0.56,4.32-0.86,7.18-1.46C322.86,512.73,323.72,512.81,324.43,513.24z"/>
				<path class="st5" d="M352.84,503.74c0.28,0.84,0.93,1.14,1.86,0.87c2.8-0.83,4.19-1.25,6.96-2.12c1.04-0.33,1.97-0.35,2.68,0.03
					c0.68,0.36,1.18,0.88,1.45,1.62c0.27,0.74,0.22,1.44-0.08,2.11c-0.32,0.71-1.09,1.23-2.14,1.56c-3.91,1.23-5.88,1.82-9.84,2.97
					c-1.62,0.47-2.97,0.47-3.91,0.02c-0.94-0.44-1.69-1.43-2.15-2.88c-3.65-11.32-5.38-17-8.69-28.39c-0.28-0.95-0.17-1.74,0.25-2.4
					c0.43-0.66,0.97-1.08,1.7-1.28c0.72-0.2,1.46-0.14,2.18,0.19c0.72,0.34,1.19,0.96,1.48,1.91
					C347.76,488.3,349.4,493.45,352.84,503.74z"/>
				<path class="st5" d="M391.5,463.34c3.01,2.48,5.71,6.28,8,11.26c2.29,4.98,3.37,9.43,3.13,13.33c-0.24,3.97-2.03,6.67-5.38,8.03
					c-3.35,1.36-6.65,0.71-9.77-1.81c-3.14-2.53-5.8-6.41-7.85-11.49c-2.05-5.09-2.8-9.67-2.41-13.54c0.39-3.85,2.07-6.44,5.15-7.68
					C385.44,460.19,388.48,460.84,391.5,463.34z M394.06,476.93c-1.76-3.96-3.47-6.86-5.1-8.56c-1.61-1.69-3.11-2.27-4.45-1.73
					c-1.34,0.54-1.93,1.99-1.88,4.29c0.05,2.32,0.87,5.55,2.56,9.59c3.36,8.05,6.67,11.48,9.72,10.24
					C397.96,489.53,397.61,484.9,394.06,476.93z"/>
			</g>
		</g>
	</g>
	<g>
		<g>
			<g>
				<path class="st5" d="M496.33,382.46c-0.17,0.93,0.36,1.39,1.51,1.33c3.44-0.17,5.16-0.23,8.58-0.32
					c1.28-0.03,2.27,0.22,2.78,0.81c0.49,0.55,0.69,1.23,0.52,2.05c-0.16,0.81-0.62,1.5-1.33,2.08c-0.75,0.62-1.82,0.91-3.09,0.94
					c-4.71,0.14-7.08,0.24-11.84,0.54c-1.95,0.13-3.37-0.15-4.14-0.8c-0.77-0.65-1.07-1.82-0.82-3.42
					c1.97-12.5,3.18-18.78,6.07-31.33c0.24-1.05,0.86-1.84,1.79-2.43c0.93-0.59,1.87-0.9,2.88-0.94s1.89,0.2,2.55,0.73
					c0.66,0.52,0.82,1.28,0.56,2.33C499.57,365.4,498.36,371.1,496.33,382.46z"/>
				<path class="st5" d="M560.88,370.46c1.91,0.24,3.23,0.8,3.84,1.59c0.61,0.79,0.66,2,0.13,3.51c-0.03,0.08-0.04,0.13-0.07,0.21
					c-2.04,5.11-4.64,9-7.73,11.61c-3.12,2.64-6.61,3.8-10.5,3.45c-2.99-0.27-5.32-1.35-6.94-3.25c-1.61-1.89-2.54-4.22-2.7-7.1
					c-0.16-2.88,0.24-6.11,1.31-9.78c1.64-5.64,4.32-10.2,7.92-13.55c3.59-3.35,7.85-4.75,12.59-4.2c4.81,0.56,7.91,3.07,8.55,6.79
					c0.12,0.67-0.05,1.41-0.41,2.02c-0.39,0.66-0.9,1.08-1.64,1.36c-0.74,0.28-1.5,0.39-2.18,0.42c-0.77,0.04-1.43-0.17-2.03-0.58
					c-0.59-0.41-1-1.07-1.19-1.78c-0.37-1.46-1.61-2.38-3.17-2.55c-1.97-0.22-4.06,0.87-6.2,3.28c-2.14,2.41-3.83,5.53-5,9.34
					c-2.73,8.89-1.65,13.49,2.68,13.89c1.42,0.13,2.79-0.3,4.08-1.27c1.26-0.95,2.28-2.04,3.02-3.31c0.73-1.27,1.43-2.61,1.95-4.01
					c0.01-0.04,0.02-0.06,0.03-0.11c0.29-0.89-0.14-1.43-1.25-1.56c-1.18-0.13-1.77-0.2-2.96-0.32c-1.18-0.12-1.95-0.5-2.34-1
					c-0.41-0.53-0.55-1.08-0.33-1.77c0.22-0.69,0.7-1.23,1.42-1.65c0.68-0.39,1.62-0.54,2.82-0.41
					C557.12,370,558.37,370.15,560.88,370.46z"/>
				<path class="st5" d="M609.07,380.04c1.13,1.14,1.92,2.53,2.29,4.25c0.36,1.72,0.05,3.69-0.91,5.82
					c-1.46,3.21-3.92,5.49-7.39,6.88c-3.51,1.4-7.19,1.63-11.14,0.73c-1.34-0.31-2.01-0.46-3.36-0.75
					c-1.74-0.38-2.94-1.01-3.49-1.84c-0.54-0.82-0.56-2.03-0.01-3.51c4.12-11.03,6.39-16.52,11.34-27.42
					c0.66-1.46,1.63-2.47,2.78-2.92c1.15-0.45,2.75-0.47,4.63-0.02c1.4,0.34,2.1,0.51,3.49,0.86c3.54,0.9,5.85,2.59,6.94,5.08
					c1.07,2.44,0.94,4.97-0.29,7.47c-0.99,2.02-2.49,3.38-4.61,4.2C608.84,379.2,608.8,379.58,609.07,380.04z M594.29,392.32
					c2.24,0.52,4.22,0.41,5.96-0.32c1.69-0.71,2.94-1.9,3.7-3.65c0.76-1.74,0.74-3.39-0.08-4.73c-0.85-1.39-2.45-2.35-4.74-2.9
					c-0.25-0.06-0.37-0.09-0.62-0.15c-1.05-0.25-1.81,0.07-2.17,0.92c-1.53,3.6-2.27,5.4-3.71,9.02c-0.34,0.86,0.03,1.44,1.06,1.67
					C593.93,392.24,594.05,392.27,594.29,392.32z M604.73,375.62c1.07-0.64,1.91-1.57,2.47-2.76c0.59-1.24,0.72-2.4,0.4-3.35
					c-0.31-0.91-1.23-1.6-2.63-1.95c-0.2-0.05-0.31-0.08-0.51-0.13c-1.08-0.27-1.87,0.04-2.27,0.89c-1.1,2.38-1.65,3.57-2.71,5.96
					c-0.38,0.85-0.01,1.43,1.05,1.69c0.2,0.05,0.3,0.07,0.5,0.12C602.35,376.4,603.62,376.28,604.73,375.62z"/>
				<path class="st5" d="M662.95,381.14c1.46,0.63,2.19,1.5,2.26,2.58c0.06,1.05-0.52,1.92-1.62,2.46c-1.13,0.55-2.4,0.52-3.84-0.1
					c-1.13-0.49-1.69-0.73-2.83-1.21c-0.98-0.42-1.74-0.26-2.22,0.52c-5.93,9.58-8.72,14.44-13.91,24.24
					c-0.63,1.18-1.54,1.79-2.71,1.91c-1.25,0.13-2.23-0.27-2.96-1.14c-0.72-0.85-0.84-1.85-0.23-3.05
					c5.06-9.89,7.77-14.8,13.57-24.48c0.47-0.79,0.23-1.35-0.77-1.74c-1.16-0.45-1.74-0.67-2.9-1.12c-1.49-0.56-2.23-1.39-2.36-2.43
					c-0.13-1.07,0.36-1.93,1.5-2.54c1.1-0.59,2.39-0.66,3.89-0.09C653.96,377.29,656.99,378.53,662.95,381.14z"/>
				<path class="st5" d="M673.39,424.89c-0.55,0.85-1.2,1.34-2.03,1.49c-0.84,0.15-1.63,0.03-2.33-0.34
					c-0.7-0.37-1.17-0.91-1.45-1.65c-0.28-0.74-0.19-1.53,0.35-2.39c6.69-10.72,10.28-16,17.92-26.35c0.61-0.83,1.39-1.26,2.32-1.37
					c0.93-0.11,1.75,0.03,2.51,0.45c0.76,0.42,1.31,1.02,1.57,1.78c0.27,0.76,0.07,1.51-0.55,2.33
					C683.9,409.06,680.24,414.28,673.39,424.89z"/>
				<path class="st5" d="M712.4,447.67c0.13,0.26,0.36,0.6,0.8,0.93c0.83,0.63,1.37,1.31,1.48,1.99c0.1,0.64-0.07,1.27-0.51,1.8
					c-0.44,0.53-1.04,0.82-1.71,0.87c-0.71,0.05-1.51-0.29-2.33-0.91c-1.43-1.08-2.51-2.33-3.24-3.78
					c-0.22-0.42-0.72-0.73-1.35-0.84c-1.38-0.24-2.74-0.74-3.96-1.58c-2.91-2.04-4.29-5.23-4.16-9.51
					c0.13-4.26,1.73-8.58,5.07-12.82c3.34-4.22,7.34-7.06,12.02-8.38c4.63-1.31,8.62-0.82,11.79,1.46c3.17,2.29,4.53,5.68,4.06,9.92
					c-0.47,4.26-2.66,8.36-6.25,12.33c-3.45,3.82-7.16,6.41-11.15,7.76C712.35,447.04,712.23,447.33,712.4,447.67z M712.19,441.16
					c2.14-0.92,4.47-2.81,7.02-5.72c2.76-3.16,4.4-5.98,4.89-8.59c0.49-2.61-0.1-4.5-1.73-5.67c-1.63-1.18-3.84-1.3-6.58-0.28
					c-2.74,1.02-5.43,3.12-8.09,6.38c-2.59,3.18-4,5.93-4.34,8.25c-0.35,2.36-0.1,4.03,0.79,4.96c0.21,0.28,0.7,0.44,1,0.62
					c0.17,0.11,0.37,0.33,0.49,0.28c0.11-0.05,0.18-0.32,0.31-0.75c0.5-3.58,2.21-7.28,5.23-10.99c0.58-0.7,1.3-1.1,2.15-1.22
					c0.85-0.12,1.6,0.09,2.21,0.52c0.61,0.43,1.02,1.05,1.13,1.85c0.1,0.76-0.17,1.51-0.81,2.16c-2.56,2.99-3.82,5.77-4.23,7.65
					C711.48,441.26,711.64,441.47,712.19,441.16z"/>
				<path class="st5" d="M740.27,460.27c-1-0.93-1.33-1.91-1.1-2.93c0.24-1.05,0.92-1.73,2.02-2.01c1.07-0.27,2.13,0.01,3.15,0.95
					c0.41,0.38,0.61,0.57,1.02,0.95c0.4,0.38,0.8,0.38,1.18,0.02c0.38-0.36,0.57-0.54,0.96-0.91c0.96-0.91,2.01-1.19,3.14-0.87
					c1.11,0.31,1.88,1.05,2.18,2.09c0.31,1.06-0.02,2.05-0.99,2.94c-0.39,0.36-0.58,0.54-0.97,0.89c-0.39,0.35-0.38,0.73,0.01,1.11
					c0.41,0.4,0.61,0.6,1.02,1.01c0.98,0.97,1.3,1.98,1.01,3.02c-0.29,1.01-1.04,1.69-2.1,1.92c-1.09,0.23-2.11-0.12-3.07-1.07
					c-0.4-0.4-0.6-0.59-1-0.99c-0.39-0.39-0.77-0.39-1.15-0.03c-0.39,0.38-0.59,0.57-0.98,0.95c-0.94,0.91-1.94,1.17-3,0.89
					c-1.08-0.28-1.79-0.96-2.1-2c-0.31-1.02-0.06-2,0.87-2.93c0.39-0.39,0.58-0.58,0.97-0.96c0.37-0.37,0.36-0.74-0.04-1.11
					C740.87,460.83,740.67,460.64,740.27,460.27z"/>
			</g>
		</g>
	</g>
	<g>
		<g>
			<g>
				<path class="st5" d="M505.16,535.49c0.66,0.5,1.07,1.05,1.25,1.71c0.17,0.66,0.06,1.27-0.27,1.76
					c-0.35,0.53-0.78,0.99-1.28,1.34c-0.54,0.39-1.26,0.5-1.99,0.49c-0.79-0.01-1.57-0.24-2.23-0.73c-1.02-0.68-2.14-0.84-3.37-0.55
					c-1.28,0.3-2.25,0.92-2.76,1.86c-0.51,0.93-0.67,1.99-0.44,3.07c0.26,1.22,1.07,2.15,2.38,2.85c1.27,0.68,2.79,1.19,4.44,1.51
					c1.67,0.33,3.41,0.76,5.07,1.26c1.69,0.51,3.23,1.39,4.58,2.65c1.32,1.24,2.14,2.92,2.51,4.97c0.54,3.03-0.1,5.74-1.87,8.06
					c-1.8,2.36-4.35,3.94-7.63,4.74c-2.28,0.55-4.39,0.63-6.31,0.25c-1.9-0.37-3.49-1.01-4.57-2.06c-1.36-1.32-1.64-2.68-0.82-3.99
					c0.7-1.11,1.74-1.61,3.1-1.49c0.75,0.07,1.41,0.33,2.02,0.87c1.36,1.16,3.16,1.45,5.37,0.92c1.58-0.39,2.78-1.18,3.62-2.3
					c0.82-1.1,1.14-2.34,0.88-3.67c-0.27-1.38-1.02-2.42-2.25-3.13c-1.27-0.73-2.75-1.24-4.41-1.54c-1.66-0.3-3.34-0.63-5.04-1.01
					c-1.7-0.37-3.25-1.13-4.63-2.18c-1.41-1.07-2.4-2.65-2.86-4.63c-0.63-2.69-0.19-5.25,1.34-7.71c1.49-2.38,3.9-4.03,7.19-4.82
					C499.47,533.19,502.48,533.7,505.16,535.49z"/>
				<path class="st5" d="M549.14,528.06c4.71,12.03,6.95,18.07,11.18,30.23c0.25,0.77,0.29,1.48,0.07,2.09
					c-0.22,0.63-0.63,1.09-1.12,1.36c-0.53,0.3-1.09,0.48-1.7,0.57c-0.61,0.09-1.24-0.1-1.81-0.46c-0.61-0.38-1.05-0.92-1.32-1.69
					c-1.06-2.92-1.59-4.37-2.68-7.28c-0.34-0.86-0.88-1.24-1.74-1.17c-2.15,0.18-3.22,0.27-5.37,0.49c-0.98,0.1-1.52,0.58-1.74,1.49
					c-0.67,3.07-0.99,4.6-1.6,7.67c-0.15,0.81-0.49,1.44-1,1.9c-0.55,0.49-1.11,0.76-1.73,0.78c-0.62,0.02-1.26-0.07-1.78-0.25
					c-0.57-0.19-1.02-0.59-1.32-1.14c-0.32-0.57-0.43-1.26-0.3-2.06c2.46-12.78,3.94-19.18,7.41-31.94c0.46-1.56,1.54-2.45,3.1-2.59
					C547.36,525.9,548.52,526.59,549.14,528.06z M544.61,546.32c-0.12,0.69,0.08,1.04,0.72,0.98c1.27-0.12,1.9-0.18,3.16-0.28
					c0.64-0.06,0.86-0.44,0.64-1.1c-0.77-2.28-1.16-3.42-1.94-5.7c-0.08-0.36-0.33-0.55-0.69-0.51c-0.42,0.04-0.64,0.27-0.68,0.64
					C545.32,542.73,545.08,543.92,544.61,546.32z M545.02,522.96c-0.67,0.48-1.35,0.75-2.04,0.87c-0.69,0.12-1.26,0.02-1.72-0.25
					c-0.46-0.27-0.73-0.63-0.95-1.06c-0.2-0.39-0.22-0.87,0.03-1.47c0.23-0.53,0.7-1.07,1.38-1.56c1.55-1.1,2.33-1.64,3.9-2.72
					c0.75-0.53,1.51-0.81,2.21-0.92c0.7-0.11,1.29,0,1.74,0.23c0.46,0.23,0.8,0.57,0.99,0.97c0.21,0.45,0.22,0.93-0.08,1.52
					c-0.3,0.6-0.79,1.11-1.53,1.63C547.37,521.31,546.58,521.86,545.02,522.96z"/>
				<path class="st5" d="M601.43,525.7c1.54,0.12,2.55,0.68,3.08,1.67c0.51,0.95,0.39,1.94-0.33,2.8c-0.74,0.88-1.85,1.26-3.35,1.14
					c-1.18-0.09-1.77-0.13-2.96-0.21c-1.03-0.07-1.61,0.32-1.69,1.2c-0.98,10.77-1.43,16.16-2.21,26.93
					c-0.09,1.3-0.67,2.15-1.62,2.62c-1.02,0.51-2.02,0.44-2.97-0.15c-0.93-0.57-1.41-1.46-1.35-2.77
					c0.58-10.79,0.92-16.18,1.69-26.97c0.06-0.88-0.39-1.32-1.42-1.36c-1.19-0.04-1.78-0.06-2.97-0.1
					c-1.52-0.05-2.52-0.57-3.09-1.49c-0.59-0.95-0.54-1.9,0.15-2.82c0.67-0.89,1.74-1.37,3.29-1.33
					C592,525.06,595.16,525.23,601.43,525.7z"/>
				<path class="st5" d="M628.03,563.25c-0.18,0.97-0.58,1.65-1.27,2.06c-0.68,0.41-1.43,0.55-2.18,0.43
					c-0.75-0.12-1.35-0.49-1.86-1.09c-0.51-0.61-0.71-1.38-0.55-2.35c2.02-12.22,3.1-18.33,5.39-30.52
					c0.18-0.97,0.68-1.63,1.44-2.05c0.76-0.41,1.53-0.54,2.38-0.4c0.84,0.14,1.57,0.52,2.13,1.15c0.55,0.63,0.71,1.4,0.5,2.37
					C631.48,544.99,630.29,551.08,628.03,563.25z"/>
				<path class="st5" d="M654.38,571.4c-0.71,0.34-1.46,0.42-2.2,0.22c-0.73-0.2-1.29-0.61-1.74-1.26c-0.44-0.65-0.58-1.44-0.32-2.4
					c3.01-11.45,4.58-17.17,7.83-28.57c0.41-1.46,1.14-2.46,2.09-2.91c0.95-0.45,2.35-0.46,4.05-0.01c1.5,0.41,2.25,0.62,3.74,1.04
					c3.21,0.91,5.37,2.71,6.4,5.27c1.03,2.56,1,5.34,0,8.26c-1.14,3.3-3.02,5.44-5.55,6.36c-0.64,0.29-0.94,0.69-0.9,1.3
					c0.1,5.31,0.13,7.96,0.14,13.26c0.1,1.29-0.39,2.22-1.32,2.81c-0.93,0.58-1.91,0.57-2.87,0.09c-1-0.5-1.55-1.4-1.66-2.68
					c-0.09-5.27-0.15-7.91-0.33-13.18c-0.05-0.61-0.29-1-0.73-1.13c-0.26-0.07-0.4-0.11-0.66-0.18c-0.71-0.2-1.18,0.16-1.44,1.07
					c-1.25,4.28-1.87,6.43-3.09,10.72C655.56,570.42,655.1,571.05,654.38,571.4z M662.9,553.41c1.28,0.36,2.49,0.14,3.52-0.62
					c1-0.73,1.83-1.91,2.33-3.44c0.5-1.54,0.52-2.92,0.09-4.11c-0.42-1.15-1.37-1.97-2.69-2.35c-0.32-0.09-0.49-0.14-0.81-0.23
					c-0.98-0.27-1.63,0.03-1.89,0.88c-0.97,3.18-1.45,4.76-2.39,7.94c-0.25,0.85,0.11,1.44,1.06,1.7
					C662.43,553.28,662.58,553.32,662.9,553.41z"/>
				<path class="st5" d="M714.07,556.94c-1.75,12.78-2.75,19.14-4.99,31.79c-0.16,0.8-0.46,1.44-0.93,1.86
					c-0.49,0.44-1.06,0.66-1.6,0.67c-0.59,0.01-1.15-0.1-1.71-0.3c-0.56-0.21-0.99-0.67-1.31-1.26c-0.33-0.62-0.45-1.31-0.31-2.1
					c0.5-3.06,0.74-4.59,1.21-7.66c0.13-0.91-0.15-1.5-0.91-1.85c-1.89-0.86-2.84-1.28-4.75-2.1c-0.87-0.38-1.55-0.21-2.17,0.49
					c-2.02,2.38-3.02,3.58-4.99,5.99c-0.51,0.63-1.09,1.04-1.74,1.19c-0.69,0.17-1.29,0.15-1.82-0.12
					c-0.53-0.27-1.02-0.66-1.37-1.06c-0.38-0.44-0.57-0.99-0.57-1.63c0.01-0.65,0.23-1.31,0.73-1.95c8.1-10.08,12.38-15,21.39-24.56
					c1.14-1.16,2.47-1.42,3.86-0.81C713.6,554.2,714.24,555.36,714.07,556.94z M701.54,570.83c-0.44,0.55-0.43,0.95,0.14,1.2
					c1.12,0.49,1.68,0.74,2.8,1.24c0.57,0.25,0.93,0.02,1.06-0.66c0.44-2.37,0.65-3.55,1.08-5.92c0.1-0.35-0.02-0.63-0.34-0.77
					c-0.37-0.17-0.67-0.07-0.88,0.24C703.85,568.01,703.07,568.95,701.54,570.83z"/>
			</g>
		</g>
	</g>
	<g>
		<g>
			<g>
				<path class="st5" d="M298.97,643.8c0.14,0.78,0.08,1.46-0.2,2.08c-0.28,0.62-0.72,1.03-1.24,1.23c-0.56,0.2-1.12,0.3-1.68,0.28
					c-0.6-0.02-1.15-0.37-1.63-0.82c-0.51-0.49-0.89-1.14-1.01-1.92c-0.24-1.14-0.86-1.96-1.82-2.5c-1.01-0.56-2.01-0.71-2.93-0.33
					c-0.92,0.38-1.71,1.07-2.26,2.01c-0.63,1.08-0.72,2.29-0.32,3.65c0.39,1.32,1.07,2.68,1.98,3.97c0.92,1.31,1.84,2.73,2.69,4.15
					c0.86,1.44,1.42,3.08,1.61,4.89c0.19,1.78-0.23,3.6-1.24,5.42c-1.49,2.69-3.7,4.39-6.58,5c-2.93,0.62-5.98,0.08-8.99-1.6
					c-2.1-1.17-3.71-2.61-4.83-4.23c-1.11-1.61-1.77-3.2-1.77-4.71c0-1.9,0.79-3.04,2.28-3.38c1.25-0.29,2.31,0.08,3.17,1.11
					c0.47,0.57,0.75,1.21,0.8,2.02c0.15,1.77,1.24,3.23,3.21,4.34c1.42,0.79,2.84,1,4.2,0.71c1.33-0.28,2.38-1.02,3.05-2.19
					c0.7-1.22,0.82-2.49,0.4-3.82c-0.43-1.37-1.14-2.71-2.09-4.01c-0.95-1.31-1.87-2.66-2.74-4.06c-0.88-1.4-1.38-2.99-1.55-4.68
					c-0.17-1.72,0.28-3.51,1.33-5.26c1.42-2.37,3.39-3.93,5.92-4.76c2.45-0.81,4.93-0.54,7.46,0.86
					C296.7,638.66,298.29,640.83,298.97,643.8z"/>
				<path class="st5" d="M334.57,660.04c-1.71,12.74-2.5,19.12-3.92,31.93c-0.11,0.81-0.38,1.46-0.85,1.91
					c-0.49,0.46-1.08,0.69-1.67,0.71c-0.63,0.02-1.25-0.08-1.86-0.28c-0.62-0.21-1.12-0.67-1.49-1.26
					c-0.39-0.63-0.55-1.32-0.44-2.12c0.4-3.08,0.6-4.62,1.01-7.7c0.11-0.92-0.19-1.51-0.97-1.85c-1.95-0.86-2.92-1.3-4.87-2.19
					c-0.89-0.4-1.59-0.27-2.23,0.41c-2.13,2.3-3.21,3.45-5.37,5.73c-0.56,0.61-1.2,0.96-1.9,1.07c-0.75,0.12-1.39,0.04-1.95-0.28
					c-0.56-0.32-1.07-0.76-1.42-1.2c-0.39-0.48-0.56-1.06-0.52-1.69c0.05-0.65,0.33-1.29,0.89-1.89
					c9.17-9.3,13.62-14.04,22.26-23.67c1.09-1.16,2.31-1.47,3.56-0.91C334.17,657.36,334.75,658.47,334.57,660.04z M322.4,674.08
					c-0.44,0.54-0.45,0.94,0.12,1.2c1.12,0.51,1.68,0.76,2.8,1.26c0.57,0.25,0.93,0.02,1.06-0.67c0.42-2.37,0.64-3.55,1.07-5.92
					c0.1-0.35-0.01-0.63-0.32-0.77c-0.36-0.16-0.65-0.06-0.85,0.24C324.74,671.29,323.96,672.22,322.4,674.08z"/>
				<path class="st5" d="M358.84,699.6c-0.32,0.83,0.01,1.45,0.94,1.78c2.78,0.99,4.17,1.47,6.96,2.42c1.04,0.35,1.81,0.88,2.13,1.6
					c0.31,0.68,0.37,1.39,0.1,2.13c-0.26,0.73-0.76,1.26-1.45,1.6c-0.72,0.36-1.67,0.32-2.73-0.04c-3.93-1.34-5.89-2.03-9.79-3.44
					c-1.6-0.58-2.68-1.36-3.14-2.26c-0.46-0.89-0.42-2.1,0.14-3.51c4.38-11.02,6.53-16.53,10.77-27.59
					c0.36-0.92,0.92-1.49,1.67-1.77c0.75-0.28,1.46-0.3,2.17-0.03c0.72,0.26,1.3,0.74,1.68,1.44c0.38,0.69,0.39,1.47,0.04,2.4
					C364.61,684.44,362.7,689.5,358.84,699.6z"/>
				<path class="st5" d="M416.16,686.03c1.07-0.28,2.08-0.03,2.88,0.72c0.82,0.76,1.08,1.77,0.76,3.03c-1.58,6.18-2.38,9.27-4,15.45
					c-1.51,5.75-3.58,9.94-6.15,12.45c-2.62,2.57-5.76,3.39-9.33,2.44c-7.16-1.91-8.86-8.79-5.3-20.4c1.87-6.1,2.79-9.16,4.62-15.27
					c0.37-1.25,1.12-1.99,2.21-2.24c1.07-0.25,2.07,0.03,2.85,0.8c0.79,0.78,1.03,1.8,0.67,3.05c-1.76,6.13-2.65,9.2-4.45,15.32
					c-1.31,4.45-1.87,7.73-1.7,9.64c0.17,1.94,1.05,3.2,2.68,3.64c1.63,0.43,3.1-0.16,4.31-1.78c1.17-1.57,2.39-4.67,3.62-9.14
					c1.69-6.16,2.53-9.23,4.18-15.4C414.34,687.08,415.07,686.32,416.16,686.03z"/>
				<path class="st5" d="M453.55,725.51c-3.3,3.25-6.94,4.55-10.89,3.83c-1.3-0.24-1.95-0.36-3.25-0.61
					c-1.68-0.32-2.88-0.92-3.49-1.73c-0.6-0.81-0.75-2.01-0.42-3.48c2.46-11.04,3.66-16.57,5.99-27.63
					c0.31-1.48,0.93-2.53,1.77-3.06c0.84-0.53,2.1-0.65,3.67-0.36c1.3,0.24,1.95,0.36,3.26,0.6c2.17,0.39,4.02,1.3,5.5,2.76
					c1.48,1.47,2.6,3.19,3.2,5.17c0.61,2.04,0.99,4.13,1.14,6.2c0.15,2.13,0.01,4.23-0.34,6.23
					C458.84,718.22,456.82,722.29,453.55,725.51z M453.54,703.14c-0.7-2.6-2.18-4.13-4.43-4.54c-0.22-0.04-0.33-0.06-0.55-0.1
					c-0.93-0.17-1.52,0.2-1.69,1.07c-1.81,9.04-2.73,13.56-4.63,22.58c-0.18,0.87,0.24,1.43,1.22,1.61c0.23,0.04,0.35,0.06,0.58,0.1
					c2.36,0.43,4.38-0.45,6.05-2.64c1.65-2.15,2.8-5.08,3.49-8.77C454.24,708.92,454.25,705.78,453.54,703.14z"/>
				<path class="st5" d="M503.24,702.41c0.32-1.08,0.94-1.76,1.86-2.06c0.92-0.3,1.83-0.24,2.67,0.24c0.79,0.45,1.3,1.24,1.45,2.24
					c1.23,12.43,1.88,18.64,3.21,31.06c0.12,0.79-0.01,1.47-0.34,2.02c-0.35,0.59-0.87,1.01-1.48,1.22
					c-0.66,0.23-1.28,0.29-1.94,0.26c-0.66-0.04-1.23-0.34-1.72-0.84c-0.49-0.5-0.79-1.15-0.9-1.94c-0.59-6.04-0.88-9.06-1.44-15.1
					c-0.03-0.31-0.18-0.57-0.34-0.71c-0.13-0.11-0.42-0.14-0.57-0.04c-0.18,0.11-0.32,0.35-0.41,0.65
					c-2.03,5.86-3.07,8.78-5.21,14.62c-0.6,1.68-1.64,2.43-3,2.32c-1.36-0.12-2.16-1.03-2.43-2.78c-0.8-6.08-1.18-9.13-1.94-15.21
					c-0.02-0.31-0.17-0.57-0.32-0.71c-0.13-0.12-0.42-0.15-0.57-0.05c-0.18,0.11-0.39,0.33-0.48,0.63
					c-1.79,5.84-2.7,8.76-4.58,14.58c-0.28,0.76-0.71,1.34-1.31,1.75c-0.59,0.41-1.21,0.55-1.86,0.48c-0.65-0.07-1.3-0.3-1.77-0.57
					c-0.51-0.29-0.97-0.75-1.18-1.4c-0.2-0.59-0.23-1.29,0.05-1.99c4-11.97,5.9-17.97,9.5-30.01c0.29-0.97,0.93-1.62,1.85-1.96
					c0.87-0.31,1.79-0.25,2.6,0.2c0.83,0.47,1.32,1.28,1.48,2.34c0.91,6.83,1.38,10.24,2.35,17.06c0.04,0.22,0.1,0.37,0.24,0.44
					c0.16,0.09,0.29,0.09,0.46,0.04c0.15-0.05,0.25-0.18,0.33-0.39C499.86,712.26,501.01,708.98,503.24,702.41z"/>
				<path class="st5" d="M553.68,733.42c0.59,0.56,0.89,1.23,0.89,1.96c0,0.73-0.31,1.36-0.91,1.95c-0.6,0.59-1.45,0.92-2.59,0.93
					c-4.23,0.07-6.34,0.08-10.56,0.07c-1.74,0-3.05-0.38-3.8-1.07c-0.75-0.69-1.12-1.84-1.06-3.35c0.43-11.3,0.62-16.96,0.92-28.26
					c0.04-1.51,0.47-2.66,1.21-3.33c0.74-0.67,1.98-1.03,3.61-1.03c3.95,0.01,5.92-0.01,9.88-0.08c1.07-0.02,1.85,0.23,2.42,0.79
					c0.56,0.56,0.86,1.23,0.86,1.96c0.01,0.73-0.27,1.36-0.84,1.95c-0.56,0.59-1.36,0.91-2.44,0.94c-2.86,0.05-4.29,0.06-7.14,0.07
					c-0.97,0-1.48,0.47-1.49,1.36c-0.04,2.48-0.06,3.72-0.11,6.21c-0.01,0.89,0.49,1.36,1.47,1.35c1.8-0.01,2.7-0.01,4.5-0.03
					c1.04-0.01,1.81,0.18,2.3,0.64c0.46,0.44,0.69,1.03,0.69,1.71c0,0.68-0.24,1.23-0.71,1.68c-0.5,0.48-1.28,0.75-2.33,0.76
					c-1.82,0.02-2.72,0.03-4.54,0.04c-0.99,0-1.52,0.47-1.54,1.36c-0.08,3.73-0.13,5.6-0.22,9.34c-0.02,0.89,0.5,1.36,1.51,1.36
					c2.99-0.01,4.49-0.02,7.49-0.07C552.26,732.61,553.09,732.86,553.68,733.42z"/>
				<path class="st5" d="M593.88,699.51c0.58-0.58,1.24-0.91,2.03-0.99c0.79-0.08,1.55,0.1,2.22,0.55c0.67,0.45,1.02,1.15,1.11,2.13
					c1.14,12.51,1.67,18.77,2.64,31.3c0.08,0.99-0.23,1.76-0.97,2.31c-0.75,0.55-1.66,0.69-2.64,0.54c-1.04-0.16-1.8-0.61-2.34-1.34
					c-4.38-6.79-6.52-10.2-10.71-17.06c-0.2-0.35-0.44-0.49-0.78-0.41c-0.35,0.08-0.51,0.35-0.48,0.82
					c0.36,6.52,0.53,9.78,0.84,16.31c0.05,0.99-0.22,1.74-0.86,2.32c-0.64,0.57-1.41,0.89-2.26,0.95c-0.84,0.06-1.58-0.15-2.26-0.62
					c-0.68-0.47-1.07-1.19-1.1-2.18c-0.46-12.56-0.73-18.83-1.35-31.38c-0.05-0.99,0.31-1.75,1.02-2.27
					c0.71-0.52,1.5-0.69,2.47-0.49c0.91,0.19,1.63,0.71,2.13,1.46c4.08,6.88,6.17,10.3,10.44,17.11c0.13,0.2,0.36,0.31,0.56,0.37
					c0.16,0.05,0.42,0.03,0.58-0.11c0.14-0.12,0.21-0.34,0.19-0.65c-0.48-6.54-0.72-9.8-1.24-16.33
					C593.02,700.85,593.3,700.09,593.88,699.51z"/>
				<path class="st5" d="M638.09,692.39c1.42-0.26,2.49,0.02,3.23,0.82c0.73,0.78,0.9,1.77,0.48,2.78c-0.43,1.03-1.36,1.7-2.79,1.96
					c-1.12,0.21-1.68,0.31-2.8,0.52c-0.97,0.18-1.42,0.68-1.29,1.55c1.66,10.68,2.46,16.03,4.01,26.73
					c0.19,1.29-0.24,2.26-1.18,2.96c-1,0.75-2.11,0.92-3.26,0.56c-1.13-0.35-1.81-1.13-1.99-2.42c-1.42-10.72-2.16-16.08-3.71-26.78
					c-0.13-0.88-0.64-1.21-1.61-1.06c-1.12,0.18-1.68,0.27-2.8,0.45c-1.43,0.23-2.46-0.13-3.16-0.94c-0.72-0.83-0.84-1.78-0.37-2.79
					c0.46-0.99,1.34-1.63,2.76-1.85C629.41,693.97,632.31,693.47,638.09,692.39z"/>
				<path class="st5" d="M678.01,685.67c6.73,10.98,10.17,16.44,17.17,27.29c0.43,0.69,0.61,1.38,0.5,2.03
					c-0.11,0.67-0.47,1.23-0.95,1.62c-0.52,0.43-1.1,0.74-1.74,0.98c-0.65,0.24-1.37,0.19-2.05-0.03c-0.73-0.24-1.31-0.67-1.73-1.36
					c-1.64-2.65-2.46-3.97-4.09-6.63c-0.5-0.78-1.12-1.05-2.01-0.81c-2.19,0.58-3.29,0.87-5.48,1.43c-1,0.25-1.5,0.81-1.61,1.75
					c-0.31,3.16-0.47,4.73-0.82,7.89c-0.08,0.82-0.38,1.51-0.9,2.04c-0.55,0.57-1.14,0.92-1.81,1.03c-0.67,0.11-1.38,0.1-1.96-0.02
					c-0.64-0.13-1.15-0.47-1.52-0.99c-0.38-0.54-0.55-1.21-0.47-2.03c1.68-13.08,2.37-19.61,3.46-32.63c0.17-1.6,1-2.63,2.41-2.99
					C675.95,683.85,677.15,684.34,678.01,685.67z M676.78,704.38c-0.02,0.71,0.23,1.02,0.87,0.85c1.26-0.33,1.9-0.49,3.16-0.82
					c0.64-0.17,0.79-0.59,0.46-1.2c-1.16-2.11-1.74-3.17-2.9-5.28c-0.14-0.34-0.42-0.49-0.76-0.39c-0.4,0.1-0.59,0.37-0.57,0.74
					C676.95,700.72,676.9,701.94,676.78,704.38z"/>
				<path class="st5" d="M723.9,700.61c0.26,0.85,0.93,1.11,1.93,0.76c2.99-1.05,4.49-1.58,7.47-2.67c1.11-0.41,2.11-0.5,2.84-0.16
					c0.7,0.32,1.2,0.84,1.45,1.58c0.24,0.74,0.16,1.48-0.21,2.19c-0.38,0.76-1.22,1.34-2.35,1.76c-4.2,1.53-6.3,2.28-10.52,3.73
					c-1.73,0.59-3.14,0.68-4.11,0.29c-0.97-0.39-1.7-1.36-2.13-2.81c-3.34-11.38-5.05-17.06-8.52-28.4
					c-0.29-0.95-0.17-1.76,0.29-2.47c0.46-0.7,1.05-1.18,1.84-1.45c0.78-0.27,1.58-0.27,2.35,0.02c0.77,0.28,1.28,0.88,1.58,1.83
					C719.11,685.1,720.72,690.26,723.9,700.61z"/>
			</g>
		</g>
	</g>
	<g>
		<g>
			<g>
				<path class="st5" d="M478.2,165.57c-0.37,0.96-0.95,1.6-1.8,1.94c-0.86,0.35-1.74,0.42-2.58,0.23
					c-0.85-0.19-1.47-0.61-1.95-1.26c-0.48-0.65-0.57-1.44-0.2-2.4c4.57-12,6.98-17.98,12.02-29.9c0.4-0.95,1.08-1.57,1.98-1.91
					c0.9-0.34,1.77-0.41,2.64-0.2c0.87,0.21,1.58,0.65,2.06,1.32c0.47,0.67,0.48,1.44,0.07,2.39
					C485.31,147.66,482.86,153.62,478.2,165.57z"/>
				<path class="st5" d="M535.17,145.8c0.9-0.28,1.75-0.29,2.58-0.03c0.83,0.26,1.5,0.75,1.91,1.45c0.42,0.7,0.38,1.47-0.08,2.39
					c-5.81,11.67-8.59,17.54-13.93,29.31c-0.42,0.93-1.07,1.5-2.02,1.71c-0.95,0.21-1.84-0.02-2.65-0.54
					c-0.86-0.55-1.35-1.24-1.49-2.12c-0.76-7.89-1.15-11.84-1.93-19.72c-0.02-0.39-0.19-0.61-0.57-0.66
					c-0.38-0.06-0.67,0.14-0.88,0.58c-2.79,6.16-4.16,9.25-6.82,15.44c-0.41,0.94-0.99,1.55-1.85,1.86
					c-0.85,0.31-1.72,0.35-2.54,0.12c-0.82-0.23-1.43-0.67-1.87-1.34c-0.44-0.67-0.5-1.47-0.1-2.41
					c5.04-11.94,7.68-17.89,13.2-29.74c0.43-0.94,1.19-1.5,2.18-1.72c1-0.22,1.92-0.08,2.82,0.47c0.85,0.52,1.33,1.28,1.47,2.16
					c0.71,7.89,1.05,11.83,1.74,19.72c0.03,0.23,0.19,0.42,0.35,0.55c0.13,0.11,0.39,0.19,0.61,0.13c0.2-0.06,0.37-0.22,0.51-0.51
					c2.86-6.14,4.32-9.21,7.31-15.32C533.57,146.65,534.26,146.08,535.17,145.8z"/>
				<path class="st5" d="M568.6,186.76c1.09,0.29,1.85,0.94,2.15,1.92c0.29,0.97-0.1,1.96-1.16,2.86
					c-3.53,2.56-7.23,3.12-11.17,1.66c-2.61-0.97-4.38-2.61-5.35-4.79c-0.99-2.22-1.25-4.79-0.77-7.57c0.48-2.73,1.48-5.8,3.16-9.11
					c2.61-5.13,5.77-8.88,9.47-11.34c3.67-2.44,7.51-2.93,11.49-1.41c4.04,1.55,6.32,4.59,6.22,8.38c-0.02,0.69-0.32,1.34-0.72,1.78
					c-0.45,0.49-1,0.8-1.7,0.93c-0.69,0.13-1.38,0.08-1.98-0.03c-0.68-0.12-1.22-0.46-1.69-0.95c-0.46-0.48-0.7-1.13-0.64-1.85
					c-0.28-1.65-1.09-2.7-2.29-3.16c-1.61-0.61-3.54-0.02-5.76,1.71c-2.27,1.77-4.31,4.49-6.22,8.17
					c-4.15,8.02-4.26,12.72-0.63,14.08c1.23,0.46,2.69,0.26,4.19-0.64C566.28,186.74,567.43,186.46,568.6,186.76z"/>
				<path class="st5" d="M597.97,201.33c-0.45,0.79-0.19,1.42,0.71,1.82c2.72,1.21,4.07,1.82,6.77,3.06c1,0.46,1.69,1.07,1.9,1.81
					c0.2,0.7,0.13,1.4-0.28,2.09c-0.4,0.69-1,1.15-1.75,1.41c-0.79,0.28-1.74,0.13-2.74-0.33c-3.73-1.71-5.61-2.55-9.39-4.21
					c-1.54-0.68-2.55-1.52-2.91-2.42c-0.36-0.91-0.18-2.1,0.57-3.45c5.87-10.6,8.9-15.88,15.18-26.35c0.53-0.87,1.25-1.38,2.13-1.56
					c0.89-0.19,1.7-0.12,2.48,0.22c0.78,0.35,1.36,0.9,1.69,1.63c0.33,0.73,0.21,1.5-0.32,2.37
					C606.23,186.93,603.42,191.71,597.97,201.33z"/>
				<path class="st5" d="M661.5,199.05c1.22,0.05,2.21,0.6,2.8,1.55c0.6,0.97,0.53,2-0.24,3.09c-3.77,5.34-5.62,8.03-9.27,13.42
					c-3.4,5.02-6.74,8.44-10,10.2c-3.32,1.8-6.53,1.87-9.7,0.19c-6.34-3.35-6.42-10.29,0.28-20.75c3.52-5.5,5.31-8.23,8.94-13.68
					c0.74-1.11,1.75-1.65,3.01-1.61c1.24,0.03,2.24,0.56,2.86,1.49c0.63,0.95,0.58,1.99-0.17,3.1c-3.67,5.42-5.48,8.14-9.04,13.61
					c-2.59,3.97-4.04,7.01-4.41,8.88c-0.37,1.9,0.14,3.3,1.61,4.08c1.47,0.78,3.07,0.54,4.74-0.71c1.61-1.21,3.75-3.87,6.37-7.81
					c3.61-5.42,5.45-8.12,9.18-13.5C659.23,199.51,660.25,199,661.5,199.05z"/>
				<path class="st5" d="M699.66,225.44c0.04,0.78-0.11,1.44-0.48,2.02c-0.38,0.58-0.9,0.93-1.48,1.06
					c-0.62,0.14-1.23,0.17-1.81,0.09c-0.63-0.09-1.18-0.49-1.63-0.99c-0.49-0.53-0.8-1.23-0.87-2c-0.1-1.13-0.71-2.02-1.69-2.63
					c-1.03-0.65-2.1-0.88-3.11-0.58c-1.02,0.3-1.93,0.92-2.6,1.82c-0.77,1.02-0.96,2.21-0.66,3.58c0.29,1.33,0.87,2.71,1.69,4.06
					c0.83,1.36,1.62,2.83,2.33,4.3c0.72,1.49,1.09,3.15,1.05,4.94c-0.04,1.76-0.73,3.5-1.99,5.19c-1.86,2.5-4.27,3.99-7.18,4.41
					c-2.96,0.42-5.87-0.23-8.67-1.97c-1.94-1.21-3.41-2.63-4.39-4.24c-0.97-1.59-1.53-3.15-1.43-4.62c0.12-1.86,0.98-2.99,2.5-3.3
					c1.3-0.27,2.34,0.11,3.13,1.15c0.43,0.57,0.65,1.22,0.65,2.01c0,1.72,0.98,3.2,2.84,4.35c1.34,0.83,2.72,1.11,4.12,0.9
					c1.37-0.2,2.49-0.86,3.3-1.97c0.84-1.15,1.12-2.38,0.84-3.72c-0.29-1.37-0.87-2.74-1.72-4.08c-0.85-1.34-1.68-2.72-2.47-4.15
					c-0.8-1.42-1.2-3-1.26-4.68c-0.06-1.71,0.53-3.46,1.76-5.13c1.67-2.27,3.9-3.71,6.7-4.36c2.73-0.63,5.44-0.14,8.06,1.52
					C697.81,220.09,699.3,222.43,699.66,225.44z"/>
				<path class="st5" d="M706.73,267.75c-0.62,0.79-1.29,1.21-2.11,1.27c-0.82,0.07-1.56-0.14-2.19-0.58
					c-0.63-0.44-1.01-1.03-1.18-1.79c-0.18-0.77,0.01-1.54,0.62-2.33c7.65-9.91,11.58-14.81,19.65-24.5
					c0.65-0.77,1.4-1.14,2.26-1.19c0.86-0.04,1.59,0.15,2.25,0.62c0.66,0.47,1.09,1.11,1.26,1.88c0.17,0.77-0.08,1.51-0.73,2.27
					C718.41,253.04,714.45,257.91,706.73,267.75z"/>
				<path class="st5" d="M758.49,270.59c-0.96,3.75-3.4,7.73-7.12,11.82c-3.72,4.08-7.44,6.88-11.13,8.38
					c-3.76,1.53-6.93,1.25-9.59-0.87s-3.54-5.1-2.72-8.88c0.82-3.81,3-7.91,6.61-12.1c3.62-4.2,7.44-7.05,11.29-8.52
					c3.82-1.46,7.2-1.12,9.97,1.11C758.57,263.75,759.45,266.82,758.49,270.59z M746.78,278.62c2.91-3.26,4.87-6.01,5.7-8.19
					c0.82-2.15,0.64-3.76-0.55-4.71c-1.19-0.95-2.87-0.84-5,0.26c-2.15,1.11-4.75,3.3-7.67,6.63c-5.79,6.62-7.37,10.98-4.91,12.95
					S740.9,285.17,746.78,278.62z M757.38,259.06c-0.78-0.09-1.41-0.33-1.93-0.68c-0.52-0.35-0.82-0.79-0.91-1.26
					c-0.1-0.48-0.01-0.9,0.17-1.36c0.16-0.4,0.5-0.76,1.09-1.01c0.53-0.23,1.23-0.32,2.01-0.23c1.77,0.2,2.66,0.31,4.44,0.52
					c0.86,0.08,1.54,0.36,2.07,0.73c0.52,0.36,0.81,0.8,0.94,1.24c0.13,0.45,0.1,0.91-0.07,1.31c-0.18,0.45-0.53,0.8-1.15,1.04
					c-0.62,0.24-1.3,0.29-2.16,0.21C760.08,259.36,759.18,259.26,757.38,259.06z"/>
				<path class="st5" d="M792.68,295.12c0.82,0.05,1.5,0.33,2.06,0.86c0.56,0.54,0.89,1.22,0.95,1.99c0.06,0.78-0.28,1.49-1.01,2.17
					c-9.2,8.72-13.7,13.15-22.5,22.14c-0.7,0.71-1.43,1.02-2.26,0.88c-0.83-0.14-1.43-0.65-1.87-1.41c-0.46-0.8-0.57-1.61-0.34-2.47
					c2.48-7.53,3.72-11.29,6.18-18.82c0.13-0.37,0.08-0.63-0.19-0.81c-0.28-0.18-0.59-0.11-0.92,0.23
					c-4.6,4.7-6.87,7.07-11.36,11.83c-0.68,0.73-1.38,1.08-2.17,1.07c-0.79-0.01-1.48-0.28-2.03-0.78
					c-0.55-0.49-0.86-1.11-0.94-1.89c-0.08-0.78,0.18-1.52,0.85-2.25c8.57-9.24,12.95-13.8,21.93-22.79
					c0.71-0.71,1.52-0.97,2.4-0.82c0.88,0.15,1.54,0.6,2.04,1.42c0.48,0.78,0.55,1.64,0.32,2.5c-2.53,7.5-3.8,11.25-6.35,18.75
					c-0.07,0.22-0.01,0.46,0.06,0.63c0.06,0.14,0.22,0.32,0.43,0.33c0.18,0.02,0.38-0.07,0.6-0.3c4.66-4.66,7.01-6.97,11.78-11.56
					C791.08,295.35,791.86,295.07,792.68,295.12z"/>
			</g>
		</g>
	</g>
	<g>
		<g>
			<path class="st2" d="M394.58,144.07c0.56-0.91,1.38-1.37,2.45-1.38c1.1,0.04,1.94,0.58,2.58,1.72l7.81,13.91
				c2.91,5.18,4.4,9.55,4.5,13.02c0.08,3.54-1.3,6.11-4.16,7.71c-5.73,3.22-11.58-0.49-17.52-11.09l-7.81-13.91
				c-0.64-1.14-0.66-2.14-0.13-3.1c0.56-0.91,1.38-1.37,2.45-1.38c1.1,0.04,1.94,0.58,2.58,1.72l7.81,13.91
				c2.27,4.05,4.15,6.76,5.64,8.02c1.46,1.33,2.88,1.61,4.2,0.87c1.32-0.74,1.81-2.09,1.49-4.06c-0.35-1.9-1.68-4.91-3.95-8.96
				l-7.81-13.91C394.07,146.03,394.05,145.03,394.58,144.07z"/>
		</g>
	</g>
	<g>
		<g>
			<path class="st2" d="M324.31,332.07c-0.48-0.86-1.08-0.91-1.78-0.14l-2.87,3.16c-0.6,0.66-1.28,1.02-1.98,1.02
				c-0.7,0-1.34-0.23-1.84-0.69c-0.54-0.49-0.83-1.1-0.9-1.8c-0.03-0.66,0.27-1.38,0.86-2.03l6.06-6.68c0.91-1,1.89-1.46,2.93-1.28
				c1.04,0.17,1.92,0.9,2.57,2.13l12.43,24.46c0.49,0.94,1.01,1.13,1.61,0.48l5.75-6.33c0.6-0.66,1.28-1.02,1.94-1.05
				c0.7,0,1.34,0.23,1.88,0.72c0.58,0.53,0.87,1.14,0.9,1.8c0,0.7-0.27,1.38-0.86,2.03l-8.83,9.72c-0.95,1.04-1.96,1.53-2.92,1.43
				c-1-0.06-1.85-0.83-2.58-2.27L324.31,332.07z"/>
		</g>
	</g>
	<g>
		<g>
			<path class="st2" d="M453.83,241.55c0.46-0.65,1.03-1.02,1.68-1.18c0.65-0.16,1.25-0.12,1.78,0.12c0.5,0.28,0.93,0.59,1.3,1.05
				c0.32,0.43,0.46,1.01,0.44,1.69c-0.02,0.68-0.3,1.29-0.81,1.92l-20.34,24.66c-1.07,1.23-2.25,1.55-3.53,0.97
				c-1.38-0.62-1.91-1.72-1.59-3.3l5.1-31.57c0.23-1.27,0.88-2.06,1.91-2.45c1.03-0.39,1.93-0.21,2.82,0.48
				c0.84,0.67,1.14,1.66,0.86,2.91l-3.85,20.98c-0.06,0.26,0.02,0.47,0.12,0.63c0.1,0.16,0.24,0.22,0.43,0.19
				c0.18-0.03,0.3-0.15,0.45-0.37L453.83,241.55z"/>
		</g>
	</g>
	<g>
		<g>
			<path class="st2" d="M578.34,299.88c-2.45,0.56-4.78,0.04-6.94-1.5l-0.59-0.42c-0.72-0.52-1.37-0.41-1.89,0.31l-6.52,9.12
				c-0.58,0.8-1.21,1.25-1.98,1.34c-0.77,0.09-1.47-0.09-2.07-0.52c-0.59-0.42-0.95-1-1.11-1.76c-0.16-0.76,0.01-1.53,0.58-2.34
				l17.23-24.08c0.88-1.23,1.84-1.95,2.79-2.11c0.95-0.16,2.09,0.21,3.32,1.09l2.71,1.94c2.33,1.67,3.52,3.86,3.55,6.51
				c0.03,2.65-0.88,5.26-2.67,7.77C582.89,297.81,580.76,299.36,578.34,299.88z M574.19,294.47c0.97,0.7,2.08,0.85,3.24,0.4
				c1.13-0.41,2.21-1.3,3.15-2.61c0.94-1.31,1.4-2.59,1.46-3.83c0.02-1.2-0.48-2.2-1.45-2.9L580,285.1
				c-0.72-0.52-1.37-0.41-1.89,0.31l-4.82,6.74c-0.52,0.72-0.41,1.38,0.31,1.89L574.19,294.47z"/>
		</g>
	</g>
	<g>
		<g>
			<path class="st2" d="M339.53,567.53c0.02-0.78,0.26-1.41,0.76-1.94c0.5-0.53,1.16-0.84,1.93-0.9c0.77-0.06,1.48,0.25,2.2,0.93
				l22.81,21.56c0.72,0.68,1.03,1.41,0.91,2.22c-0.12,0.82-0.62,1.42-1.39,1.85c-0.8,0.47-1.61,0.56-2.46,0.33l-18.83-6.18
				c-0.37-0.14-0.63-0.09-0.81,0.17c-0.18,0.26-0.09,0.56,0.25,0.88l11.86,11.21c0.72,0.68,1.07,1.37,1.06,2.15
				c-0.01,0.77-0.29,1.45-0.79,1.98c-0.5,0.53-1.12,0.81-1.89,0.87c-0.77,0.06-1.52-0.22-2.24-0.9l-22.81-21.55
				c-0.72-0.68-1-1.45-0.87-2.26c0.12-0.82,0.55-1.42,1.35-1.88c0.76-0.43,1.61-0.49,2.46-0.25l18.8,6.22
				c0.22,0.07,0.44,0.06,0.63-0.06c0.18-0.04,0.33-0.19,0.32-0.41c0.03-0.19-0.08-0.37-0.31-0.58l-11.9-11.24
				C339.83,569.03,339.51,568.31,339.53,567.53z"/>
		</g>
	</g>
	<g>
		<g>
			<path class="st2" d="M790.85,572.18c-0.07,0.77-0.4,1.42-0.94,1.91c-0.54,0.49-1.18,0.72-1.95,0.72c-0.78,0-1.5-0.33-2.17-1.06
				l-6.18-6.78c-1.02-1.12-1.52-2.21-1.48-3.17c0.05-0.96,0.65-2,1.77-3.02l20.89-19.03c1.12-1.02,2.21-1.52,3.17-1.48
				c0.96,0.04,2,0.65,3.02,1.76l6.18,6.78c0.67,0.73,0.96,1.45,0.89,2.22c-0.07,0.77-0.4,1.42-0.94,1.91
				c-0.54,0.49-1.18,0.72-1.95,0.72c-0.78,0-1.5-0.33-2.17-1.06l-4.42-4.86c-0.6-0.66-1.26-0.69-1.91-0.09l-4.59,4.18
				c-0.66,0.6-0.69,1.26-0.09,1.92l2.74,3.01c0.63,0.69,0.94,1.33,0.9,2c-0.07,0.62-0.35,1.16-0.85,1.62
				c-0.5,0.46-1.03,0.65-1.66,0.66c-0.66-0.03-1.31-0.36-1.94-1.05l-2.74-3.01c-0.6-0.66-1.26-0.69-1.91-0.09l-6.9,6.28
				c-0.66,0.6-0.69,1.26-0.09,1.92l4.42,4.85C790.63,570.69,790.92,571.4,790.85,572.18z"/>
		</g>
	</g>
	<g>
		<g>
			<path class="st2" d="M546.19,463.8c-0.16-0.37-0.37-0.52-0.57-0.52c-0.21,0-0.37,0.16-0.52,0.52l-4.59,10.17
				c-0.47,1.09-1.25,1.72-2.29,1.82c-1.09,0.1-1.93-0.26-2.56-1.1c-0.68-0.83-0.73-1.82-0.21-2.97l6.62-14.91
				c0.37-0.73,0.37-1.46,0-2.14l-5.21-11.73c-0.57-1.2-0.52-2.19,0.16-3.02c0.63-0.83,1.46-1.2,2.55-1.1
				c1.09,0.1,1.88,0.73,2.35,1.88l3.18,7.04c0.16,0.37,0.31,0.52,0.52,0.52c0.21,0,0.37-0.16,0.52-0.52l3.18-7.09
				c0.52-1.09,1.3-1.72,2.4-1.82c1.04-0.1,1.88,0.26,2.55,1.1c0.63,0.89,0.68,1.88,0.16,3.02l-5.26,11.73
				c-0.36,0.68-0.36,1.41,0,2.14l6.67,14.91c0.47,1.1,0.42,2.09-0.21,2.92c-0.68,0.89-1.51,1.25-2.55,1.15
				c-1.04-0.05-1.82-0.68-2.35-1.82L546.19,463.8z"/>
		</g>
	</g>
	<g>
		<path class="st3" d="M531.34,769.82c0.08,3.89-1.04,8.37-3.36,13.33c-2.32,4.96-5.02,8.64-8.06,11.08
			c-3.11,2.46-6.12,3.01-9.1,1.61c-2.98-1.39-4.49-4.06-4.57-7.95c-0.13-3.92,0.99-8.4,3.31-13.36s5.04-8.69,8.13-11.1
			c3.04-2.43,6.05-2.98,9.03-1.59C529.7,763.24,531.22,765.91,531.34,769.82z M522.89,780.77c1.83-3.92,2.85-7.07,3.09-9.43
			c0.17-2.34-0.36-3.79-1.63-4.39c-1.28-0.6-2.73-0.07-4.37,1.58c-1.68,1.63-3.45,4.43-5.31,8.4c-3.69,7.89-4.17,12.49-1.43,13.77
			C515.97,791.98,519.2,788.66,522.89,780.77z"/>
	</g>
	<g>
		<g>
			<path class="st2" d="M473.86,644.74c0.64,1.33,0.99,2.84,0.94,4.59c-0.05,1.75-0.68,3.64-1.87,5.54c-1.8,2.87-4.24,4.6-7.34,5.24
				c-3.15,0.61-6.16,0.01-9.08-1.81l-2.47-1.55c-1.28-0.8-2.06-1.72-2.27-2.65c-0.21-0.93,0.08-2.1,0.89-3.38l15-23.94
				c0.8-1.28,1.72-2.06,2.65-2.27c0.93-0.21,2.1,0.09,3.38,0.89l2.39,1.5c2.43,1.52,3.8,3.55,4.18,6.19
				c0.33,2.61-0.2,5.04-1.62,7.29c-1.13,1.81-2.55,2.89-4.35,3.3C473.85,643.87,473.74,644.24,473.86,644.74z M459.68,653.63
				c1.63,1.02,3.22,1.34,4.77,1.02c1.51-0.35,2.74-1.23,3.71-2.78s1.29-3.13,0.94-4.64c-0.39-1.54-1.4-2.78-3.03-3.81l-0.44-0.28
				c-0.75-0.47-1.4-0.32-1.87,0.43l-4.96,7.91c-0.47,0.75-0.32,1.4,0.43,1.87L459.68,653.63z M471.43,639.59
				c0.96-0.45,1.77-1.16,2.44-2.23c0.69-1.1,1.01-2.2,0.97-3.21c-0.07-0.97-0.6-1.79-1.57-2.4l-0.35-0.22
				c-0.75-0.47-1.4-0.32-1.87,0.43l-3.29,5.26c-0.47,0.75-0.32,1.4,0.43,1.87l0.35,0.22C469.46,639.89,470.43,640,471.43,639.59z"/>
		</g>
	</g>
	<g>
		<g>
			<path class="st2" d="M421.11,398.77c0.85,4.34-0.01,7.71-2.6,10.13l-2.13,1.99c-1.11,1.03-2.19,1.55-3.15,1.51
				c-0.96-0.03-2.01-0.62-3.04-1.73l-19.28-20.66c-1.03-1.11-1.55-2.19-1.51-3.15c0.03-0.96,0.62-2.01,1.73-3.04l2.29-2.13
				c1.52-1.42,3.29-2.28,5.29-2.51c2-0.23,3.98-0.01,5.91,0.76c1.96,0.8,3.81,1.79,5.54,2.96c1.77,1.2,3.34,2.59,4.73,4.07
				C418.19,390.52,420.3,394.46,421.11,398.77z M403.33,385.21c-2.47-1.05-4.51-0.86-6.07,0.6l-0.38,0.36
				c-0.65,0.6-0.67,1.27-0.07,1.92l15.72,16.85c0.6,0.65,1.27,0.67,1.92,0.07l0.38-0.35c1.56-1.46,1.93-3.44,1.06-5.97
				c-0.84-2.5-2.55-5.11-5.11-7.85C408.31,388.18,405.83,386.29,403.33,385.21z"/>
		</g>
	</g>
	<g>
		<g>
			<path class="st2" d="M795.71,388.74c0.95-0.89,1.92-1.16,2.98-0.87c1.02,0.33,1.67,1.01,1.93,2.05c0.23,1.08-0.1,2.03-1.05,2.92
				l-1.86,1.75c-0.65,0.61-0.7,1.23-0.1,1.88l18.49,19.68c0.89,0.95,1.16,1.92,0.87,2.9c-0.29,1.06-0.97,1.7-2.05,1.93
				c-1.04,0.26-1.99-0.06-2.88-1.01l-18.49-19.68c-0.61-0.64-1.2-0.66-1.84-0.06l-1.86,1.75c-0.95,0.89-1.92,1.16-2.94,0.83
				c-1.06-0.29-1.7-0.98-1.93-2.05c-0.26-1.04,0.06-1.99,1.01-2.88L795.71,388.74z"/>
		</g>
	</g>
	<g>
		<g>
			<path class="st2" d="M233.29,435.27c-0.05-0.31-0.16-0.52-0.31-0.63c-0.16-0.1-0.31-0.1-0.47,0c-0.16,0.1-0.31,0.31-0.36,0.63
				l-3.49,15.27c-0.21,0.83-0.63,1.51-1.2,2.09c-0.57,0.57-1.3,0.83-2.14,0.83c-1.62,0-2.76-0.99-3.34-2.92L214,420.25
				c-0.21-0.73-0.21-1.41,0.05-2.03c0.26-0.57,0.63-1.04,1.15-1.3c0.52-0.26,1.09-0.37,1.67-0.42c0.57-0.05,1.09,0.16,1.62,0.52
				c0.47,0.42,0.83,0.99,1.04,1.77l5,19.5c0.16,0.42,0.37,0.63,0.63,0.63s0.42-0.21,0.52-0.63l4.48-19.24
				c0.42-1.72,1.25-2.61,2.56-2.61c1.25,0,2.09,0.89,2.55,2.61l4.48,19.24c0.05,0.42,0.26,0.63,0.57,0.63
				c0.26,0,0.47-0.21,0.57-0.63l5-19.5c0.21-0.73,0.57-1.3,1.09-1.72c0.52-0.42,1.09-0.63,1.67-0.57c0.57,0.05,1.09,0.16,1.62,0.42
				c0.47,0.26,0.83,0.68,1.09,1.25c0.21,0.63,0.21,1.3,0,2.09l-7.98,30.29c-0.26,0.83-0.63,1.51-1.2,2.09
				c-0.57,0.57-1.3,0.83-2.09,0.83c-0.83,0-1.56-0.26-2.14-0.83c-0.63-0.57-1.04-1.25-1.2-2.09L233.29,435.27z"/>
		</g>
	</g>
	<g>
		<g>
			<path class="st2" d="M579.27,616.5c-0.34-0.93-0.92-1.07-1.73-0.42l-3.34,2.67c-0.69,0.55-1.43,0.8-2.12,0.69
				c-0.69-0.12-1.28-0.44-1.71-0.97c-0.45-0.57-0.64-1.22-0.6-1.92c0.07-0.66,0.48-1.32,1.17-1.87l7.05-5.62
				c1.06-0.84,2.09-1.14,3.1-0.8c1,0.34,1.76,1.2,2.2,2.51l8.37,26.13c0.33,1,0.82,1.28,1.51,0.73l6.68-5.33
				c0.69-0.55,1.43-0.8,2.09-0.73c0.69,0.12,1.28,0.44,1.74,1.01c0.49,0.61,0.67,1.26,0.6,1.92c-0.12,0.69-0.48,1.32-1.17,1.87
				l-10.27,8.19c-1.1,0.88-2.18,1.2-3.11,0.95c-0.98-0.22-1.69-1.12-2.18-2.66L579.27,616.5z"/>
		</g>
	</g>
</g>
</svg>
