<?xml version="1.0" encoding="utf-8"?>
<!-- Generator: Adobe Illustrator 26.5.0, SVG Export Plug-In . SVG Version: 6.00 Build 0)  -->
<svg version="1.1" id="Capa_1" xmlns="http://www.w3.org/2000/svg" xmlns:xlink="http://www.w3.org/1999/xlink" x="0px" y="0px"
	 viewBox="0 0 1189.53 995.21" style="enable-background:new 0 0 1189.53 995.21;" xml:space="preserve">
<style type="text/css">
	.st0{fill:none;stroke:#312164;stroke-width:13.033;stroke-linecap:round;stroke-miterlimit:10;}
	.st1{fill:none;stroke:#FAC247;stroke-width:8.6887;stroke-linecap:round;stroke-miterlimit:10;}
	.st2{fill:#FAC247;}
	.st3{fill:#8D7BDC;}
	.st4{fill:#EB5B66;}
	.st5{fill:#312164;}
	.st6{fill:#F6F1FD;}
	.st7{fill:none;stroke:#FAC247;stroke-width:4.3443;stroke-miterlimit:10;}
	.st8{fill:none;stroke:#8D7BDC;stroke-width:5.1562;stroke-linecap:round;stroke-miterlimit:10;}
	.st9{fill:#3AC6C5;}
	.st10{fill:none;stroke:#3AC6C5;stroke-width:10.3124;stroke-miterlimit:10;}
	.st11{fill:none;stroke:#3AC6C5;stroke-width:5.5012;stroke-miterlimit:10;}
	.st12{fill:#E65D63;}
	.st13{fill:none;stroke:#312164;stroke-width:5.6821;stroke-miterlimit:10;}
	.st14{fill:none;stroke:#3AC6C5;stroke-width:7.4282;stroke-miterlimit:10;}
	.st15{fill:none;stroke:#FAC247;stroke-width:5.2347;stroke-linecap:round;stroke-miterlimit:10;}
	.st16{fill:none;stroke:#8D7BDC;stroke-width:10.1117;stroke-linecap:round;stroke-miterlimit:10;}
	.st17{fill:none;stroke:#312164;stroke-width:10.1117;stroke-miterlimit:10;}
	.st18{fill:#5A3568;}
	.st19{fill:#947CDF;}
	.st20{fill:none;stroke:#FAC247;stroke-width:5.0559;stroke-linecap:round;stroke-miterlimit:10;}
	.st21{fill:none;stroke:#3AC6C5;stroke-width:5.0559;stroke-linecap:round;stroke-miterlimit:10;}
	.st22{fill:none;stroke:#312164;stroke-width:10.1117;stroke-linecap:round;stroke-miterlimit:10;}
	.st23{fill:none;stroke:#FAC247;stroke-width:14.2586;stroke-linecap:round;stroke-miterlimit:10;}
	.st24{fill:none;stroke:#8D7BDC;stroke-width:9.5057;stroke-linecap:round;stroke-miterlimit:10;}
	.st25{fill:none;stroke:#3AC6C5;stroke-width:7.0607;stroke-miterlimit:10;}
	.st26{fill:none;stroke:#8D7BDC;stroke-width:5.3025;stroke-linecap:round;stroke-miterlimit:10;}
	.st27{fill:none;stroke:#DB6466;stroke-width:8.9341;stroke-linecap:round;stroke-miterlimit:10;}
	.st28{fill:none;stroke:#3AC6C5;stroke-width:5.3025;stroke-miterlimit:10;}
	.st29{fill:none;stroke:#3AC6C5;stroke-width:10.605;stroke-miterlimit:10;}
	.st30{fill:none;stroke:#8D7BDC;stroke-width:14.9337;stroke-miterlimit:10;stroke-dasharray:84.0842,84.0842;}
	.st31{fill:none;stroke:#FAC247;stroke-width:14.9337;stroke-miterlimit:10;stroke-dasharray:84.0842,84.0842;}
	.st32{fill:#FFFFFF;}
	.st33{fill:#F0C5E6;}
	.st34{fill:#312662;}
	.st35{fill:none;stroke:#FDCFEB;stroke-width:2.9754;stroke-linecap:round;stroke-miterlimit:10;}
	.st36{fill:#F4F0FB;}
	.st37{fill:#FDDF99;}
	.st38{fill:#9180C5;}
	.st39{fill:none;stroke:#312164;stroke-width:0.9173;stroke-miterlimit:10;}
</style>
<g>
	<path class="st26" d="M260.29,825.34c0,0,30.8,54.55,109.97,62.74"/>
	<path class="st27" d="M498.99,63.91c26.58,21.58,50.2,36.34,91.16-10.24s56.09-40.11,78.99-20.85s33.2,45.16,95.59,37.83"/>
	<circle class="st9" cx="186.16" cy="730.7" r="20.31"/>
	<circle class="st9" cx="186.16" cy="727.97" r="20.31"/>
	<circle class="st28" cx="101.25" cy="661.04" r="39.26"/>
	<circle class="st4" cx="1047.81" cy="654.36" r="12.76"/>
	<path class="st29" d="M1130.92,205.71c22.55,10.46,54.56,37.82,23.5,66.06c-31.06,28.23-1.27,44.91,11.24,52.76
		c12.52,7.85,18.05,35.93-4.98,49.28c-23.03,13.35-17.94,52.33-17.94,52.33"/>
	<path class="st5" d="M1049.31,199.86c-0.99-44.95-37.45-81.02-82.41-81.51l-455.5-5.04c-24.33-0.27-47.57,10.11-63.61,28.41
		L305.56,304.04c-27.73,31.64-27.53,78.99,0.47,110.39l124.39,139.54c15.81,17.74,38.45,27.89,62.22,27.89h479.87
		c46.75,0,84.36-38.44,83.33-85.18L1049.31,199.86z M382.83,390.36c-17.55,0-31.77-14.23-31.77-31.77
		c0-17.55,14.23-31.77,31.77-31.77c17.55,0,31.77,14.23,31.77,31.77C414.61,376.14,400.38,390.36,382.83,390.36z"/>
	<g>
		<path class="st30" d="M492.63,559.46c-17.35,0-33.94-7.43-45.49-20.4L322.75,399.53c-20.43-22.93-20.58-57.63-0.34-80.73
			l142.24-162.32c11.57-13.21,28.28-20.78,45.84-20.78l456.17,5.04c33.06,0.36,59.54,26.55,60.27,59.61l6.52,296.82
			c0.36,16.53-5.8,32.14-17.37,43.96c-11.56,11.82-27.03,18.33-43.57,18.33H492.63z"/>
	</g>
	<g>
		<g>
			<path class="st2" d="M246.69,379.52c-1.3-0.15-2.6-0.32-3.9-0.49c0.99,0.13,1.98,0.27,2.98,0.4
				c-23.04-3.16-45.44-9.87-66.85-18.87c0.89,0.38,1.78,0.75,2.68,1.13c-19.13-8.09-37.66-17.84-54.91-29.43
				c-4.73-3.18-9.36-6.51-13.87-9.99c0.76,0.58,1.51,1.17,2.27,1.75c-13.88-10.75-26.59-22.98-37.38-36.85
				c0.58,0.76,1.17,1.51,1.75,2.27c-10.43-13.51-18.91-28.4-25.58-44.1c0.38,0.89,0.75,1.78,1.13,2.68
				c-9.01-21.36-14.65-43.98-17.76-66.92c0.13,0.99,0.27,1.98,0.4,2.98c-1.57-11.71-2.49-23.5-2.82-35.31
				c-0.34-12.29-0.08-24.62,1.54-36.83c-0.13,0.99-0.27,1.98-0.4,2.98c1.46-10.68,3.99-21.19,8.16-31.15
				c-0.38,0.89-0.75,1.78-1.13,2.68c2.92-6.84,6.57-13.29,11.12-19.19c-0.58,0.76-1.17,1.51-1.75,2.27
				c4.51-5.77,9.73-10.92,15.5-15.41c-0.76,0.58-1.51,1.17-2.27,1.75c6.59-5.07,13.8-9.23,21.46-12.46
				c-0.89,0.38-1.78,0.75-2.68,1.13c7.98-3.32,16.35-5.61,24.92-6.77c-0.99,0.13-1.98,0.27-2.98,0.4c8.06-1.05,16.21-1.1,24.27-0.03
				c-0.99-0.13-1.98-0.27-2.98-0.4c7.27,1,14.36,2.9,21.13,5.74c-0.89-0.38-1.78-0.75-2.68-1.13c7.37,3.15,14.26,7.27,20.61,12.15
				c-0.76-0.58-1.51-1.17-2.27-1.75c7.95,6.16,14.96,13.42,21.11,21.37c-0.58-0.76-1.17-1.51-1.75-2.27
				c8.8,11.46,15.81,24.18,21.43,37.47c-0.38-0.89-0.75-1.78-1.13-2.68c12.37,29.48,17.76,61.22,25.7,92.02
				c7.27,28.17,17.11,56.59,34.58,80.2c9.94,13.43,21.77,25.16,36.15,33.8c5.03,3.02,12.52,1.29,15.32-4.02
				c2.86-5.42,1.35-12.1-4.02-15.32c-3.48-2.09-6.83-4.38-10.04-6.86c0.76,0.58,1.51,1.17,2.27,1.75
				c-7.68-6-14.46-13.02-20.43-20.71c0.58,0.76,1.17,1.51,1.75,2.27c-8.77-11.41-15.7-24.1-21.32-37.33
				c0.38,0.89,0.75,1.78,1.13,2.68c-11.44-27.12-16.98-56.16-23.96-84.62c-6.76-27.54-15.23-55.16-30.6-79.25
				c-14.44-22.64-34.55-41.87-60.17-51.03c-22.07-7.89-47.6-6.74-69.36,1.64c-22.86,8.8-43.08,24.78-54.42,46.82
				c-13.87,26.95-15.44,58.15-13.95,87.87c1.4,28.09,5.93,56.34,15.14,82.98c9.45,27.35,23.59,52.74,43.03,74.26
				c18.89,20.92,42.22,37.82,66.82,51.41c26.57,14.68,55.26,26.51,85.01,32.85c7.92,1.69,15.93,2.92,23.97,3.88
				c2.65,0.31,6.12-1.48,7.92-3.28c1.94-1.94,3.41-5.13,3.28-7.92c-0.13-2.9-1.08-5.9-3.28-7.92
				C252.28,380.66,249.81,379.89,246.69,379.52L246.69,379.52z"/>
		</g>
	</g>
	<g>
		<g>
			<path class="st2" d="M373.67,342.71c-3.4,3.26-6.97,6.33-10.69,9.22c0.76-0.58,1.51-1.17,2.27-1.75
				c-10,7.72-21.03,14.03-32.66,18.96c0.89-0.38,1.78-0.75,2.68-1.13c-13.85,5.83-28.47,9.68-43.35,11.71
				c0.99-0.13,1.98-0.27,2.98-0.4c-16,2.14-32.19,2.07-48.21,0.21c-2.66-0.31-6.11,1.47-7.92,3.28c-1.94,1.94-3.41,5.13-3.28,7.92
				c0.13,2.9,1.08,5.9,3.28,7.92c0.76,0.58,1.51,1.17,2.27,1.75c1.75,1.01,3.63,1.52,5.65,1.53c20.76,2.41,41.71,1.64,62.21-2.45
				c18.86-3.76,37.35-10.66,53.86-20.55c9.61-5.76,18.66-12.63,26.74-20.38c2.05-1.96,3.28-5.11,3.28-7.92
				c0-2.75-1.22-6.03-3.28-7.92C384.96,338.53,378.19,338.37,373.67,342.71L373.67,342.71z"/>
		</g>
	</g>
	<path class="st3" d="M971.68,656.43c16.29-41.91-3.6-89.18-44.95-106.84L507.83,370.64c-22.38-9.56-47.82-8.86-69.64,1.91
		L244.66,468.1c-37.73,18.62-55.66,62.44-41.81,102.17l61.53,176.52c7.82,22.44,24.85,40.48,46.81,49.57l443.35,183.61
		c43.19,17.89,92.65-3.24,109.58-46.81L971.68,656.43z M283.03,577.42c-16.21-6.71-23.91-25.3-17.2-41.51
		c6.71-16.21,25.3-23.91,41.51-17.2c16.21,6.71,23.91,25.3,17.2,41.51C317.83,576.43,299.24,584.13,283.03,577.42z"/>
	<g>
		<path class="st31" d="M319.77,775.66c-16.03-6.64-28.51-19.85-34.23-36.25L224.01,562.9c-10.1-29,3.04-61.12,30.57-74.72
			l193.53-95.54c15.74-7.77,34.08-8.38,50.3-1.66l419.53,179.2c30.41,12.99,44.85,47.31,32.87,78.13L843.25,925.05
			c-5.99,15.41-17.66,27.48-32.87,33.97c-15.2,6.5-31.99,6.59-47.27,0.26L319.77,775.66z"/>
	</g>
	<g>
		<g>
			<path class="st5" d="M294.1,529.43c-10.17,3.95-20.76,6.62-31.57,8.1c0.99-0.13,1.98-0.27,2.98-0.4
				c-14.01,1.86-28.2,1.72-42.21-0.13c0.99,0.13,1.98,0.27,2.98,0.4c-9.98-1.36-19.83-3.56-29.45-6.57c-4.8-1.5-9.53-3.21-14.18-5.1
				c-0.61-0.25-1.21-0.52-1.83-0.76c2.84,1.09,1.52,0.65,0.89,0.37c-1.18-0.52-2.37-1.03-3.55-1.57c-2.16-0.98-4.29-2-6.41-3.05
				c-8.47-4.21-16.66-9-24.52-14.27c-3.94-2.64-7.8-5.39-11.58-8.25c-0.43-0.33-0.86-0.65-1.29-0.98c-1.22-0.93,2.26,1.78,0.47,0.37
				c-0.85-0.67-1.7-1.33-2.54-2.01c-2.02-1.62-4.02-3.27-6-4.95c-14.48-12.28-27.71-26.02-39.78-40.66c-1.48-1.8-2.95-3.61-4.4-5.45
				c-0.41-0.52-0.82-1.05-1.24-1.57c-1.15-1.46,0.41,0.53,0.52,0.69c-0.84-1.17-1.76-2.3-2.62-3.45c-2.87-3.83-5.64-7.72-8.32-11.68
				c-5.46-8.09-10.5-16.47-14.98-25.14c-2.55-4.92-4.76-9.97-7.06-15c1.29,2.82,0.53,1.25,0.24,0.53c-0.29-0.72-0.58-1.43-0.87-2.15
				c-0.49-1.23-0.97-2.47-1.43-3.71c-0.93-2.48-1.81-4.99-2.64-7.51c-3.59-10.95-6.11-22.21-7.66-33.63
				c0.13,0.99,0.27,1.98,0.4,2.98c-2.59-19.73-2.22-39.71,0.4-59.42c-0.13,0.99-0.27,1.98-0.4,2.98c1.9-14.03,4.89-27.89,8.81-41.49
				c1.96-6.8,4.14-13.54,6.52-20.2c1.18-3.3,2.41-6.58,3.69-9.85c0.58-1.49,1.18-2.98,1.79-4.47c0.28-0.69,0.55-1.4,0.86-2.08
				c-0.06,0.14-1.11,2.6-0.38,0.9c0.17-0.39,0.34-0.79,0.51-1.18c5.09-11.77,11.06-23.24,18.66-33.59c0.5-0.68,0.99-1.39,1.53-2.03
				c0.08-0.09-1.54,1.95-0.78,1.01c0.27-0.33,0.53-0.66,0.79-0.99c1-1.23,2.02-2.45,3.07-3.64c2.1-2.38,4.3-4.67,6.61-6.84
				c1.16-1.09,2.35-2.15,3.56-3.18c0.57-0.48,1.14-0.96,1.72-1.43c0.26-0.21,0.61-0.43,0.84-0.67c-0.13,0.14-2.19,1.66-1,0.78
				c2.14-1.58,4.33-3.09,6.6-4.47c2.57-1.56,5.22-2.98,7.94-4.25c0.64-0.3,1.28-0.58,1.93-0.87c1.57-0.71-1.21,0.5-1.22,0.51
				c0.38-0.21,0.82-0.34,1.23-0.5c1.39-0.56,2.8-1.08,4.22-1.56c5.7-1.94,11.58-3.29,17.55-4.1c-0.99,0.13-1.98,0.27-2.98,0.4
				c8.65-1.13,17.39-1.12,26.04,0.03c-0.99-0.13-1.98-0.27-2.98-0.4c7.91,1.09,15.68,3.09,23.09,6.09c0.78,0.32,2.57,1.25-0.72-0.31
				c0.32,0.15,0.65,0.28,0.97,0.43c0.97,0.43,1.93,0.88,2.88,1.35c1.74,0.85,3.46,1.76,5.14,2.73c1.68,0.97,3.33,1.99,4.95,3.07
				c0.73,0.49,1.46,0.99,2.18,1.51c0.43,0.31,0.86,0.62,1.28,0.94c0.28,0.21,0.57,0.42,0.85,0.64c-1.49-1.16-1.9-1.47-1.22-0.94
				c3.13,2.53,6.11,5.21,8.86,8.15c1.45,1.54,2.84,3.14,4.17,4.78c0.31,0.39,0.61,0.8,0.94,1.17c-2.23-2.49-0.78-1.01-0.29-0.36
				c0.72,0.96,1.42,1.94,2.1,2.92c2.49,3.61,4.73,7.4,6.73,11.3c1,1.96,1.94,3.95,2.82,5.96c0.31,0.71,1.08,2.8-0.19-0.46
				c0.14,0.37,0.3,0.74,0.45,1.11c0.52,1.3,1.02,2.62,1.5,3.94c3.45,9.56,5.7,19.52,7.06,29.58c-0.13-0.99-0.27-1.98-0.4-2.98
				c2.79,21.15,1.41,42.41-1.4,63.48c0.13-0.99,0.27-1.98,0.4-2.98c-3.67,27.24-9.44,54.22-11.6,81.66
				c-1.83,23.35-0.68,47.57,6.19,70.08c3.9,12.76,9.64,25.13,17.59,35.88c1.79,2.43,3.67,4.32,6.69,5.15
				c2.68,0.74,6.25,0.4,8.63-1.13c4.65-3,7.74-10.29,4.02-15.32c-2.99-4.04-5.68-8.29-8.05-12.72c-1.17-2.2-2.27-4.45-3.29-6.73
				c-0.25-0.57-0.49-1.15-0.75-1.72c1.42,3.17,0.44,1.04,0.17,0.37c-0.47-1.16-0.91-2.33-1.34-3.5c-3.46-9.48-5.69-19.37-7.04-29.37
				c0.13,0.99,0.27,1.98,0.4,2.98c-2.83-21.5-1.45-43.15,1.42-64.57c-0.13,0.99-0.27,1.98-0.4,2.98
				c4.68-34.52,13-68.99,12.29-104.01c-0.6-29.49-7.33-60.59-25.59-84.42c-8.77-11.44-19.46-21.06-32.33-27.69
				c-12.67-6.53-26.28-10.24-40.44-11.53c-27.51-2.5-55.49,6.25-76.15,24.64c-11.63,10.35-20.82,23.51-28.06,37.22
				c-7.6,14.38-13.59,29.73-18.69,45.17c-10.5,31.82-16.57,65.79-14.89,99.37c0.85,16.94,3.56,33.92,8.57,50.14
				c4.81,15.59,11.56,30.66,19.63,44.82c8.07,14.16,17.58,27.44,27.82,40.1c9.57,11.84,19.91,23.09,31.01,33.52
				c23.26,21.84,49.85,39.97,79.66,51.58c31.13,12.13,65.81,15.88,98.63,9.2c7.57-1.54,14.99-3.72,22.19-6.52
				c2.8-1.09,5.12-2.46,6.69-5.15c1.4-2.4,2-5.94,1.13-8.63C306.17,531.96,299.95,527.16,294.1,529.43L294.1,529.43z"/>
		</g>
	</g>
	<g>
		<g>
			<path class="st32" d="M600.43,360.08c-4.36,6.23-9.55,9.19-15.63,8.87l-5.01-0.26c-2.59-0.14-4.53-0.87-5.63-2.09
				c-1.1-1.22-1.62-3.23-1.49-5.82l2.56-48.49c0.14-2.59,0.87-4.53,2.09-5.63c1.23-1.1,3.23-1.62,5.82-1.49l5.37,0.28
				c3.58,0.19,6.75,1.34,9.41,3.55c2.66,2.2,4.76,4.92,6.12,8.22c1.34,3.39,2.33,6.85,2.95,10.38c0.62,3.62,0.79,7.22,0.6,10.71
				C607.15,346.62,604.79,353.94,600.43,360.08z M595.99,321.9c-1.66-4.3-4.32-6.6-7.99-6.79l-0.89-0.05
				c-1.52-0.08-2.37,0.68-2.45,2.2l-2.09,39.54c-0.08,1.52,0.68,2.37,2.2,2.45l0.89,0.05c3.67,0.19,6.55-1.72,8.65-5.82
				c2.1-4.02,3.27-9.25,3.61-15.69C598.25,331.62,597.64,326.29,595.99,321.9z"/>
			<path class="st32" d="M667.04,313.54l12.32,53.76c0.29,1.36,0.23,2.52-0.19,3.58c-0.5,1.05-1.17,1.73-2,2.14
				c-0.92,0.4-1.83,0.62-2.82,0.66c-0.99,0.03-1.96-0.37-2.81-1.14c-0.95-0.77-1.52-1.78-1.81-3.14l-2.9-12.98
				c-0.37-1.55-1.13-2.3-2.48-2.37l-8.32-0.44c-1.52-0.08-2.45,0.59-2.98,2.09l-4.25,12.6c-0.43,1.32-1.11,2.27-2.04,2.94
				c-1.02,0.66-1.94,0.97-2.92,0.83c-0.98-0.14-1.95-0.46-2.73-0.95c-0.87-0.49-1.46-1.24-1.76-2.34c-0.39-1.1-0.33-2.26,0.1-3.58
				l18.09-52.16c0.94-2.55,2.62-3.81,4.86-3.69C664.83,309.48,666.37,310.9,667.04,313.54z M657.2,343.61
				c-0.33,1.15-0.1,1.79,0.89,1.84l4.83,0.25c0.98,0.05,1.38-0.56,1.17-1.73l-1.89-10.15c-0.06-0.63-0.4-1.01-0.93-1.04
				c-0.63-0.03-1,0.31-1.13,0.93L657.2,343.61z"/>
			<path class="st32" d="M744.22,315.01c1.03-0.84,2.13-1.23,3.38-1.17c1.25,0.07,2.39,0.58,3.33,1.52
				c0.94,0.95,1.32,2.22,1.23,3.92l-2.84,53.86c-0.09,1.7-0.69,2.92-1.9,3.67c-1.21,0.74-2.55,0.76-3.96,0.24
				c-1.5-0.53-2.52-1.48-3.17-2.86l-12.87-31.54c-0.23-0.64-0.58-0.93-1.12-0.87c-0.54,0.06-0.83,0.5-0.88,1.3l-1.48,28
				c-0.09,1.7-0.6,2.93-1.64,3.77c-1.03,0.84-2.22,1.23-3.47,1.16c-1.25-0.07-2.3-0.57-3.24-1.52c-0.94-0.95-1.41-2.23-1.32-3.93
				l2.84-53.86c0.09-1.7,0.78-2.92,1.99-3.67c1.21-0.74,2.47-0.86,3.96-0.33c1.41,0.52,2.43,1.56,3.08,2.94l12.78,31.54
				c0.16,0.37,0.41,0.65,0.77,0.76c0.26,0.19,0.61,0.21,0.9-0.04c0.28-0.16,0.38-0.52,0.41-1.06l1.48-28.09
				C742.58,317.08,743.19,315.85,744.22,315.01z"/>
			<path class="st32" d="M804.18,328.22c0.62-1.58,0.04-2.42-1.75-2.51l-7.34-0.39c-1.52-0.08-2.75-0.6-3.51-1.53
				c-0.76-0.94-1.15-2.03-1.09-3.2c0.07-1.25,0.57-2.3,1.42-3.15c0.85-0.76,2.12-1.14,3.65-1.06l15.48,0.82
				c2.33,0.12,3.99,0.93,4.89,2.5c0.9,1.57,0.89,3.55-0.03,5.74l-19.05,43.13c-0.72,1.67-0.41,2.58,1.11,2.66l14.67,0.78
				c1.52,0.08,2.75,0.59,3.51,1.44c0.76,0.94,1.15,2.03,1.08,3.29c-0.07,1.34-0.57,2.39-1.42,3.15c-0.94,0.76-2.12,1.14-3.64,1.06
				l-22.55-1.19c-2.41-0.13-4.17-0.94-5.08-2.33c-1-1.4-0.9-3.37,0.22-5.91L804.18,328.22z"/>
			<path class="st32" d="M878.03,324.67l12.33,53.76c0.29,1.36,0.23,2.52-0.19,3.58c-0.5,1.05-1.17,1.73-2,2.14
				c-0.92,0.4-1.83,0.62-2.82,0.66c-0.99,0.03-1.96-0.37-2.81-1.14c-0.95-0.77-1.52-1.78-1.81-3.15l-2.9-12.98
				c-0.37-1.55-1.14-2.3-2.47-2.37l-8.32-0.44c-1.52-0.08-2.45,0.59-2.98,2.09l-4.25,12.6c-0.43,1.32-1.11,2.27-2.04,2.94
				c-1.02,0.67-1.93,0.98-2.91,0.84c-0.98-0.14-1.95-0.46-2.73-0.95c-0.87-0.49-1.46-1.24-1.76-2.34c-0.39-1.1-0.33-2.26,0.1-3.58
				l18.09-52.16c0.94-2.55,2.62-3.81,4.86-3.69C875.82,320.61,877.36,322.03,878.03,324.67z M868.19,354.74
				c-0.33,1.15-0.1,1.79,0.89,1.84l4.83,0.26c0.98,0.05,1.38-0.56,1.17-1.73l-1.89-10.15c-0.06-0.63-0.4-1.01-0.93-1.04
				c-0.63-0.03-1,0.31-1.13,0.93L868.19,354.74z"/>
		</g>
	</g>
	<g>
		<g>
			<path class="st2" d="M455.1,529.32l-6.21,45.2c-0.17,1.14-0.56,2.02-1.19,2.71c-0.7,0.67-1.41,1-2.17,1.07
				c-0.83,0.04-1.6-0.05-2.37-0.32s-1.4-0.86-1.84-1.7c-0.51-0.87-0.65-1.83-0.48-2.96l1.56-10.89c0.17-1.3-0.2-2.12-1.22-2.56
				l-6.31-2.78c-1.15-0.51-2.07-0.26-2.92,0.74l-6.98,8.51c-0.72,0.9-1.52,1.43-2.44,1.68c-0.98,0.22-1.78,0.19-2.5-0.21
				c-0.72-0.4-1.37-0.93-1.83-1.54c-0.53-0.64-0.76-1.39-0.68-2.32c0.02-0.96,0.41-1.85,1.13-2.74l29.27-35.05
				c1.48-1.7,3.15-2.18,4.84-1.43C454.59,525.53,455.36,527.08,455.1,529.32z M438.68,549.7c-0.59,0.79-0.6,1.36,0.15,1.69
				l3.66,1.61c0.75,0.33,1.23-0.03,1.41-1l1.51-8.4c0.14-0.5-0.01-0.9-0.42-1.08c-0.47-0.21-0.87-0.06-1.14,0.39L438.68,549.7z"/>
			<path class="st2" d="M479.77,592.89c-1.04,0.35-2.07,0.3-3.03-0.12c-0.95-0.42-1.61-1.11-2.06-2.12
				c-0.45-1.01-0.44-2.14,0.13-3.42l16.96-38.53c0.87-1.97,2-3.25,3.27-3.75c1.27-0.49,2.97-0.31,4.94,0.55l4.34,1.91
				c3.73,1.64,6.02,4.35,6.83,8.03c0.81,3.68,0.31,7.58-1.46,11.59c-2,4.55-4.78,7.37-8.22,8.37c-0.88,0.34-1.35,0.86-1.41,1.73
				L498,595.81c-0.08,1.83-0.88,3.1-2.24,3.79c-1.36,0.7-2.69,0.6-3.93-0.27c-1.34-0.83-1.87-2.2-1.79-4.03l2.11-18.59
				c0.06-0.87-0.17-1.45-0.71-1.69l-0.81-0.36c-0.88-0.39-1.56,0.04-2.09,1.26l-6.39,14.52
				C481.57,591.74,480.81,592.54,479.77,592.89z M494.79,569.05c1.56,0.69,3.15,0.58,4.63-0.39c1.45-0.9,2.7-2.46,3.62-4.56
				c0.93-2.1,1.2-4.01,0.91-5.75c-0.32-1.68-1.3-2.92-2.87-3.61l-0.95-0.42c-1.15-0.51-2.03-0.17-2.54,0.99l-4.75,10.79
				c-0.51,1.15-0.17,2.03,0.99,2.54L494.79,569.05z"/>
			<path class="st2" d="M562.46,573c1.7,0.75,2.58,1.86,2.79,3.41c0.14,1.52-0.4,2.74-1.61,3.66c-1.28,0.89-2.7,0.99-4.4,0.25
				l-3.32-1.46c-1.15-0.51-2-0.23-2.51,0.92l-15.46,35.14c-0.75,1.69-1.86,2.58-3.31,2.75c-1.55,0.21-2.77-0.33-3.66-1.61
				c-0.92-1.22-1.03-2.64-0.28-4.33l15.46-35.14c0.51-1.15,0.2-1.94-0.95-2.44l-3.32-1.46c-1.69-0.75-2.58-1.86-2.72-3.38
				c-0.21-1.55,0.33-2.77,1.61-3.66c1.21-0.92,2.64-1.02,4.33-0.28L562.46,573z"/>
			<path class="st2" d="M594.28,637.04c0.35,1.05,0.3,2.08-0.12,3.03c-0.42,0.95-1.11,1.62-2.12,2.06
				c-1.01,0.45-2.14,0.44-3.42-0.13l-11.94-5.25c-1.97-0.87-3.25-2-3.74-3.27c-0.49-1.27-0.31-2.97,0.55-4.94l16.18-36.77
				c0.87-1.97,2-3.25,3.27-3.74c1.27-0.49,2.97-0.31,4.94,0.55l11.94,5.25c1.29,0.57,2.09,1.33,2.44,2.37
				c0.35,1.04,0.3,2.07-0.12,3.02s-1.11,1.62-2.12,2.06c-1.01,0.45-2.14,0.44-3.42-0.13l-8.55-3.76c-1.15-0.51-2.03-0.17-2.54,0.99
				l-3.55,8.07c-0.51,1.15-0.17,2.03,0.99,2.54l5.29,2.33c1.22,0.54,1.98,1.2,2.33,2.07c0.27,0.85,0.22,1.71-0.17,2.6
				c-0.39,0.88-0.96,1.44-1.77,1.81c-0.88,0.34-1.91,0.29-3.13-0.25l-5.29-2.33c-1.15-0.51-2.03-0.17-2.54,0.99l-5.34,12.14
				c-0.51,1.15-0.17,2.03,0.99,2.54l8.55,3.76C593.13,635.24,593.93,636,594.28,637.04z"/>
			<path class="st2" d="M659.53,620.9c0.25,1.08,0.23,2.05-0.09,2.96c-0.32,0.91-0.85,1.57-1.57,1.9c-0.74,0.4-1.47,0.57-2.22,0.64
				c-0.83,0.04-1.57-0.29-2.27-0.92c-0.79-0.59-1.3-1.46-1.55-2.55c-0.44-1.57-1.36-2.62-2.71-3.22c-1.43-0.63-2.79-0.66-3.98,0.03
				c-1.2,0.69-2.17,1.8-2.8,3.22c-0.72,1.63-0.73,3.32-0.01,5.18c0.66,1.83,1.67,3.57,3.05,5.23c1.34,1.72,2.66,3.52,3.95,5.38
				c1.26,1.93,2.09,4.08,2.51,6.61c0.36,2.5-0.05,5.08-1.24,7.79c-1.76,4-4.48,6.69-8.16,8.07c-3.75,1.34-7.64,1.17-11.64-0.59
				c-2.78-1.22-4.99-2.84-6.58-4.92c-1.63-2.01-2.59-4.05-2.79-6.17c-0.2-2.68,0.65-4.41,2.53-5.2c1.59-0.68,3-0.38,4.22,0.89
				c0.66,0.7,1.11,1.54,1.26,2.66c0.38,2.44,1.93,4.25,4.58,5.42c1.9,0.84,3.73,0.91,5.49,0.23c1.73-0.62,3-1.84,3.77-3.6
				c0.81-1.83,0.85-3.59,0.2-5.42c-0.72-1.86-1.74-3.6-3.11-5.26c-1.38-1.66-2.72-3.38-4.04-5.18c-1.32-1.79-2.18-3.87-2.6-6.24
				c-0.48-2.4-0.08-4.97,1.08-7.62c1.58-3.6,4.01-6.17,7.32-7.79c3.21-1.58,6.62-1.62,10.22-0.04
				C655.94,613.97,658.33,616.81,659.53,620.9z"/>
			<path class="st2" d="M402.25,656.41c1.35,0.43,2.26,1.31,2.62,2.69c0.36,1.38-0.1,2.79-1.39,4.08c-4.3,3.7-8.87,4.52-13.69,2.4
				c-3.19-1.4-5.33-3.72-6.45-6.88c-1.19-3.19-1.46-6.8-0.76-10.78c0.6-3.95,1.92-8.23,3.98-12.91c3.19-7.26,6.91-12.59,11.29-16.08
				c4.31-3.53,8.75-4.25,13.43-2.19c4.75,2.09,7.23,6.02,7.48,11.71c-0.05,1.03-0.34,1.87-0.8,2.56c-0.56,0.73-1.17,1.19-1.99,1.39
				c-0.82,0.21-1.62,0.18-2.36,0.02c-0.83-0.12-1.45-0.56-2.02-1.29c-0.6-0.67-0.84-1.58-0.79-2.62c-0.35-2.34-1.32-3.82-2.74-4.44
				c-1.9-0.84-4.15,0.04-6.78,2.52c-2.66,2.55-5.09,6.42-7.39,11.65c-5.02,11.4-5.28,18.08-0.87,20.02c1.49,0.66,3.17,0.34,5.1-0.91
				C399.46,656.32,400.8,656.02,402.25,656.41z"/>
			<path class="st2" d="M436.45,681.02c-0.57,1.29-1.33,2.09-2.37,2.44c-1.04,0.35-2.08,0.3-3.03-0.12
				c-0.95-0.42-1.61-1.11-2.06-2.12c-0.45-1.01-0.44-2.14,0.13-3.42l17.73-40.29c0.57-1.29,1.39-2.06,2.44-2.41
				c1.04-0.35,2.01-0.33,2.96,0.09c0.95,0.42,1.68,1.14,2.13,2.15c0.45,1.01,0.37,2.11-0.2,3.4L436.45,681.02z"/>
			<path class="st2" d="M469.36,698.98c-1.05,0.35-2.08,0.3-3.03-0.12c-0.95-0.42-1.61-1.11-2.06-2.12
				c-0.45-1.01-0.44-2.14,0.13-3.42l16.96-38.53c0.86-1.97,2-3.25,3.27-3.75c1.27-0.49,2.97-0.31,4.94,0.55l4.34,1.91
				c3.73,1.64,6.02,4.35,6.83,8.03c0.81,3.68,0.31,7.58-1.46,11.59c-2,4.54-4.78,7.37-8.22,8.37c-0.88,0.34-1.35,0.86-1.41,1.73
				l-2.07,18.69c-0.08,1.83-0.88,3.1-2.24,3.79c-1.36,0.7-2.69,0.6-3.93-0.27c-1.34-0.83-1.87-2.2-1.79-4.03l2.11-18.59
				c0.06-0.86-0.17-1.45-0.71-1.69l-0.81-0.36c-0.88-0.39-1.56,0.04-2.09,1.26l-6.39,14.52
				C471.16,697.83,470.41,698.63,469.36,698.98z M484.39,675.15c1.56,0.69,3.15,0.58,4.63-0.39c1.45-0.9,2.7-2.46,3.63-4.56
				c0.93-2.1,1.2-4.01,0.91-5.75c-0.32-1.68-1.3-2.92-2.86-3.61l-0.95-0.42c-1.15-0.51-2.03-0.17-2.54,0.99l-4.75,10.79
				c-0.51,1.15-0.17,2.03,0.99,2.54L484.39,675.15z"/>
			<path class="st2" d="M536.92,715.68c1.35,0.43,2.26,1.32,2.62,2.69c0.36,1.38-0.1,2.79-1.39,4.08c-4.3,3.7-8.87,4.52-13.69,2.4
				c-3.19-1.4-5.33-3.72-6.45-6.88c-1.18-3.19-1.46-6.8-0.76-10.78c0.6-3.95,1.92-8.23,3.98-12.9c3.19-7.26,6.91-12.59,11.29-16.09
				c4.31-3.53,8.75-4.25,13.43-2.19c4.75,2.09,7.23,6.02,7.48,11.71c-0.05,1.03-0.34,1.87-0.8,2.56c-0.56,0.72-1.17,1.19-1.99,1.39
				c-0.82,0.21-1.62,0.18-2.36,0.02c-0.83-0.13-1.45-0.56-2.02-1.29c-0.6-0.67-0.84-1.59-0.79-2.62c-0.35-2.34-1.32-3.82-2.74-4.45
				c-1.9-0.83-4.15,0.04-6.78,2.52c-2.66,2.55-5.09,6.42-7.39,11.64c-5.02,11.4-5.28,18.08-0.87,20.02c1.49,0.66,3.17,0.34,5.1-0.91
				C534.13,715.58,535.48,715.28,536.92,715.68z"/>
			<path class="st2" d="M585.36,743.8c0.35,1.04,0.3,2.07-0.12,3.03c-0.42,0.95-1.11,1.61-2.12,2.06c-1.01,0.45-2.13,0.44-3.42-0.13
				l-11.94-5.25c-1.97-0.87-3.25-2-3.74-3.27c-0.49-1.27-0.31-2.97,0.55-4.94l16.18-36.77c0.86-1.97,2-3.25,3.27-3.74
				c1.27-0.49,2.97-0.31,4.94,0.55l11.94,5.26c1.29,0.57,2.09,1.32,2.44,2.37c0.35,1.04,0.3,2.08-0.12,3.02
				c-0.42,0.95-1.11,1.62-2.12,2.06c-1.01,0.45-2.13,0.44-3.42-0.13l-8.55-3.76c-1.15-0.51-2.03-0.17-2.54,0.99l-3.55,8.07
				c-0.51,1.15-0.17,2.03,0.99,2.54l5.29,2.33c1.22,0.54,1.98,1.2,2.33,2.07c0.27,0.85,0.22,1.72-0.17,2.6
				c-0.39,0.88-0.96,1.44-1.77,1.81c-0.88,0.34-1.91,0.29-3.13-0.25l-5.29-2.33c-1.15-0.51-2.03-0.17-2.54,0.99l-5.34,12.14
				c-0.51,1.15-0.17,2.03,0.99,2.54l8.55,3.76C584.21,742,585.02,742.75,585.36,743.8z"/>
			<path class="st2" d="M651.67,724.15c1.05-0.35,2.01-0.33,2.96,0.09c0.95,0.42,1.68,1.14,2.13,2.15c0.45,1.01,0.37,2.11-0.2,3.39
				l-17.97,40.84c-0.57,1.29-1.39,2.06-2.54,2.28c-1.15,0.22-2.2-0.16-3.14-0.98c-1-0.85-1.52-1.88-1.61-3.14l-0.72-28.17
				c0-0.57-0.18-0.89-0.61-1s-0.79,0.14-1.06,0.75l-9.34,21.23c-0.57,1.29-1.32,2.09-2.37,2.44c-1.05,0.35-2.08,0.3-3.03-0.12
				c-0.95-0.42-1.61-1.11-2.06-2.12c-0.45-1.01-0.44-2.14,0.13-3.42l17.97-40.84c0.57-1.29,1.46-2.03,2.61-2.25
				c1.15-0.22,2.16,0.06,3.16,0.91c0.93,0.82,1.42,1.92,1.52,3.18l0.65,28.14c0.02,0.33,0.13,0.63,0.37,0.81
				c0.14,0.23,0.41,0.35,0.71,0.23c0.27-0.05,0.45-0.29,0.63-0.69l9.37-21.3C649.8,725.27,650.63,724.5,651.67,724.15z"/>
			<path class="st2" d="M704.75,751.48c0.25,1.08,0.23,2.05-0.09,2.96c-0.32,0.91-0.85,1.57-1.57,1.9c-0.74,0.4-1.47,0.57-2.22,0.64
				c-0.83,0.04-1.57-0.29-2.27-0.92c-0.79-0.59-1.3-1.46-1.55-2.55c-0.44-1.57-1.36-2.62-2.71-3.22c-1.42-0.63-2.79-0.66-3.98,0.03
				c-1.19,0.69-2.17,1.8-2.8,3.22c-0.72,1.63-0.73,3.32-0.01,5.18c0.65,1.83,1.67,3.57,3.04,5.23c1.35,1.72,2.66,3.52,3.95,5.38
				c1.26,1.93,2.09,4.08,2.51,6.61c0.36,2.5-0.05,5.08-1.24,7.79c-1.76,4-4.48,6.69-8.16,8.07c-3.75,1.34-7.64,1.17-11.64-0.59
				c-2.78-1.22-4.99-2.84-6.58-4.92c-1.63-2.01-2.59-4.05-2.79-6.17c-0.2-2.68,0.65-4.41,2.53-5.2c1.59-0.68,3-0.38,4.23,0.89
				c0.66,0.7,1.11,1.54,1.26,2.66c0.39,2.44,1.93,4.25,4.58,5.42c1.9,0.84,3.73,0.91,5.49,0.23c1.73-0.61,3-1.84,3.77-3.6
				c0.81-1.83,0.85-3.59,0.2-5.42c-0.72-1.86-1.74-3.6-3.11-5.26c-1.38-1.66-2.72-3.38-4.04-5.18c-1.31-1.79-2.18-3.88-2.59-6.24
				c-0.48-2.4-0.08-4.98,1.08-7.62c1.58-3.6,4.01-6.17,7.32-7.79c3.21-1.58,6.62-1.62,10.22-0.04
				C701.16,744.55,703.56,747.39,704.75,751.48z"/>
			<path class="st2" d="M739.51,811.63c0.35,1.04,0.3,2.08-0.12,3.03c-0.42,0.95-1.11,1.61-2.12,2.06
				c-1.01,0.45-2.14,0.44-3.43-0.13l-11.94-5.25c-1.97-0.86-3.25-2-3.74-3.27c-0.49-1.27-0.31-2.97,0.55-4.94l16.18-36.77
				c0.86-1.97,2-3.25,3.27-3.75c1.27-0.49,2.97-0.31,4.94,0.55l11.94,5.25c1.29,0.57,2.09,1.33,2.44,2.37
				c0.35,1.05,0.3,2.08-0.12,3.03c-0.42,0.95-1.11,1.61-2.12,2.06c-1.01,0.45-2.14,0.44-3.42-0.13l-8.55-3.76
				c-1.15-0.51-2.03-0.17-2.54,0.99l-3.55,8.07c-0.51,1.15-0.17,2.03,0.99,2.54l5.29,2.33c1.22,0.54,1.98,1.2,2.32,2.08
				c0.27,0.85,0.22,1.71-0.17,2.6c-0.39,0.88-0.96,1.44-1.77,1.81c-0.88,0.34-1.91,0.29-3.13-0.24l-5.29-2.33
				c-1.15-0.51-2.03-0.17-2.54,0.99l-5.34,12.14c-0.51,1.15-0.17,2.03,0.99,2.54l8.55,3.76
				C738.35,809.83,739.16,810.59,739.51,811.63z"/>
			<path class="st2" d="M804.76,795.49c0.25,1.08,0.23,2.05-0.09,2.96c-0.32,0.91-0.85,1.57-1.57,1.9c-0.74,0.4-1.47,0.57-2.23,0.64
				c-0.83,0.04-1.57-0.29-2.27-0.92c-0.79-0.59-1.3-1.46-1.55-2.55c-0.44-1.57-1.36-2.62-2.71-3.22c-1.42-0.63-2.79-0.66-3.98,0.03
				c-1.19,0.69-2.17,1.8-2.8,3.22c-0.72,1.63-0.73,3.32-0.01,5.18c0.65,1.83,1.67,3.57,3.04,5.23c1.35,1.72,2.66,3.52,3.95,5.38
				c1.26,1.93,2.09,4.08,2.51,6.61c0.36,2.5-0.05,5.08-1.24,7.79c-1.76,4-4.48,6.69-8.16,8.07c-3.75,1.35-7.64,1.17-11.64-0.59
				c-2.78-1.23-4.99-2.84-6.58-4.92c-1.63-2.01-2.59-4.05-2.79-6.17c-0.2-2.68,0.65-4.41,2.53-5.2c1.59-0.68,3-0.38,4.23,0.89
				c0.66,0.7,1.11,1.54,1.26,2.66c0.39,2.44,1.93,4.25,4.58,5.42c1.9,0.84,3.73,0.91,5.49,0.23c1.73-0.61,3-1.84,3.77-3.6
				c0.81-1.83,0.85-3.59,0.2-5.42c-0.72-1.86-1.74-3.6-3.11-5.26c-1.38-1.66-2.72-3.38-4.04-5.18c-1.32-1.79-2.18-3.88-2.6-6.24
				c-0.48-2.4-0.08-4.98,1.08-7.62c1.58-3.6,4.01-6.17,7.32-7.79c3.21-1.58,6.62-1.62,10.22-0.04
				C801.16,788.56,803.56,791.4,804.76,795.49z"/>
		</g>
	</g>
	<g>
		<g>
			<path class="st2" d="M246.69,379.52c-1.27-0.15-2.53-0.31-3.79-0.48c0.99,0.13,1.98,0.27,2.98,0.4
				c-15.2-2.07-30.14-5.69-44.7-10.5c-2.68-0.88-6.24-0.27-8.63,1.13c-2.32,1.36-4.54,4.02-5.15,6.69
				c-1.4,6.17,1.86,11.81,7.82,13.78c16.77,5.54,33.94,9.31,51.47,11.38c2.65,0.31,6.12-1.48,7.92-3.28
				c1.94-1.94,3.41-5.13,3.28-7.92c-0.13-2.9-1.08-5.9-3.28-7.92c-0.76-0.58-1.51-1.17-2.27-1.75
				C250.6,380.03,248.71,379.52,246.69,379.52L246.69,379.52z"/>
		</g>
	</g>
	<path class="st5" d="M321.78,285.53c0,0-22.22,23.03-25.23,30.92c-3,7.89,0.53,9.48,0.53,9.48l19.5-9.21L321.78,285.53z"/>
	<path class="st2" d="M260.23,460.41c0,0-27.37,12.7-30.86,17.43c-3.49,4.73,4.77,5.68,4.77,5.68l20.65-8.1l7.78-10.49
		L260.23,460.41z"/>
</g>
</svg>
