<?xml version="1.0" encoding="utf-8"?>
<!-- Generator: Adobe Illustrator 26.5.0, SVG Export Plug-In . SVG Version: 6.00 Build 0)  -->
<svg version="1.1" id="Capa_1" xmlns="http://www.w3.org/2000/svg" xmlns:xlink="http://www.w3.org/1999/xlink" x="0px" y="0px"
	 viewBox="0 0 973.92 1879.15" style="enable-background:new 0 0 973.92 1879.15;" xml:space="preserve">
<style type="text/css">
	.st0{fill:none;stroke:#312164;stroke-width:13.033;stroke-linecap:round;stroke-miterlimit:10;}
	.st1{fill:none;stroke:#FAC247;stroke-width:8.6887;stroke-linecap:round;stroke-miterlimit:10;}
	.st2{fill:#FAC247;}
	.st3{fill:#8D7BDC;}
	.st4{fill:#EB5B66;}
	.st5{fill:#312164;}
	.st6{fill:#F6F1FD;}
	.st7{fill:none;stroke:#FAC247;stroke-width:4.3443;stroke-miterlimit:10;}
	.st8{fill:none;stroke:#8D7BDC;stroke-width:5.1562;stroke-linecap:round;stroke-miterlimit:10;}
	.st9{fill:#3AC6C5;}
	.st10{fill:none;stroke:#3AC6C5;stroke-width:10.3124;stroke-miterlimit:10;}
	.st11{fill:none;stroke:#3AC6C5;stroke-width:5.5012;stroke-miterlimit:10;}
	.st12{fill:#E65D63;}
	.st13{fill:none;stroke:#312164;stroke-width:5.6821;stroke-miterlimit:10;}
	.st14{fill:none;stroke:#3AC6C5;stroke-width:7.4282;stroke-miterlimit:10;}
	.st15{fill:none;stroke:#FAC247;stroke-width:5.2347;stroke-linecap:round;stroke-miterlimit:10;}
	.st16{fill:none;stroke:#8D7BDC;stroke-width:10.1117;stroke-linecap:round;stroke-miterlimit:10;}
	.st17{fill:none;stroke:#312164;stroke-width:10.1117;stroke-miterlimit:10;}
	.st18{fill:#5A3568;}
	.st19{fill:#947CDF;}
	.st20{fill:none;stroke:#FAC247;stroke-width:5.0559;stroke-linecap:round;stroke-miterlimit:10;}
	.st21{fill:none;stroke:#3AC6C5;stroke-width:5.0559;stroke-linecap:round;stroke-miterlimit:10;}
	.st22{fill:none;stroke:#312164;stroke-width:10.1117;stroke-linecap:round;stroke-miterlimit:10;}
	.st23{fill:none;stroke:#FAC247;stroke-width:14.2586;stroke-linecap:round;stroke-miterlimit:10;}
	.st24{fill:none;stroke:#8D7BDC;stroke-width:9.5057;stroke-linecap:round;stroke-miterlimit:10;}
	.st25{fill:none;stroke:#3AC6C5;stroke-width:7.0607;stroke-miterlimit:10;}
	.st26{fill:none;stroke:#8D7BDC;stroke-width:5.3025;stroke-linecap:round;stroke-miterlimit:10;}
	.st27{fill:none;stroke:#DB6466;stroke-width:8.9341;stroke-linecap:round;stroke-miterlimit:10;}
	.st28{fill:none;stroke:#3AC6C5;stroke-width:5.3025;stroke-miterlimit:10;}
	.st29{fill:none;stroke:#3AC6C5;stroke-width:10.605;stroke-miterlimit:10;}
	.st30{fill:none;stroke:#8D7BDC;stroke-width:14.9337;stroke-miterlimit:10;stroke-dasharray:84.0842,84.0842;}
	.st31{fill:none;stroke:#FAC247;stroke-width:14.9337;stroke-miterlimit:10;stroke-dasharray:84.0842,84.0842;}
	.st32{fill:#FFFFFF;}
	.st33{fill:#F0C5E6;}
	.st34{fill:#312662;}
	.st35{fill:none;stroke:#FDCFEB;stroke-width:2.9754;stroke-linecap:round;stroke-miterlimit:10;}
	.st36{fill:#F4F0FB;}
	.st37{fill:#FDDF99;}
	.st38{fill:#9180C5;}
	.st39{fill:none;stroke:#312164;stroke-width:0.9173;stroke-miterlimit:10;}
	.st40{fill:none;stroke:#FFFFFF;stroke-width:9.0835;stroke-linecap:round;stroke-miterlimit:10;}
	.st41{clip-path:url(#SVGID_00000039831389660950227230000014868427229905285815_);}
	.st42{fill:none;stroke:#EB5B66;stroke-width:4.886;stroke-miterlimit:10;}
	.st43{clip-path:url(#SVGID_00000034791842541214859960000008330701803946070927_);}
	.st44{fill:none;stroke:#EB5B66;stroke-width:5.2565;stroke-miterlimit:10;}
	.st45{clip-path:url(#SVGID_00000026147286897475022430000008246388717225446321_);fill:#FAC247;}
	.st46{clip-path:url(#SVGID_00000026147286897475022430000008246388717225446321_);fill:#EB5B66;}
	.st47{clip-path:url(#SVGID_00000119817659162871350800000005655561894307461780_);fill:#FAC247;}
	.st48{clip-path:url(#SVGID_00000119817659162871350800000005655561894307461780_);fill:#EB5B66;}
	.st49{fill:none;stroke:#EB5B66;stroke-width:9.6685;stroke-linecap:round;stroke-miterlimit:10;}
	.st50{fill:none;stroke:#312164;stroke-width:5.0563;stroke-linecap:round;stroke-miterlimit:10;}
</style>
<path class="st2" d="M269.87,532.03c0,0,10.78-188.06,28.75-256.33c17.97-68.28,61.12-165.3,191.67-159.31
	c130.55,5.99,219.19,98.22,246.74,216.81c27.55,118.58,10.78,208.42,10.78,208.42h70.67c0,0,10.78-249.15-64.68-353.36
	S462.23-61.5,293.82,116.38c-106.59,112.6-77.86,439.6-77.86,439.6L269.87,532.03z"/>
<path class="st3" d="M752.85,472.38c0,0,0.93,21.41-3.3,30.17c29.61,3.68,72.76,10.03,72.76,10.03s-2.71-21.57-3.3-30.06
	C804.7,476.51,788.73,473.23,752.85,472.38z"/>
<path class="st3" d="M213.12,502.55c0,0-1.26-21.24,0-28.84c28.47-5.2,54.19-8.09,61.14-5.25c-0.88,11.6,0,32.46,0,32.46
	L213.12,502.55z"/>
<path class="st4" d="M877.16,518.25c-95.23-44.92-379.11-28.75-379.11-28.75s-283.88-16.17-379.11,28.75
	c-95.23,44.92-57.59,558.31-21.56,574.96c62.89,29.06,344.97,49.41,400.67,45.82c55.7,3.59,337.79-16.76,400.67-45.82
	C934.76,1076.56,972.39,563.17,877.16,518.25z"/>
<path class="st32" d="M471.4,732.66c-29.35-10.78-56.3-46.72-35.93-94.63c20.36-47.91,59.89-55.1,83.85-46.12
	c23.96,8.98,67.68,25.15,68.87,71.27c1.2,46.12-34.14,56.9-34.14,63.48c0,6.59,80.02,123.03,80.02,148.78
	c0,25.75-29.94,34.48-44.92,34.48c-14.97,0-144.94,8.39-177.28-6.59c-32.34-14.97-16.77-33.54-5.39-50.31S471.4,732.66,471.4,732.66
	z"/>
<path class="st40" d="M111.82,1077.04c0,0,176.98-80.46,477.33-76.57"/>
<circle class="st32" cx="616.44" cy="1004.15" r="6.59"/>
<path class="st40" d="M642.97,1006.86c0,0,48.98,1.6,110.8,17.92"/>
<path class="st40" d="M777.07,1031.92c0,0,42.86,7.28,102.38,33.82"/>
<g>
	<path class="st33" d="M90.89,1667.54c0.52,1.91,1.06,3.83,1.56,5.76c0.73,2.83,1.43,5.68,2.13,8.52c0.71,2.9-0.7,5.27-3.61,6
		c-7.12,1.78-14.24,3.55-21.36,5.3c-3.02,0.74-5.27-0.63-6.03-3.66c-1.11-4.4-2.19-8.81-3.29-13.21c-0.09-0.35-0.2-0.69-0.32-1.14
		c-1.29,0.3-2.52,0.6-3.77,0.86c-4.92,1.04-9.65-1.97-10.8-6.87c-1.12-4.79,1.84-9.65,6.67-10.85c17.26-4.29,34.53-8.56,51.8-12.84
		c2.68-0.66,5.36-1.35,8.05-1.98c0.68-0.16,0.95-0.47,1.03-1.18c0.92-8.66,4.78-15.77,11.79-20.93c8.61-6.33,18.17-7.81,28.22-4.08
		c12.24,4.55,19.64,15.61,19.49,28.52c-0.17,15.22-12.44,28.25-27.65,29.14c-11.47,0.67-20.49-3.93-27.09-13.3
		c-0.31-0.44-0.52-0.75-1.16-0.59c-8.36,2.1-16.72,4.17-25.08,6.25C91.34,1667.3,91.23,1667.38,90.89,1667.54z M152.43,1651.09
		c3.28-5.44,1.53-12.5-3.91-15.76c-5.43-3.26-12.53-1.47-15.75,3.96c-3.23,5.43-1.48,12.42,3.91,15.68
		C142.13,1658.27,149.15,1656.54,152.43,1651.09z"/>
</g>
<g>
	<path class="st33" d="M274.91,1736.68c-2.11-1.91-4.27-3.83-6.38-5.8c-3.09-2.88-6.15-5.79-9.21-8.71
		c-3.12-2.98-3.24-6.96-0.27-10.11c7.27-7.7,14.55-15.38,21.86-23.04c3.1-3.25,6.9-3.33,10.18-0.24c4.77,4.49,9.51,9.01,14.27,13.51
		c0.37,0.35,0.77,0.68,1.28,1.13c1.34-1.37,2.6-2.69,3.91-3.97c5.18-5.09,13.27-5.1,18.46-0.04c5.08,4.95,5.26,13.17,0.32,18.38
		c-17.66,18.64-35.35,37.25-53.02,55.87c-2.74,2.89-5.47,5.8-8.25,8.66c-0.71,0.73-0.8,1.31-0.34,2.23
		c5.61,11.25,6.45,22.9,1.93,34.61c-5.56,14.4-16.03,23.62-31.15,26.89c-18.42,3.98-36.01-3.72-45.87-19.54
		c-11.62-18.64-6.82-44.03,10.99-56.92c13.43-9.73,27.97-11.14,43.28-4.87c0.71,0.29,1.21,0.51,1.87-0.19
		c8.53-9.05,17.1-18.07,25.65-27.1C274.55,1737.32,274.63,1737.14,274.91,1736.68z M212.86,1804.51c0.24,9.16,7.86,16.38,17,16.13
		c9.13-0.26,16.38-7.94,16.08-17.06c-0.29-9.11-7.85-16.26-16.95-16.03C219.81,1787.78,212.62,1795.33,212.86,1804.51z"/>
</g>
<g>
	<path class="st33" d="M432.59,1772.96c-8.4,2.2-16.79,4.4-25.19,6.58c-0.65,0.17-0.68,0.54-0.74,1.08
		c-1.31,11.47-7.07,19.89-17.53,24.84c-13.87,6.56-31.01,0.96-38.51-12.41c-6.36-11.35-5.16-24.7,3.47-34.62
		c7.08-8.15,16.24-11.45,26.92-10.01c8.69,1.17,15.53,5.6,20.53,12.81c0.41,0.59,0.8,0.73,1.48,0.54c2.68-0.74,5.38-1.43,8.07-2.13
		c17.33-4.55,34.66-9.11,52-13.65c4.85-1.27,9.81,1.6,11.13,6.37c1.35,4.88-1.37,9.82-6.23,11.28c-1.22,0.37-2.46,0.69-3.74,1.06
		c0.1,0.46,0.17,0.82,0.26,1.16c1.16,4.42,2.33,8.84,3.47,13.27c0.79,3.05-0.54,5.35-3.57,6.15c-7.14,1.89-14.29,3.77-21.44,5.62
		c-2.93,0.76-5.32-0.65-6.09-3.56c-0.76-2.85-1.51-5.7-2.23-8.56c-0.49-1.95-0.94-3.91-1.4-5.85
		C432.85,1772.94,432.71,1772.93,432.59,1772.96z M386.68,1783.91c3.2-5.49,1.36-12.51-4.11-15.75c-5.48-3.24-12.61-1.39-15.84,4.1
		c-3.23,5.51-1.37,12.59,4.15,15.82C376.41,1791.31,383.45,1789.46,386.68,1783.91z"/>
</g>
<g>
	<path class="st33" d="M460.87,1575.11c-7.92-0.2-15.83-0.39-23.75-0.6c-0.61-0.02-0.74,0.31-0.92,0.76
		c-4.05,9.72-11.22,15.65-21.64,17.34c-13.82,2.24-27.43-7-30.62-20.62c-2.71-11.55,1.72-22.95,11.79-29.47
		c8.27-5.35,17.14-5.94,26.13-1.97c7.32,3.22,12.2,8.83,14.75,16.42c0.21,0.62,0.51,0.84,1.16,0.85c2.54,0.03,5.08,0.11,7.61,0.17
		c16.34,0.39,32.69,0.77,49.03,1.18c4.57,0.11,8.2,3.88,8.15,8.4c-0.05,4.62-3.69,8.26-8.31,8.31c-1.17,0.01-2.33-0.01-3.55-0.02
		c-0.03,0.43-0.06,0.76-0.06,1.09c-0.1,4.17-0.19,8.34-0.31,12.51c-0.08,2.87-1.83,4.55-4.68,4.49c-6.74-0.15-13.48-0.31-20.22-0.49
		c-2.76-0.07-4.5-1.92-4.44-4.66c0.05-2.69,0.12-5.38,0.21-8.07c0.06-1.83,0.17-3.67,0.25-5.48
		C461.1,1575.16,460.98,1575.12,460.87,1575.11z M417.85,1573.11c4.19-4,4.36-10.62,0.38-14.85c-3.98-4.23-10.71-4.41-14.92-0.41
		c-4.22,4.01-4.39,10.69-0.36,14.91C406.98,1577,413.62,1577.15,417.85,1573.11z"/>
</g>
<g>
	<path class="st33" d="M251.89,1585.19c-6.2-0.16-12.4-0.3-18.59-0.47c-0.48-0.01-0.58,0.24-0.72,0.59
		c-3.17,7.61-8.79,12.26-16.95,13.58c-10.82,1.75-21.48-5.48-23.97-16.14c-2.12-9.05,1.35-17.97,9.23-23.08
		c6.47-4.19,13.42-4.65,20.46-1.55c5.73,2.52,9.55,6.92,11.55,12.86c0.16,0.49,0.4,0.66,0.91,0.67c1.99,0.02,3.97,0.09,5.96,0.13
		c12.8,0.31,25.59,0.61,38.39,0.92c3.58,0.09,6.42,3.04,6.38,6.58c-0.04,3.62-2.89,6.47-6.51,6.51c-0.91,0.01-1.82-0.01-2.78-0.02
		c-0.02,0.34-0.04,0.59-0.05,0.85c-0.08,3.26-0.15,6.53-0.25,9.79c-0.06,2.25-1.43,3.56-3.67,3.51c-5.28-0.12-10.55-0.24-15.83-0.38
		c-2.16-0.06-3.52-1.5-3.48-3.65c0.04-2.11,0.09-4.21,0.16-6.32c0.05-1.44,0.13-2.87,0.2-4.29
		C252.07,1585.23,251.98,1585.2,251.89,1585.19z M218.21,1583.62c3.28-3.13,3.41-8.32,0.3-11.62c-3.12-3.31-8.38-3.45-11.68-0.32
		c-3.31,3.14-3.43,8.37-0.28,11.68C209.69,1586.67,214.89,1586.79,218.21,1583.62z"/>
</g>
<g>
	<path class="st33" d="M334.26,1647.53c0.37,1.37,0.76,2.76,1.12,4.15c0.52,2.04,1.02,4.09,1.52,6.13c0.51,2.09-0.51,3.79-2.61,4.31
		c-5.12,1.27-10.25,2.54-15.38,3.79c-2.17,0.53-3.79-0.46-4.34-2.64c-0.8-3.17-1.57-6.34-2.35-9.51c-0.06-0.25-0.14-0.49-0.23-0.82
		c-0.93,0.21-1.82,0.43-2.71,0.62c-3.54,0.74-6.94-1.43-7.76-4.95c-0.8-3.45,1.34-6.94,4.81-7.8c12.43-3.07,24.86-6.12,37.29-9.18
		c1.93-0.47,3.86-0.96,5.79-1.42c0.49-0.11,0.69-0.34,0.74-0.85c0.68-6.23,3.46-11.34,8.51-15.04c6.21-4.55,13.08-5.6,20.31-2.9
		c8.8,3.29,14.11,11.25,13.99,20.54c-0.14,10.95-8.99,20.31-19.93,20.93c-8.25,0.47-14.74-2.85-19.48-9.61
		c-0.22-0.31-0.37-0.54-0.83-0.42c-6.02,1.5-12.04,2.98-18.06,4.47C334.58,1647.36,334.5,1647.41,334.26,1647.53z M378.56,1635.77
		c2.36-3.91,1.11-8.99-2.79-11.34c-3.9-2.35-9.01-1.07-11.34,2.83c-2.33,3.9-1.08,8.94,2.8,11.29
		C371.14,1640.92,376.19,1639.68,378.56,1635.77z"/>
</g>
<g>
	<path class="st33" d="M750.14,1646.64c0.1,1.42,0.22,2.85,0.3,4.28c0.12,2.1,0.22,4.21,0.32,6.31c0.1,2.15-1.23,3.62-3.38,3.74
		c-5.27,0.27-10.54,0.53-15.82,0.78c-2.23,0.1-3.63-1.18-3.75-3.42c-0.18-3.26-0.33-6.52-0.49-9.78c-0.01-0.26-0.04-0.51-0.07-0.85
		c-0.95,0.03-1.87,0.07-2.78,0.09c-3.62,0.05-6.54-2.73-6.67-6.35c-0.13-3.54,2.64-6.56,6.21-6.74c12.78-0.64,25.57-1.26,38.36-1.88
		c1.99-0.1,3.97-0.21,5.96-0.28c0.51-0.02,0.74-0.2,0.89-0.69c1.85-5.99,5.56-10.47,11.23-13.14c6.96-3.28,13.91-3,20.49,1.03
		c8.01,4.91,11.7,13.74,9.81,22.84c-2.23,10.72-12.7,18.22-23.56,16.74c-8.19-1.12-13.92-5.62-17.28-13.15
		c-0.16-0.35-0.26-0.6-0.74-0.57c-6.19,0.32-12.38,0.62-18.58,0.93C750.49,1646.53,750.4,1646.57,750.14,1646.64z M795.87,1643.56
		c3.07-3.39,2.81-8.61-0.57-11.67c-3.38-3.05-8.64-2.78-11.67,0.61c-3.03,3.38-2.77,8.56,0.59,11.61
		C787.6,1647.2,792.79,1646.95,795.87,1643.56z"/>
</g>
<g>
	<path class="st33" d="M652.89,1596.8c-9.27,4.14-18.53,8.29-27.8,12.41c-0.71,0.32-0.68,0.76-0.65,1.39
		c0.68,13.48-4.34,24.3-15.47,32c-14.75,10.22-35.59,7.04-46.8-6.95c-9.51-11.87-10.67-27.5-2.62-40.6
		c6.61-10.76,16.54-16.32,29.13-16.7c10.24-0.31,18.98,3.49,26.13,10.85c0.59,0.6,1.06,0.69,1.81,0.34c2.95-1.37,5.93-2.67,8.9-4
		c19.12-8.57,38.24-17.14,57.36-25.7c5.35-2.39,11.62-0.03,14.06,5.22c2.49,5.37,0.3,11.59-5.03,14.2c-1.34,0.66-2.7,1.27-4.12,1.93
		c0.21,0.51,0.35,0.91,0.53,1.29c2.18,4.88,4.38,9.75,6.54,14.64c1.49,3.37,0.4,6.27-2.94,7.78c-7.88,3.55-15.76,7.08-23.66,10.59
		c-3.23,1.44-6.26,0.27-7.71-2.94c-1.42-3.14-2.83-6.29-4.21-9.44c-0.94-2.16-1.83-4.33-2.74-6.48
		C653.18,1596.73,653.02,1596.74,652.89,1596.8z M602.03,1618.21c2.64-6.94-0.82-14.69-7.75-17.38c-6.94-2.69-14.82,0.81-17.48,7.77
		c-2.67,6.97,0.83,14.79,7.81,17.45C591.6,1628.72,599.36,1625.23,602.03,1618.21z"/>
</g>
<g>
	<path class="st33" d="M497.21,1704.65c-0.81,3.07-1.59,6.19-2.46,9.28c-1.26,4.53-2.56,9.06-3.88,13.58
		c-1.35,4.61-5.22,6.78-9.86,5.46c-11.34-3.23-22.68-6.49-34.01-9.78c-4.8-1.39-6.83-5.11-5.46-9.95
		c1.99-7.02,4.02-14.03,6.03-21.05c0.16-0.55,0.28-1.11,0.46-1.85c-2.04-0.62-4-1.19-5.94-1.82c-7.7-2.51-11.86-10.5-9.52-18.24
		c2.29-7.57,10.32-11.96,18.01-9.76c27.5,7.89,54.98,15.82,82.48,23.74c4.27,1.23,8.55,2.42,12.8,3.71c1.08,0.33,1.7,0.12,2.38-0.81
		c8.25-11.33,19.33-18.13,33.24-19.68c17.09-1.9,31.59,3.72,42.58,16.99c13.4,16.17,14.82,37.52,4.24,55.39
		c-12.46,21.06-40.03,29.35-61.93,18.37c-16.51-8.29-25.38-21.94-27.04-40.3c-0.08-0.85-0.12-1.46-1.14-1.75
		c-13.33-3.79-26.64-7.63-39.96-11.45C498.03,1704.67,497.81,1704.7,497.21,1704.65z M596.14,1731.18
		c8.93-4.94,12.17-16.18,7.22-25.09c-4.94-8.9-16.27-12.11-25.13-7.14c-8.86,4.97-12.04,16.11-7.15,24.99
		C576.03,1732.9,587.19,1736.13,596.14,1731.18z"/>
</g>
<g>
	<path class="st33" d="M830.74,1736.24c-12.48,3.58-24.95,7.17-37.44,10.72c-0.96,0.27-1,0.84-1.07,1.64
		c-1.56,17.2-9.87,29.99-25.34,37.75c-20.51,10.29-46.34,2.52-58.02-17.21c-9.91-16.74-8.58-36.75,3.97-51.89
		c10.3-12.44,23.89-17.7,39.9-15.92c13.03,1.45,23.41,7.83,31.14,18.44c0.63,0.87,1.22,1.07,2.23,0.76
		c3.98-1.2,7.99-2.32,11.99-3.47c25.76-7.42,51.51-14.84,77.27-22.24c7.21-2.07,14.73,2.05,16.87,9.14
		c2.19,7.25-1.71,14.74-8.92,17.09c-1.82,0.59-3.65,1.12-5.56,1.71c0.17,0.69,0.29,1.21,0.43,1.73c1.88,6.57,3.79,13.14,5.65,19.72
		c1.28,4.53-0.62,8.01-5.12,9.32c-10.61,3.08-21.24,6.13-31.86,9.16c-4.35,1.24-7.97-0.79-9.23-5.11
		c-1.23-4.23-2.45-8.47-3.64-12.72c-0.81-2.9-1.54-5.82-2.3-8.69C831.12,1736.21,830.92,1736.19,830.74,1736.24z M762.47,1754.23
		c4.59-8.32,1.6-18.76-6.7-23.41c-8.3-4.66-18.91-1.64-23.54,6.69c-4.64,8.35-1.61,18.87,6.76,23.51
		C747.38,1765.66,757.84,1762.63,762.47,1754.23z"/>
</g>
<g>
	<path class="st33" d="M154.77,1746.06c-12.48,3.58-24.95,7.17-37.44,10.72c-0.96,0.27-1,0.84-1.07,1.64
		c-1.56,17.2-9.87,29.99-25.34,37.75c-20.51,10.29-46.34,2.52-58.02-17.21c-9.91-16.74-8.58-36.75,3.97-51.89
		c10.3-12.44,23.89-17.7,39.9-15.92c13.03,1.45,23.41,7.83,31.14,18.44c0.63,0.87,1.22,1.07,2.23,0.76
		c3.98-1.2,7.99-2.32,11.99-3.47c25.76-7.42,51.51-14.84,77.27-22.24c7.21-2.07,14.73,2.05,16.87,9.14
		c2.19,7.25-1.71,14.74-8.92,17.09c-1.82,0.59-3.65,1.12-5.56,1.71c0.17,0.69,0.29,1.21,0.43,1.73c1.88,6.57,3.79,13.14,5.65,19.72
		c1.28,4.53-0.62,8.01-5.12,9.32c-10.61,3.08-21.24,6.13-31.86,9.16c-4.35,1.24-7.97-0.79-9.23-5.11
		c-1.23-4.23-2.45-8.47-3.64-12.72c-0.81-2.9-1.54-5.82-2.3-8.69C155.15,1746.03,154.95,1746.01,154.77,1746.06z M86.5,1764.05
		c4.59-8.32,1.6-18.76-6.7-23.41c-8.3-4.66-18.91-1.64-23.54,6.69c-4.64,8.35-1.61,18.87,6.76,23.51
		C71.41,1775.48,81.87,1772.46,86.5,1764.05z"/>
</g>
<ellipse class="st32" cx="520.12" cy="1058.65" rx="137.67" ry="26.73"/>
<g>
	<defs>
		<ellipse id="SVGID_1_" cx="520.12" cy="1058.65" rx="137.67" ry="26.73"/>
	</defs>
	<clipPath id="SVGID_00000167390031870189750500000008758738059946942604_">
		<use xlink:href="#SVGID_1_"  style="overflow:visible;"/>
	</clipPath>
	<g style="clip-path:url(#SVGID_00000167390031870189750500000008758738059946942604_);">
		<path class="st2" d="M31.75,822.18c7.51-5.91,265.6-92.6,328.38-42.66c62.78,49.94,67.85,197.51,69.58,322.75
			c1.73,125.24-12.77,201.63-11.65,249.38c1.11,47.75,25.04,53.65,42.25,11.6c17.21-42.05,10.05-18.66,10.39,3.43
			c0.34,22.09-4.62,25.19,2.13,31.78c13.58,13.26,16.99,2.81,19.81-9.58c2.06,13.26-2.7,20.67,12.42,21.77
			c15.12,1.1,15.31-12.37,15.31-12.37s2.51,16.37,15.49,10.23c12.99-6.13,7.83-18.95,7.83-18.95s7.19,14.99,19.92,8
			c12.74-6.99,40.88-4.65,51.85-147.96s-11.49-376.17-46.37-532.34c-34.88-156.16-58.04-188.8-84.88-212.95
			c-26.84-24.15-258.03-26.37-568.14,76.02s-39.92,228.73-39.92,228.73L31.75,822.18z"/>
		<path class="st42" d="M548.48,1380.76c-0.83,6.29,9.53-54.41,26.52-52.93"/>
		<path class="st42" d="M521.45,1381.87c-0.83,6.29,9.53-54.41,26.52-52.93"/>
		<path class="st42" d="M497.29,1378.26c0,0,7.22-54.62,26.52-52.93"/>
	</g>
</g>
<g>
	<defs>
		<path id="SVGID_00000097462365657370674360000000409409107428598165_" d="M657.79,1261.36
			c-3.43,126.67-61.64,229.43-137.67,229.43s-128.33-103.07-137.67-229.43c-13.02-175.98,61.64-229.43,137.67-229.43
			S662.89,1073.22,657.79,1261.36z"/>
	</defs>
	<clipPath id="SVGID_00000128446518425006259260000009645534704532379550_">
		<use xlink:href="#SVGID_00000097462365657370674360000000409409107428598165_"  style="overflow:visible;"/>
	</clipPath>
	<g style="clip-path:url(#SVGID_00000128446518425006259260000009645534704532379550_);">
		<path class="st2" d="M31.75,822.18c7.51-5.91,265.6-92.6,328.38-42.66c62.78,49.94,67.85,197.51,69.58,322.75
			c1.73,125.24-12.77,201.63-11.65,249.38c1.11,47.75,25.04,53.65,42.25,11.6c17.21-42.05,10.05-18.66,10.39,3.43
			c0.34,22.09-4.62,25.19,2.13,31.78c13.58,13.26,16.99,2.81,19.81-9.58c2.06,13.26-2.7,20.67,12.42,21.77
			c15.12,1.1,15.31-12.37,15.31-12.37s2.51,16.37,15.49,10.23c12.99-6.13,7.83-18.95,7.83-18.95s7.19,14.99,19.92,8
			c12.74-6.99,40.88-4.65,51.85-147.96s-11.49-376.17-46.37-532.34c-34.88-156.16-58.04-188.8-84.88-212.95
			c-26.84-24.15-258.03-26.37-568.14,76.02s-39.92,228.73-39.92,228.73L31.75,822.18z"/>
		<path class="st42" d="M548.48,1380.76c-0.83,6.29,9.53-54.41,26.52-52.93"/>
		<path class="st42" d="M521.45,1381.87c-0.83,6.29,9.53-54.41,26.52-52.93"/>
		<path class="st42" d="M497.29,1378.26c0,0,7.22-54.62,26.52-52.93"/>
	</g>
</g>
<g>
	<path class="st3" d="M462.17,1403.24c2.44,1.11,4.93,2.21,7.39,3.38c3.6,1.7,7.19,3.43,10.76,5.18c3.66,1.78,4.91,5.32,3.14,9
		c-4.32,9-8.66,17.98-13.02,26.96c-1.85,3.8-5.24,4.97-9.08,3.13c-5.57-2.66-11.12-5.36-16.69-8.04c-0.44-0.21-0.89-0.39-1.47-0.65
		c-0.81,1.61-1.57,3.16-2.37,4.69c-3.19,6.06-10.45,8.38-16.57,5.33c-5.98-2.99-8.5-10.31-5.56-16.41
		c10.52-21.8,21.06-43.58,31.6-65.37c1.64-3.38,3.24-6.78,4.92-10.14c0.43-0.86,0.34-1.4-0.34-2.1
		c-8.26-8.5-12.35-18.72-11.65-30.53c0.86-14.52,7.62-25.81,20.26-33.08c15.4-8.86,33.4-6.98,46.79,4.39
		c15.78,13.41,18.75,37.58,6.45,54.27c-9.27,12.58-21.93,18.02-37.47,16.78c-0.72-0.06-1.23-0.11-1.62,0.7
		c-5.07,10.57-10.17,21.12-15.26,31.68C462.31,1402.56,462.29,1402.75,462.17,1403.24z M498.45,1324.54
		c-2.84-8.16-11.75-12.46-19.89-9.61c-8.12,2.85-12.43,11.83-9.55,19.93c2.87,8.09,11.71,12.35,19.81,9.54
		C497.01,1341.56,501.3,1332.71,498.45,1324.54z"/>
</g>
<path class="st3" d="M428.86,1056.72l-0.53-18.03c0,0,28.07-7.61,86.21-7.61c70.3,0,98.96,7.61,98.96,7.61l1.23,20.8
	C614.73,1059.49,569.2,1042.58,428.86,1056.72z"/>
</svg>
