<?xml version="1.0" encoding="utf-8"?>
<!-- Generator: Adobe Illustrator 26.5.0, SVG Export Plug-In . SVG Version: 6.00 Build 0)  -->
<svg version="1.1" id="Capa_1" xmlns="http://www.w3.org/2000/svg" xmlns:xlink="http://www.w3.org/1999/xlink" x="0px" y="0px"
	 viewBox="0 0 1200 970.83" style="enable-background:new 0 0 1200 970.83;" xml:space="preserve">
<style type="text/css">
	.st0{fill:none;stroke:#312164;stroke-width:13.033;stroke-linecap:round;stroke-miterlimit:10;}
	.st1{fill:none;stroke:#FAC247;stroke-width:8.6887;stroke-linecap:round;stroke-miterlimit:10;}
	.st2{fill:#FAC247;}
	.st3{fill:#8D7BDC;}
	.st4{fill:#EB5B66;}
	.st5{fill:#312164;}
	.st6{fill:#F6F1FD;}
	.st7{fill:none;stroke:#FAC247;stroke-width:4.3443;stroke-miterlimit:10;}
	.st8{fill:none;stroke:#8D7BDC;stroke-width:5.1562;stroke-linecap:round;stroke-miterlimit:10;}
	.st9{fill:#3AC6C5;}
	.st10{fill:none;stroke:#3AC6C5;stroke-width:10.3124;stroke-miterlimit:10;}
	.st11{fill:none;stroke:#3AC6C5;stroke-width:5.5012;stroke-miterlimit:10;}
	.st12{fill:#E65D63;}
	.st13{fill:none;stroke:#312164;stroke-width:5.6821;stroke-miterlimit:10;}
	.st14{fill:none;stroke:#3AC6C5;stroke-width:7.4282;stroke-miterlimit:10;}
	.st15{fill:none;stroke:#FAC247;stroke-width:5.2347;stroke-linecap:round;stroke-miterlimit:10;}
	.st16{fill:none;stroke:#8D7BDC;stroke-width:10.1117;stroke-linecap:round;stroke-miterlimit:10;}
	.st17{fill:none;stroke:#312164;stroke-width:10.1117;stroke-miterlimit:10;}
	.st18{fill:#5A3568;}
	.st19{fill:#947CDF;}
	.st20{fill:none;stroke:#FAC247;stroke-width:5.0559;stroke-linecap:round;stroke-miterlimit:10;}
	.st21{fill:none;stroke:#3AC6C5;stroke-width:5.0559;stroke-linecap:round;stroke-miterlimit:10;}
	.st22{fill:none;stroke:#312164;stroke-width:10.1117;stroke-linecap:round;stroke-miterlimit:10;}
	.st23{fill:none;stroke:#FAC247;stroke-width:14.2586;stroke-linecap:round;stroke-miterlimit:10;}
	.st24{fill:none;stroke:#8D7BDC;stroke-width:9.5057;stroke-linecap:round;stroke-miterlimit:10;}
	.st25{fill:none;stroke:#3AC6C5;stroke-width:7.0607;stroke-miterlimit:10;}
	.st26{fill:none;stroke:#8D7BDC;stroke-width:5.3025;stroke-linecap:round;stroke-miterlimit:10;}
	.st27{fill:none;stroke:#DB6466;stroke-width:8.9341;stroke-linecap:round;stroke-miterlimit:10;}
	.st28{fill:none;stroke:#3AC6C5;stroke-width:5.3025;stroke-miterlimit:10;}
	.st29{fill:none;stroke:#3AC6C5;stroke-width:10.605;stroke-miterlimit:10;}
	.st30{fill:none;stroke:#8D7BDC;stroke-width:14.9337;stroke-miterlimit:10;stroke-dasharray:84.0842,84.0842;}
	.st31{fill:none;stroke:#FAC247;stroke-width:14.9337;stroke-miterlimit:10;stroke-dasharray:84.0842,84.0842;}
	.st32{fill:#FFFFFF;}
	.st33{fill:#F0C5E6;}
	.st34{fill:#312662;}
	.st35{fill:none;stroke:#FDCFEB;stroke-width:2.9754;stroke-linecap:round;stroke-miterlimit:10;}
	.st36{fill:#F4F0FB;}
	.st37{fill:#FDDF99;}
	.st38{fill:#9180C5;}
	.st39{fill:none;stroke:#312164;stroke-width:0.9173;stroke-miterlimit:10;}
</style>
<g>
	<path class="st2" d="M676.5,397.38c0,0-114.88,16.18-119.73-71.19c-4.85-87.37,24.27-165.04,0-236.23
		c-24.27-71.19-168.27-144-213.58,0s-29.12,247.55-29.12,247.55c-168.27-3.24-326.84,0-278.3,113.26
		c3.24,6.47-36.4,24.27-23.87,76.05c12.54,51.78,44.9,66.34,28.72,105.17s21.03,66.34,37.21,100.32s-9.71,53.39,24.27,74.43
		s354.34,84.14,584.1,43.69S676.5,397.38,676.5,397.38z"/>
	<g>
		<g>
			<path class="st3" d="M442.08,23.54c-2.76,8.16-3.77,16.96-3.99,25.54c-0.23,9.49,0.68,18.96,2.13,28.32
				c2.64,17.1,7.47,34.41,15.94,49.59c7.05,12.62,17.18,23.87,30.04,30.73c10.71,5.71,22.85,8.42,34.97,8.13
				c10.87-0.26,21.46-2.72,31.44-6.96c0.98-0.42,1.95-0.85,2.91-1.31c3.38-1.6,4.52-6.71,2.56-9.75c-2.24-3.47-6.14-4.27-9.75-2.56
				c-0.82,0.39-1.64,0.76-2.47,1.12c-1.09,0.48,1.86-0.77,0.91-0.38c-0.24,0.1-0.48,0.2-0.72,0.29c-0.42,0.17-0.85,0.34-1.28,0.5
				c-1.77,0.67-3.56,1.28-5.38,1.82c-3.94,1.18-7.98,2.04-12.06,2.59c0.63-0.08,1.26-0.17,1.9-0.25
				c-6.21,0.82-12.51,0.88-18.72,0.06c0.63,0.08,1.26,0.17,1.9,0.25c-2.84-0.38-5.66-0.94-8.42-1.7c-1.39-0.38-2.77-0.82-4.13-1.3
				c-0.67-0.24-1.34-0.49-2-0.75c-0.35-0.14-0.7-0.3-1.05-0.43c-0.11-0.04,1.91,0.82,1,0.42c-0.19-0.09-0.39-0.17-0.58-0.26
				c-2.82-1.25-5.55-2.73-8.14-4.41c-1.33-0.86-2.62-1.79-3.89-2.74c-0.64-0.48,1.41,1.11,0.79,0.61c-0.14-0.12-0.29-0.23-0.44-0.35
				c-0.33-0.26-0.65-0.53-0.98-0.8c-0.66-0.55-1.3-1.1-1.93-1.68c-2.59-2.34-4.99-4.89-7.19-7.59c-0.3-0.37-0.59-0.74-0.88-1.1
				c-0.52-0.64,1.03,1.36,0.53,0.69c-0.13-0.17-0.26-0.34-0.39-0.51c-0.62-0.82-1.22-1.66-1.8-2.5c-1.09-1.57-2.12-3.18-3.1-4.83
				c-2.22-3.72-4.17-7.61-5.89-11.59c-0.12-0.27-0.47-1.11-0.02-0.04c0.51,1.2-0.01-0.04-0.09-0.24c-0.2-0.49-0.4-0.98-0.59-1.48
				c-0.42-1.06-0.82-2.13-1.21-3.2c-0.7-1.94-1.36-3.9-1.98-5.87c-3.03-9.65-5.19-19.59-6.54-29.61c0.08,0.63,0.17,1.26,0.25,1.9
				c-1.48-11.14-2-22.52-0.53-33.69c-0.08,0.63-0.17,1.26-0.25,1.9c0.59-4.35,1.5-8.66,2.91-12.82c1.2-3.54-1.37-7.95-4.98-8.77
				C446.9,17.67,443.36,19.76,442.08,23.54L442.08,23.54z"/>
		</g>
	</g>
	<g>
		<g>
			<path class="st3" d="M47.97,474.34c28.02,5.74,56.65,8.66,85.25,8.54c13.99-0.06,27.97-0.83,41.88-2.33
				c3.43-0.37,6.86-0.79,10.29-1.24c2.17-0.29,4.34-0.58,6.51-0.9c0.57-0.08,1.13-0.17,1.7-0.24c0.2-0.03,0.4-0.05,0.6-0.08
				c-2.56,0.37-1.11,0.15-0.52,0.07c4.46-0.58,8.93-1.02,13.41-1.43c20.95-1.91,42.17-3.01,62.73-7.75
				c9.37-2.16,18.86-5.19,27.15-10.16c8.81-5.29,15.86-13.14,20.11-22.51c8.8-19.4,8.24-41.41,8.13-62.26
				c-0.01-2.46-0.02-4.92-0.01-7.39c0.01-3.73-3.29-7.3-7.13-7.13c-3.87,0.17-7.11,3.13-7.13,7.13c-0.04,10.1,0.23,20.21-0.2,30.3
				c-0.11,2.54-0.26,5.08-0.47,7.61c-0.11,1.25-0.23,2.51-0.37,3.76c-0.06,0.56-0.13,1.12-0.2,1.68c-0.04,0.31-0.08,0.62-0.12,0.93
				c0.28-2.37,0.12-0.92,0.05-0.42c-0.7,4.78-1.7,9.52-3.2,14.12c-0.34,1.06-0.72,2.1-1.12,3.14c-0.19,0.49-0.39,0.97-0.58,1.45
				c0.93-2.42-0.01-0.03-0.26,0.51c-0.97,2.07-2.07,4.07-3.32,5.98c-0.56,0.86-1.19,1.67-1.77,2.51c1.39-2.01,0.23-0.31-0.16,0.16
				c-0.44,0.53-0.9,1.04-1.36,1.55c-0.71,0.76-1.44,1.5-2.2,2.21c-0.43,0.4-0.87,0.79-1.31,1.17c-0.47,0.4-2.55,1.8-0.5,0.45
				c-3.56,2.35-7.03,4.54-10.95,6.26c-0.2,0.09-0.4,0.17-0.6,0.26c2.02-0.92,1.13-0.47,0.64-0.27c-0.46,0.19-0.93,0.37-1.39,0.56
				c-1.11,0.43-2.22,0.84-3.34,1.22c-2.21,0.76-4.45,1.44-6.71,2.06c-4.77,1.31-9.61,2.33-14.48,3.2c-2.46,0.44-4.93,0.83-7.41,1.19
				c-0.64,0.09-1.28,0.18-1.92,0.27c-0.32,0.04-0.64,0.09-0.96,0.13c-0.97,0.13,1.96-0.26,0.54-0.07c-1.29,0.17-2.58,0.33-3.88,0.49
				c-10.16,1.22-20.37,2.03-30.56,2.9c-4.64,0.4-9.27,0.81-13.9,1.31c-2.11,0.23-4.21,0.48-6.31,0.76
				c-1.59,0.21-3.17,0.43-4.75,0.66c-0.77,0.11-1.54,0.22-2.31,0.33c-0.51,0.07-1.03,0.15-1.54,0.21c0.29-0.04,0.58-0.08,0.87-0.12
				c-0.34,0.05-0.68,0.09-1.03,0.13c-13.7,1.78-27.49,2.86-41.3,3.23c-13.72,0.37-27.46,0.05-41.15-0.97
				c-6.89-0.51-13.76-1.2-20.62-2.06c-0.77-0.1-1.54-0.2-2.31-0.3c-1.79-0.23,1.63,0.23-0.16-0.02c-0.34-0.05-0.68-0.09-1.03-0.14
				c-1.71-0.24-3.42-0.49-5.13-0.75c-3.41-0.52-6.82-1.08-10.22-1.69c-3.4-0.61-6.79-1.26-10.17-1.95
				c-3.64-0.75-7.88,1.05-8.77,4.98C42.18,469.13,44.06,473.54,47.97,474.34L47.97,474.34z"/>
		</g>
	</g>
	<g>
		<g>
			<path class="st3" d="M62.97,627.85c26.18,4.04,52.65,5.98,79.14,5.55c26.29-0.43,52.56-3.14,78.41-7.97
				c10.36-1.94,20.57-4.52,30.92-6.53c9.01-1.75,18.06-3.3,27.07-5.1c9.33-1.86,18.66-3.92,27.75-6.75
				c8.09-2.51,16.54-5.54,23.47-10.54c4.6-3.32,8.58-7.31,11.4-12.28c2.44-4.29,4.04-9.09,4.91-13.95
				c1.82-10.1,1.46-20.36,2.17-30.55c0.09-1.27,0.19-2.53,0.32-3.8c0.06-0.57,0.12-1.13,0.18-1.7c0.03-0.28,0.07-0.57,0.1-0.85
				c0.19-1.56-0.25,1.76-0.02,0.2c0.28-1.98,0.33-3.69-0.72-5.49c-0.87-1.48-2.56-2.89-4.26-3.28c-1.83-0.42-3.87-0.33-5.49,0.72
				c-1.45,0.93-3.02,2.47-3.28,4.26c-1.48,10.33-1.27,20.7-2.09,31.08c-0.09,1.15-0.2,2.29-0.33,3.44c-0.03,0.25-0.06,0.5-0.09,0.75
				c-0.14,1.16,0.1-0.73,0.1-0.77c-0.03,0.61-0.19,1.24-0.29,1.84c-0.38,2.22-0.9,4.41-1.6,6.55c-0.17,0.51-0.35,1.02-0.54,1.52
				c-0.23,0.61-1.01,1.92,0.04-0.05c-0.53,1-0.96,2.05-1.53,3.04c-0.52,0.89-1.1,1.74-1.68,2.59c-0.62,0.92,0.4-0.51,0.45-0.56
				c-0.21,0.23-0.39,0.49-0.59,0.72c-0.41,0.48-0.83,0.96-1.26,1.41c-0.77,0.81-1.58,1.57-2.43,2.29c-0.21,0.18-0.42,0.34-0.63,0.52
				c-1.1,0.93,1.09-0.79,0.29-0.23c-0.48,0.34-0.95,0.69-1.44,1.01c-1.48,0.99-3.02,1.88-4.59,2.7c-0.79,0.41-1.59,0.81-2.4,1.19
				c-0.44,0.21-0.88,0.41-1.33,0.61c-0.31,0.14-2.14,0.92-0.82,0.37c1.31-0.55-0.4,0.16-0.71,0.28c-0.43,0.17-0.85,0.34-1.28,0.5
				c-1.04,0.4-2.09,0.78-3.14,1.15c-8.72,3.05-17.74,5.21-26.76,7.12c-9.11,1.93-18.29,3.55-27.44,5.26
				c-9.17,1.71-18.22,3.89-27.35,5.78c-6.24,1.3-12.5,2.46-18.79,3.49c-3.14,0.52-6.29,1-9.45,1.45c-0.7,0.1-1.4,0.2-2.1,0.29
				c-0.1,0.01-1.84,0.25-0.63,0.09c1.04-0.14-0.11,0.01-0.37,0.05c-1.67,0.22-3.34,0.43-5,0.63c-12.65,1.52-25.37,2.51-38.1,2.97
				c-25.48,0.92-51-0.32-76.28-3.62c-1.31-0.17,0.11,0.02,0.32,0.04c-0.44-0.05-0.88-0.12-1.32-0.18c-0.79-0.11-1.58-0.22-2.37-0.33
				c-1.58-0.23-3.15-0.46-4.73-0.71c-1.96-0.3-3.71-0.32-5.49,0.72c-1.48,0.87-2.89,2.56-3.28,4.26
				C57.21,622.49,59.03,627.24,62.97,627.85L62.97,627.85z"/>
		</g>
	</g>
	<g>
		<g>
			<path class="st3" d="M95.79,757.83c18.28,2.01,36.63,3.4,55.01,4.11c18.44,0.71,36.91,0.75,55.35,0.09
				c17.95-0.64,35.85-2.02,53.71-3.87c14.54-1.51,29.07-3.3,43.47-5.79c10.09-1.74,20.15-3.83,29.95-6.83
				c7.39-2.27,14.8-5.06,21.48-8.99c5.55-3.27,10.39-7.38,14.27-12.53c3.03-4.02,5.13-8.82,6.26-13.72
				c1.21-5.28,1.53-10.76,1.34-16.16c-0.2-5.7-0.89-11.38-1.61-17.03c-0.19-1.52-0.39-3.03-0.59-4.55
				c-0.26-1.97-0.62-3.58-2.09-5.04c-1.24-1.24-3.27-2.17-5.04-2.09c-1.84,0.08-3.76,0.69-5.04,2.09c-1.18,1.29-2.33,3.22-2.09,5.04
				c0.76,5.8,1.55,11.62,1.98,17.46c0.19,2.59,0.3,5.19,0.28,7.79c-0.01,1.2-0.05,2.4-0.14,3.59c-0.04,0.6-0.09,1.21-0.15,1.81
				c-0.03,0.27-0.06,0.55-0.09,0.82c-0.17,1.5,0.28-1.89,0.12-0.88c-0.35,2.23-0.81,4.44-1.52,6.58c-0.17,0.51-0.36,1.02-0.55,1.53
				c-0.14,0.37-0.59,1.42,0.04-0.07c0.64-1.51,0.16-0.39-0.01-0.02c-0.46,1.01-0.98,1.99-1.56,2.95c-0.59,0.98-1.31,1.86-1.92,2.82
				c-0.03,0.04,1.4-1.76,0.78-1.01c-0.09,0.11-0.17,0.21-0.26,0.32c-0.19,0.23-0.38,0.46-0.58,0.69c-0.4,0.46-0.82,0.91-1.24,1.35
				c-0.86,0.88-1.76,1.72-2.7,2.51c-0.25,0.21-0.51,0.43-0.77,0.63c-0.12,0.1-0.25,0.19-0.37,0.29c-0.63,0.51,1.73-1.31,0.88-0.68
				c-0.54,0.4-1.08,0.8-1.64,1.18c-2.51,1.73-5.18,3.22-7.92,4.55c-0.75,0.36-1.5,0.71-2.26,1.05c-0.38,0.17-0.75,0.33-1.13,0.49
				c-1.02,0.44,1.37-0.57,0.93-0.39c-0.23,0.09-0.46,0.19-0.69,0.28c-1.76,0.72-3.54,1.38-5.33,2.01
				c-8.92,3.11-18.16,5.26-27.42,7.06c-5.94,1.16-11.92,2.15-17.91,3.04c-1.62,0.24-3.23,0.47-4.85,0.7
				c-0.8,0.11-1.6,0.22-2.39,0.33c-0.8,0.11,0.98-0.13,0.89-0.12c-0.2,0.03-0.41,0.05-0.61,0.08c-0.48,0.06-0.96,0.13-1.43,0.19
				c-3.63,0.47-7.26,0.92-10.9,1.33c-17.1,1.97-34.26,3.51-51.45,4.41c-18.17,0.95-36.37,1.23-54.55,0.84
				c-18.2-0.39-36.38-1.44-54.5-3.13c-4.47-0.42-8.94-0.87-13.4-1.37c-1.7-0.19-3.88,0.93-5.04,2.09c-1.24,1.24-2.17,3.27-2.09,5.04
				C88.85,754.91,91.81,757.39,95.79,757.83L95.79,757.83z"/>
		</g>
	</g>
	<polyline class="st23" points="129.13,875.84 166.75,928.02 223.78,890.4 260.19,945.01 297.81,910.43 	"/>
	<circle class="st3" cx="358.48" cy="904.97" r="6.67"/>
	<circle class="st4" cx="430.1" cy="941.16" r="22.6"/>
	<circle class="st24" cx="254.67" cy="155.34" r="38.83"/>
	<circle class="st9" cx="244.39" cy="264.45" r="9.51"/>
	<path class="st25" d="M1139.45,254.92c17.93,1.64,44.9,11.08,25.35,33.07c-19.55,21.98,4.48,25.78,14.68,27.85
		s17.68,16.98,2.27,28.97c-15.41,11.99-6.94,33.18-6.94,33.18"/>
	<path class="st3" d="M707.24,236.39c-47.07-5.45-59.46,31.55-58.25,78.88s7.28,544.86,13.35,569.13s48.54,33.98,97.08,30.34
		c48.54-3.64,202.75,5.17,241.46,11.23c91.04,14.26,120.17,22.75,139.58-58.55c19.42-81.3,46.11-515.74-48.54-622.52
		C1045.4,203.22,937.81,263.08,707.24,236.39z"/>
	<g>
		<g>
			<path class="st9" d="M780.58,269.75c-14.54-5.78-30.08,4.11-36.83,16.94c-7.9,15.02-3.8,31.47,6.4,44.25
				c10.2,12.77,24.93,20.19,39.68,26.39c14.82,6.23,31.16,11.69,42.25,23.88c4.72,5.19,8.22,11.36,9.66,18.16
				c0.51,2.44,0.65,5.95,0.25,8.33c-0.66,3.88-1.27,5.14-2.88,7.91c-0.64,1.1-1.35,2.17-2.12,3.18c0.93-1.22-0.39,0.42-0.49,0.54
				c-0.42,0.48-0.85,0.95-1.29,1.42c-0.89,0.93-1.83,1.82-2.8,2.67c-0.49,0.43-0.99,0.85-1.5,1.26c-0.65,0.51-0.68,0.55-0.11,0.1
				c-0.35,0.27-0.71,0.53-1.07,0.79c-4.45,3.22-9.27,5.9-14.12,8.49c-10.3,5.49-21.21,10.63-29.57,19
				c-10.51,10.52-14.32,25.44-9.94,39.73c5.05,16.44,17.57,28.41,31.45,37.76c13.3,8.97,29.01,16.16,39.04,29.13
				c4.17,5.39,7.65,12.37,8.58,18.63c0.94,6.35-0.39,11.89-4.07,17.23c-1.2,1.75,0.88-0.98-0.48,0.64c-0.42,0.5-0.85,0.99-1.3,1.46
				c-0.9,0.95-1.85,1.85-2.84,2.7c-0.09,0.07-1.78,1.41-0.61,0.53c-0.53,0.4-1.07,0.79-1.62,1.16c-1.3,0.89-2.64,1.72-4.01,2.5
				c-2.21,1.26-4.49,2.4-6.81,3.46c-3.24,1.49-4.19,1.85-7.51,3.19c-11.4,4.61-23.4,8.99-32.48,17.62
				c-10.9,10.37-14.56,25.88-10.05,40.15c4.78,15.11,16.02,27.83,28.1,37.68c11.7,9.54,24.94,16.85,36.04,27.12
				c9.7,8.99,17.94,19.79,17.57,32.51c-0.4,13.81-11.61,24.99-22.67,32.69c-13.58,9.47-29.09,16.47-40.57,28.72
				c-10.41,11.11-16.16,26.47-12.97,41.68c1.39,6.63,5.01,12.95,10.29,17.22c2.99,2.42,7.16,2.92,10.08,0c2.5-2.5,3.01-7.64,0-10.08
				c-4.58-3.72-6.67-8.4-6.97-13.65c-0.34-5.9,0.93-11.57,3.56-16.63c6.98-13.41,21.65-21.08,34.02-28.68
				c13.37-8.2,27.29-17.88,34.55-32.29c6.9-13.69,6.19-29.15-1.2-42.47c-14.92-26.89-46.21-37.01-65.52-59.69
				c-4.31-5.06-8.25-11.07-10.3-17.12c-2.08-6.15-2.49-11.56-0.37-17.52c0.41-1.16,1.04-2.44,1.79-3.72
				c0.34-0.59,0.7-1.16,1.08-1.72c0.06-0.08,1.37-1.84,0.47-0.71c0.82-1.04,1.73-2.02,2.67-2.95c0.47-0.47,0.96-0.92,1.46-1.36
				c0.18-0.16,2.21-1.81,1.14-1c4.39-3.37,9.43-5.87,14.47-8.1c0.65-0.29,1.31-0.57,1.97-0.86c-1.23,0.53,0.94-0.39,0.95-0.39
				c1.33-0.55,2.67-1.09,4.01-1.63c3.02-1.22,6.04-2.44,9.03-3.71c5.31-2.25,10.6-4.68,15.37-7.96
				c11.17-7.67,18.81-19.49,18.2-33.43c-0.7-16-10.21-30.68-22.28-40.67c-13.12-10.86-29.04-17.82-41.91-28.95
				c-9.85-8.52-19.44-22.35-16.54-35.44c0.36-1.62,0.85-3.24,1.5-4.77c-0.59,1.4,0.31-0.54,0.37-0.67c0.29-0.57,0.61-1.14,0.93-1.69
				c1.59-2.69,1.89-3.06,4.4-5.57c0.92-0.92,1.88-1.79,2.86-2.63c0.33-0.28,0.67-0.56,1.01-0.83c1.68-1.36-1.1,0.78,0.65-0.5
				c2.38-1.73,4.85-3.32,7.38-4.81c19.94-11.75,46.69-21.17,48.38-48.23c0.98-15.65-8.5-31.07-20.26-40.7
				c-13.44-11-29.99-16.25-45.64-23.2c-12.83-5.7-26.07-13.31-33.12-25.8c-3.15-5.57-4.59-11.94-3.24-17.41
				c1.32-5.3,4.73-10.54,8.73-13.42c2.7-1.95,4.16-2.65,7.27-3.2c-1.33,0.24,1-0.06,1.05-0.06c0.74-0.02,1.5-0.01,2.24,0.08
				c-1.32-0.17,1.11,0.31,1.1,0.31c0.77,0.21,1.5,0.49,2.24,0.78c3.58,1.42,7.83-1.56,8.77-4.98
				C786.68,274.46,784.18,271.18,780.58,269.75L780.58,269.75z"/>
		</g>
	</g>
</g>
</svg>
