<?xml version="1.0" encoding="utf-8"?>
<!-- Generator: Adobe Illustrator 26.5.0, SVG Export Plug-In . SVG Version: 6.00 Build 0)  -->
<svg version="1.1" id="Capa_1" xmlns="http://www.w3.org/2000/svg" xmlns:xlink="http://www.w3.org/1999/xlink" x="0px" y="0px"
	 viewBox="0 0 1200 1166.7" style="enable-background:new 0 0 1200 1166.7;" xml:space="preserve">
<style type="text/css">
	.st0{fill:none;stroke:#312164;stroke-width:13.033;stroke-linecap:round;stroke-miterlimit:10;}
	.st1{fill:none;stroke:#FAC247;stroke-width:8.6887;stroke-linecap:round;stroke-miterlimit:10;}
	.st2{fill:#FAC247;}
	.st3{fill:#8D7BDC;}
	.st4{fill:#EB5B66;}
	.st5{fill:#312164;}
	.st6{fill:#F6F1FD;}
	.st7{fill:none;stroke:#FAC247;stroke-width:4.3443;stroke-miterlimit:10;}
	.st8{fill:none;stroke:#8D7BDC;stroke-width:5.1562;stroke-linecap:round;stroke-miterlimit:10;}
	.st9{fill:#3AC6C5;}
	.st10{fill:none;stroke:#3AC6C5;stroke-width:10.3124;stroke-miterlimit:10;}
	.st11{fill:none;stroke:#3AC6C5;stroke-width:5.5012;stroke-miterlimit:10;}
	.st12{fill:#E65D63;}
	.st13{fill:none;stroke:#312164;stroke-width:5.6821;stroke-miterlimit:10;}
	.st14{fill:none;stroke:#3AC6C5;stroke-width:7.4282;stroke-miterlimit:10;}
	.st15{fill:none;stroke:#FAC247;stroke-width:5.2347;stroke-linecap:round;stroke-miterlimit:10;}
	.st16{fill:none;stroke:#8D7BDC;stroke-width:10.1117;stroke-linecap:round;stroke-miterlimit:10;}
	.st17{fill:none;stroke:#312164;stroke-width:10.1117;stroke-miterlimit:10;}
	.st18{fill:#5A3568;}
	.st19{fill:#947CDF;}
	.st20{fill:none;stroke:#FAC247;stroke-width:5.0559;stroke-linecap:round;stroke-miterlimit:10;}
	.st21{fill:none;stroke:#3AC6C5;stroke-width:5.0559;stroke-linecap:round;stroke-miterlimit:10;}
	.st22{fill:none;stroke:#312164;stroke-width:10.1117;stroke-linecap:round;stroke-miterlimit:10;}
	.st23{fill:none;stroke:#FAC247;stroke-width:14.2586;stroke-linecap:round;stroke-miterlimit:10;}
	.st24{fill:none;stroke:#8D7BDC;stroke-width:9.5057;stroke-linecap:round;stroke-miterlimit:10;}
	.st25{fill:none;stroke:#3AC6C5;stroke-width:7.0607;stroke-miterlimit:10;}
	.st26{fill:none;stroke:#8D7BDC;stroke-width:5.3025;stroke-linecap:round;stroke-miterlimit:10;}
	.st27{fill:none;stroke:#DB6466;stroke-width:8.9341;stroke-linecap:round;stroke-miterlimit:10;}
	.st28{fill:none;stroke:#3AC6C5;stroke-width:5.3025;stroke-miterlimit:10;}
	.st29{fill:none;stroke:#3AC6C5;stroke-width:10.605;stroke-miterlimit:10;}
	.st30{fill:none;stroke:#8D7BDC;stroke-width:14.9337;stroke-miterlimit:10;stroke-dasharray:84.0842,84.0842;}
	.st31{fill:none;stroke:#FAC247;stroke-width:14.9337;stroke-miterlimit:10;stroke-dasharray:84.0842,84.0842;}
	.st32{fill:#FFFFFF;}
	.st33{fill:#F0C5E6;}
	.st34{fill:#312662;}
	.st35{fill:none;stroke:#FDCFEB;stroke-width:2.9754;stroke-linecap:round;stroke-miterlimit:10;}
	.st36{fill:#F4F0FB;}
	.st37{fill:#FDDF99;}
	.st38{fill:#9180C5;}
	.st39{fill:none;stroke:#312164;stroke-width:0.9173;stroke-miterlimit:10;}
</style>
<path class="st3" d="M202.7,495.11c-56.88,89.89-44.95,141.86,9.83,149.59c17.56,107.45,47.05,196.64,127.81,257.74
	c28.79,21.07,25.28,42.14,29.5,59.69c4.21,17.56,17.56,77.25,17.56,77.25c84.27,22.47,161.52,20.37,300.57-34.41
	c-1.4-102.53-14.75-127.81-14.75-131.33c54.08-82.17,125.71-129.92,129.92-363.08S700.62,150.99,477.29,158.01
	C253.97,165.04,200.59,396.79,202.7,495.11z"/>
<path class="st2" d="M1134.24,495.11c0.56-26.1-2.79-61.6-12.19-99.8c-1.14-96.42-35.57-252.98-245.87-259.77
	c-304.79-9.83-367.99,185.4-367.99,320.24s5.61,126.41-23.88,171.36s-116.57,112.36-94.1,158.71
	c20.04,41.34,154.04,120.6,265.49,123.31c-3.12,19.92-6.11,50.21-6.73,95.8c139.05,54.78,216.3,56.88,300.57,34.41
	c0,0,13.34-59.69,17.56-77.25c4.21-17.56,0.7-38.62,29.5-59.69c80.76-61.1,110.26-150.29,127.81-257.74
	C1179.19,636.97,1191.13,585,1134.24,495.11z"/>
<path class="st4" d="M530.31,74.79c-4.89,3.42,8.08,21.77,14.4,32.3s27.39,9.13,13.34-11.24S533.82,72.34,530.31,74.79z"/>
<path class="st4" d="M653.94,52.76c-5.91-0.83-8.93,21.44-11.48,33.45c-2.55,12.02,13.82,25.35,17.42,0.87
	C663.48,62.61,658.18,53.36,653.94,52.76z"/>
<path class="st4" d="M583.34,35.12c-7.12-3.4,0,28.09,3.51,39.33c3.51,11.24,11.24,52.32,26.34,50.92
	c15.1-1.4-7.37-51.62-12.29-63.91C595.98,49.16,591.41,38.98,583.34,35.12z"/>
<path class="st4" d="M740.29,12.64c-8.21,9.06-71.63,85.68-70.93,109.56s12.64,8.08,22.47-7.02c9.83-15.1,57.24-90.24,59.34-97.27
	S753.05-1.42,740.29,12.64z"/>
<circle class="st3" cx="577.01" cy="1092.45" r="7.73"/>
<circle class="st5" cx="659.91" cy="1134.34" r="26.16"/>
<circle class="st9" cx="1171.6" cy="718.84" r="11.01"/>
<circle class="st11" cx="48.9" cy="609.29" r="40.73"/>
<circle class="st12" cx="214.54" cy="895.71" r="13.24"/>
<polyline class="st13" points="195.21,256.01 227.85,253.11 223.02,215.87 254.93,220.22 254.93,184.44 "/>
<path class="st14" d="M1028.58,982.51c8.53-15.17,29.4-36.03,47.41-12.8c18.02,23.23,31.29,3.34,37.46-4.97
	c6.16-8.31,26.08-10.64,34.14,6.17s35.56,15.39,35.56,15.39"/>
</svg>
