<?xml version="1.0" encoding="utf-8"?>
<!-- Generator: Adobe Illustrator 26.5.0, SVG Export Plug-In . SVG Version: 6.00 Build 0)  -->
<svg version="1.1" id="Capa_1" xmlns="http://www.w3.org/2000/svg" xmlns:xlink="http://www.w3.org/1999/xlink" x="0px" y="0px"
	 viewBox="0 0 1158.13 967.77" style="enable-background:new 0 0 1158.13 967.77;" xml:space="preserve">
<style type="text/css">
	.st0{fill:none;stroke:#312164;stroke-width:13.033;stroke-linecap:round;stroke-miterlimit:10;}
	.st1{fill:none;stroke:#FAC247;stroke-width:8.6887;stroke-linecap:round;stroke-miterlimit:10;}
	.st2{fill:#FAC247;}
	.st3{fill:#8D7BDC;}
	.st4{fill:#EB5B66;}
	.st5{fill:#312164;}
	.st6{fill:#F6F1FD;}
	.st7{fill:none;stroke:#FAC247;stroke-width:4.3443;stroke-miterlimit:10;}
	.st8{fill:none;stroke:#8D7BDC;stroke-width:5.1562;stroke-linecap:round;stroke-miterlimit:10;}
	.st9{fill:#3AC6C5;}
	.st10{fill:none;stroke:#3AC6C5;stroke-width:10.3124;stroke-miterlimit:10;}
	.st11{fill:none;stroke:#3AC6C5;stroke-width:5.5012;stroke-miterlimit:10;}
	.st12{fill:#E65D63;}
	.st13{fill:none;stroke:#312164;stroke-width:5.6821;stroke-miterlimit:10;}
	.st14{fill:none;stroke:#3AC6C5;stroke-width:7.4282;stroke-miterlimit:10;}
	.st15{fill:none;stroke:#FAC247;stroke-width:5.2347;stroke-linecap:round;stroke-miterlimit:10;}
	.st16{fill:none;stroke:#8D7BDC;stroke-width:10.1117;stroke-linecap:round;stroke-miterlimit:10;}
	.st17{fill:none;stroke:#312164;stroke-width:10.1117;stroke-miterlimit:10;}
	.st18{fill:#5A3568;}
	.st19{fill:#947CDF;}
	.st20{fill:none;stroke:#FAC247;stroke-width:5.0559;stroke-linecap:round;stroke-miterlimit:10;}
	.st21{fill:none;stroke:#3AC6C5;stroke-width:5.0559;stroke-linecap:round;stroke-miterlimit:10;}
	.st22{fill:none;stroke:#312164;stroke-width:10.1117;stroke-linecap:round;stroke-miterlimit:10;}
	.st23{fill:none;stroke:#FAC247;stroke-width:14.2586;stroke-linecap:round;stroke-miterlimit:10;}
	.st24{fill:none;stroke:#8D7BDC;stroke-width:9.5057;stroke-linecap:round;stroke-miterlimit:10;}
	.st25{fill:none;stroke:#3AC6C5;stroke-width:7.0607;stroke-miterlimit:10;}
	.st26{fill:none;stroke:#8D7BDC;stroke-width:5.3025;stroke-linecap:round;stroke-miterlimit:10;}
	.st27{fill:none;stroke:#DB6466;stroke-width:8.9341;stroke-linecap:round;stroke-miterlimit:10;}
	.st28{fill:none;stroke:#3AC6C5;stroke-width:5.3025;stroke-miterlimit:10;}
	.st29{fill:none;stroke:#3AC6C5;stroke-width:10.605;stroke-miterlimit:10;}
	.st30{fill:none;stroke:#8D7BDC;stroke-width:14.9337;stroke-miterlimit:10;stroke-dasharray:84.0842,84.0842;}
	.st31{fill:none;stroke:#FAC247;stroke-width:14.9337;stroke-miterlimit:10;stroke-dasharray:84.0842,84.0842;}
	.st32{fill:#FFFFFF;}
	.st33{fill:#F0C5E6;}
	.st34{fill:#312662;}
	.st35{fill:none;stroke:#FDCFEB;stroke-width:2.9754;stroke-linecap:round;stroke-miterlimit:10;}
	.st36{fill:#F4F0FB;}
	.st37{fill:#FDDF99;}
	.st38{fill:#9180C5;}
	.st39{fill:none;stroke:#312164;stroke-width:0.9173;stroke-miterlimit:10;}
</style>
<g>
	<path class="st2" d="M245.51,267.89l4.32-9.5c0,0-28.38-65.39-32.18-113.47c-0.36-4.56-6.41-5.94-8.77-2.03
		c-19.92,33.01-35.71,87.67,27.65,122.74C232.71,270.24,245.51,267.89,245.51,267.89z"/>
	<path class="st2" d="M783.66,84.18l-15.45-41.52c-6.77-18.19,11.84-35.48,29.49-27.39l45.28,20.76
		c12.12,5.56,11.35,23.04-1.21,27.5L783.66,84.18z"/>
	<path class="st2" d="M482.84,288.01c0,0,206.69-192.21,303.45-213.27c8.56,80.96-163.2,288.86-254.74,314.64
		C523,317.63,482.84,288.01,482.84,288.01z"/>
	<path class="st3" d="M560.13,220.39c-33.99,63.42,1.13,165.21,12.96,205.09c-45.57-47.46-72.04-117.88-72.04-117.88
		S518.17,248.79,560.13,220.39z"/>
	<path class="st2" d="M516.96,217.58c-20.62-15.47-25.78-41.25-15.47-61.87c15.47-15.47,36.09,15.47,41.25,5.16
		c15.47-20.62-20.62-25.78-20.62-41.25c-5.15-25.76,20.58-41.23,5.19-66.97c-4.92,1.07-10.39,2.5-16.6,4.33
		c-34.23,10.09-53.54,46.08-81.18,83.64c-27.65,37.56,25.89,81.36,35.11,98.48c9.22,17.11-3.64,41.09-3.64,41.09
		s69.21,52.44,75.16,51.06c5.96-1.38-5.28-42.79,0.43-70.44c2.84-13.74,8.5-27,15.66-39.98
		C538.85,226.56,525.95,222.07,516.96,217.58z"/>
	<path class="st5" d="M573.89,59.16c-13.66-8.62-24.38-11.35-46.59-6.52c15.39,25.75-10.34,41.21-5.19,66.97
		c0,15.47,36.09,20.62,20.62,41.25c-5.16,10.31-25.78-20.62-41.25-5.16c-10.31,20.62-5.16,46.41,15.47,61.87
		c8.99,4.49,21.89,8.98,35.29,3.24c7.24-13.13,16.01-25.98,24.96-38.78c17.79-25.45,36.19-57.05,37.94-73.28
		C616.9,92.51,590.58,69.7,573.89,59.16z"/>
	<path class="st4" d="M465.07,268.8c0,0-71.75,216.02-209.32,289.09c149.42,23.04,288.97,32.25,288.97,32.25
		S656.62,351.62,465.07,268.8z"/>
	<polygon class="st4" points="610.76,110.94 627,119.06 610.76,157.9 592.99,150.66 	"/>
	<path class="st5" d="M615.23,134.42c0,0,10-22.26,23.74-23.48c13.74-1.21,48.37-8.09,62.11,37.54s-17.86,54.97,21.44,100.32
		c14.29,18.96,28.58,24.46,37.1,26.93c8.52,2.47-2.47,8.8-9.89,9.89c-7.42,1.1-77.26,24.56-121.23-30.38S608.7,145.45,615.23,134.42
		z"/>
	<path class="st3" d="M51.42,681.77c-9.28,13.06-18.21,27.2-26.74,42.44c128.76-21.68,262.99-27.95,391.31-7.36
		c10.42-6.41,21.36-13.75,33.21-22.18C320.26,660.53,184.44,665.92,51.42,681.77z"/>
	<path class="st5" d="M240.83,765.24c79.81-6.5,120.17-14.55,175.16-48.39c-128.31-20.59-262.54-14.32-391.31,7.36
		c-1.98,3.54-3.96,7.08-5.9,10.75c7.61,8.57,15.36,16.76,23.23,24.65c72.68,2.09,145.36,8.98,218.04,12.59
		C252.99,769.09,246.51,766.68,240.83,765.24z"/>
	<path class="st3" d="M260.05,772.2c-72.68-3.61-145.36-10.51-218.04-12.59c10.82,10.85,21.87,21.05,33.1,30.67
		c81.29,1.53,164.24,8.43,246.36,15.68C299.06,792.27,277.66,779.95,260.05,772.2z"/>
	<path class="st5" d="M321.47,805.95c-82.12-7.25-165.07-14.15-246.36-15.68c45.35,38.85,93.69,67.87,142.1,89.14
		c45.35-13.35,88.15-33.02,124.63-60.85C335.01,814.29,328.19,810.05,321.47,805.95z"/>
	<path class="st3" d="M341.84,818.55c-36.48,27.83-79.28,47.5-124.63,60.85c17.97,7.9,35.95,14.68,53.79,20.53
		c45.07-8.76,89.16-21.27,129.52-45.01C382.02,843.88,361.85,831.05,341.84,818.55z"/>
	<path class="st5" d="M400.52,854.93c-40.36,23.74-84.44,36.24-129.52,45.01c30.86,10.12,61.29,17.34,90.55,22.2
		c12.12-23.27,26.43-45.26,39.28-67.03C400.73,855.05,400.62,854.99,400.52,854.93z"/>
	<path class="st5" d="M433.54,873.41c-16.01,16.26-28,34.5-37.22,53.5c11.3,1.22,22.35,2.08,33.12,2.65
		C429.71,910.87,430.64,893.04,433.54,873.41C433.54,873.41,433.54,873.41,433.54,873.41z"/>
	<path class="st3" d="M448.83,827.11c-9.65,24.57-8.34,41.69-1.76,52.66c-4.2-1.77-8.75-3.93-13.54-6.35
		c-2.91,19.63-3.83,37.46-4.1,56.15c12.04,0.63,23.64,0.82,34.88,0.72c-9.99-36.54-7.85-75.49-9.66-113.27
		C452.39,819.82,450.39,823.16,448.83,827.11z"/>
	<path class="st5" d="M500.18,823.16c-13.48-19.86-33.66-20.85-45.52-6.15c1.81,37.78-0.33,76.73,9.66,113.27
		c0.75-0.01,1.53,0.02,2.28,0.01c20.23-23.89,44.38-43.85,70.93-61.42C522.88,855.69,511.19,839.38,500.18,823.16z"/>
	<path class="st3" d="M537.53,868.87c-26.55,17.57-50.7,37.53-70.93,61.42c9.88-0.12,19.47-0.47,28.63-1.09
		c14.2-20.63,35.59-37.26,57.09-48.89C547.04,876.88,542.14,873.02,537.53,868.87z"/>
	<path class="st5" d="M552.32,880.31c-21.5,11.63-42.89,28.26-57.09,48.89c59.46-4,102.51-17.68,115.97-31.98
		C586.96,897.08,568.02,890.5,552.32,880.31z"/>
	<path class="st3" d="M400.83,855.12c-12.85,21.77-27.16,43.76-39.28,67.03c11.8,1.96,23.4,3.54,34.77,4.77
		c9.22-18.99,21.21-37.24,37.22-53.5C423.62,868.39,412.58,862.13,400.83,855.12z"/>
	<path class="st5" d="M51.42,681.77c133.01-15.85,268.83-21.24,397.77,12.89c5.41-3.86,11.08-8.01,16.92-12.35
		c-82.63-79.41-201.48-99.5-310.85-99.49C118.2,605.63,82.81,637.62,51.42,681.77z"/>
	<path class="st3" d="M197.02,561.08c-14.08,6.06-28.03,13.29-41.76,21.74c109.37-0.01,228.22,20.08,310.85,99.49
		c8.37-6.23,17.15-12.9,26.53-20.16C430.28,569.52,308.57,562.99,197.02,561.08z"/>
	<path class="st5" d="M629.63,528.93c-25.49-12.88-45.26-18.8-59.32-20.04c-8.47,35.74-20.01,67.95-20.01,67.95
		s-184.8-88.29-353.28-15.75c111.54,1.9,233.26,8.44,295.61,101.07c1.36-1.05,2.65-2.04,4.03-3.11c3.04,5.28,6.25,10.59,9.58,15.89
		c57.56-44.97,129.73-71.01,200.66-86.05C685.62,565.22,660.24,544.39,629.63,528.93z"/>
	<path class="st3" d="M706.9,588.88c-70.93,15.04-143.09,41.09-200.66,86.05c3.55,5.66,7.27,11.32,11.14,16.97
		c64.19-39.21,135.38-63.88,210.38-77.18C721.28,605.83,714.36,597.17,706.9,588.88z"/>
	<path class="st5" d="M727.76,614.72c-75,13.3-146.19,37.98-210.38,77.18c14.33,20.92,30.86,41.68,49.31,61.51
		c41.28-58.98,104.64-97.86,163.48-135.24C729.35,617.03,728.59,615.86,727.76,614.72z"/>
	<path class="st5" d="M687.12,820.86c39.86-15.95,70.52-50.3,108.57-67.49c-5.36-15.85-11.55-32.65-18.81-49.77
		C739.69,734.33,711.16,777.59,687.12,820.86z"/>
	<path class="st5" d="M663.25,834.32c11.83-40.84,31.7-85.4,65.11-106.28c-42.6,17.04-78.16,44.65-109.59,74.09
		C632.9,813.63,647.73,824.43,663.25,834.32z"/>
	<path class="st5" d="M666.49,733.2c31.38-23.53,65.75-38.1,103.09-46c-4.22-9.13-8.73-18.28-13.64-27.37
		C718.58,672.03,680.27,696.46,666.49,733.2z"/>
	<path class="st3" d="M687.12,820.86c24.04-43.27,52.57-86.53,89.76-117.26c-2.31-5.44-4.76-10.91-7.29-16.39
		c-37.34,7.9-71.71,22.47-103.09,46c13.78-36.74,52.09-61.17,89.44-73.37c-7.65-14.16-16.18-28.17-25.77-41.65
		c-58.84,37.38-122.2,76.26-163.48,135.24c15.94,17.14,33.41,33.5,52.09,48.71c31.43-29.44,66.98-57.04,109.59-74.09
		c-33.41,20.88-53.28,65.44-65.11,106.28c13.82,8.81,28.11,16.97,42.93,24.18c26.44-32.1,63.5-54.72,98.3-77.87
		c-2.68-8.65-5.6-17.79-8.8-27.26C757.63,770.56,726.98,804.91,687.12,820.86z"/>
	<path class="st5" d="M816.9,821.51c-3.61-11.57-7.64-25.47-12.41-40.88c-34.8,23.15-71.86,45.77-98.3,77.87
		c26.17,12.73,53.82,22.77,82.74,29.17c7.35,2.32,14.6,4.58,21.77,6.79c6.21-25.91,10.27-51.83,14.01-77.74
		C822.16,818.21,819.57,819.79,816.9,821.51z"/>
	<path class="st5" d="M856.09,804.11c-3.93,13.38-3.97,23.25-3.97,37.37c0-16.7,10.15-26.64,19.48-38.04
		C866.35,802.98,861.23,803.21,856.09,804.11z"/>
	<path class="st3" d="M871.6,803.45c-9.34,11.39-19.48,21.33-19.48,38.04c0-14.12,0.05-23.99,3.97-37.37
		c-10.08,1.76-20.2,6.05-31.38,12.61c-3.74,25.91-7.81,51.83-14.01,77.74c19.51,6,38.39,11.5,56.88,16.1
		c8.44-33.39,24.38-63.27,39.26-94.77C893.81,808.44,882.43,804.41,871.6,803.45z"/>
	<path class="st5" d="M920.27,824.15c-4.67-3.14-9.16-5.97-13.44-8.38c-14.88,31.51-30.82,61.39-39.26,94.77
		c14.89,3.7,29.52,6.79,44.01,9.05C916.18,888.32,921.77,855.16,920.27,824.15z"/>
	<path class="st5" d="M945.69,843.03c-1.64,18.47-9.89,35.29-5.92,55.17c3.42-17.11,13.64-29.67,21.65-42.22
		C955.91,851.33,950.68,847.02,945.69,843.03z"/>
	<path class="st5" d="M965.55,882.73c-4.16,16.63-15.01,26.57-19.06,40.6c5.01,0.27,10.01,0.36,15.01,0.37
		C959.23,910.2,965.55,894.88,965.55,882.73z"/>
	<path class="st5" d="M1046.24,845.01c-1.08-0.26-2.17-0.52-3.24-0.79c-28.96-7.24-28.96-7.24-28.96-7.24s-12.65-0.73-22.73,4.94
		c-0.09,21.01-0.72,39.34-5.14,61.43C1013.65,887.66,1032.15,868.96,1046.24,845.01z"/>
	<path class="st5" d="M1145.63,846.5c-32.85,8.18-60.36,6.32-83.55,1.95c-9.17,26.84-23.33,53.11-45.16,69.42
		c41.53-9.11,84.21-29.69,130.76-67.26C1149.66,849.02,1148.09,845.89,1145.63,846.5z"/>
	<path class="st3" d="M1062.07,848.45c-5.52-1.04-10.79-2.22-15.83-3.44c-14.1,23.94-32.59,42.64-60.06,58.34
		c4.42-22.09,5.05-40.42,5.14-61.43c-7.4,4.16-13.43,11.76-12.02,25.71c9.26,17.96-3.43,32.45-3.43,51.19
		c0-17.76-0.02-35.53-3.31-53.29c-3.82-3.31-7.55-6.52-11.13-9.56c-8,12.55-18.22,25.11-21.65,42.22
		c-3.98-19.88,4.28-36.7,5.92-55.17c-9.2-7.36-17.63-13.65-25.42-18.88c1.5,31.01-4.09,64.17-8.7,95.45
		c11.71,1.83,23.32,3.11,34.91,3.73c4.05-14.04,14.91-23.97,19.06-40.6c0,12.15-6.32,27.46-4.06,40.98
		c18.4,0.04,36.8-1.75,55.42-5.83C1038.75,901.56,1052.9,875.29,1062.07,848.45z"/>
	<path class="st5" d="M979.29,867.64c0.14,1.38,0.23,2.72,0.52,4.23c-2.49-2.19-4.88-4.27-7.26-6.33
		c3.29,17.76,3.31,35.53,3.31,53.29C975.86,900.09,988.55,885.59,979.29,867.64z"/>
	<path class="st8" d="M245.44,88.9c0,0-6.58,60.56,51.34,111.9"/>
	<path class="st8" d="M826.09,626.36c0,0-6.58,60.56,51.34,111.9"/>
	<circle class="st8" cx="871.6" cy="204.7" r="42.13"/>
	<circle class="st9" cx="105.66" cy="204.7" r="19.75"/>
	<circle class="st4" cx="659.52" cy="48.19" r="12.41"/>
	<path class="st10" d="M210.03,936.43c-18.21,15.89-55.19,33.51-67.98-5.25c-12.79-38.76-39.39-18.9-51.31-10.89
		c-11.92,8.01-39.06,1.82-41.8-23.92c-2.74-25.74-39.39-36.64-39.39-36.64"/>
	<path class="st2" d="M249.83,258.39c0,0-161.27,12.51-192.86,181.02c129.02,75.7,387.7,84.91,439.05-106.63
		c-188.26,11.85-251.78,4.94-404.82,90.18C211.65,362.72,222.84,340.67,249.83,258.39z"/>
</g>
</svg>
